<svg width="1440" height="1020" viewBox="0 0 1440 1020" fill="none" xmlns="http://www.w3.org/2000/svg">
<path d="M0 0C0 0 438.389 40 720 40C1001.61 40 1440 0 1440 0V960C1440 960 1009.38 1020 727.771 1020C446.159 1020 0 962.082 0 962.082V0Z" fill="#28292A"/>
<mask id="mask0_207_112" style="mask-type:alpha" maskUnits="userSpaceOnUse" x="0" y="0" width="1440" height="1020">
<path d="M0 0C0 0 438.389 40 720 40C1001.61 40 1440 0 1440 0V960C1440 960 1009.38 1020 727.771 1020C446.159 1020 0 962.082 0 962.082V0Z" fill="#28292A"/>
</mask>
<g mask="url(#mask0_207_112)">
<circle opacity="0.06" cx="1613" cy="791" r="461" fill="url(#paint0_linear_207_112)"/>
</g>
<defs>
<linearGradient id="paint0_linear_207_112" x1="1152" y1="330" x2="2074" y2="1252" gradientUnits="userSpaceOnUse">
<stop stop-color="white"/>
<stop offset="1" stop-color="white" stop-opacity="0"/>
</linearGradient>
</defs>
</svg>
