<svg width="173" height="81" viewBox="0 0 173 81" fill="none" xmlns="http://www.w3.org/2000/svg">
<path d="M124.804 3.42076C124.01 3.42076 123.216 3.53461 122.263 3.42076C111.463 2.05461 100.664 1.94077 89.8636 2.51C71.1227 3.53461 53.1759 7.06382 36.9761 14.2361C26.9704 18.5622 18.5528 24.1407 12.2 31.1991C8.54709 35.2975 5.84713 39.6237 4.8942 44.4052C3.94127 49.8698 5.52949 54.879 10.1353 59.3189C14.1058 63.1897 19.1881 66.1497 24.7469 68.6543C32.5291 71.9558 40.7878 74.6881 49.6818 75.8265C56.1935 76.7373 62.864 77.1927 69.5345 77.5342C75.5697 77.7619 81.6049 77.7619 87.6402 77.5342C98.7577 77.0788 109.875 75.7127 120.516 73.3219C129.093 71.3866 137.669 69.4512 145.769 66.3774C153.392 63.4174 159.745 59.5466 164.033 54.082C166.416 51.0082 167.845 47.5928 168.321 44.0636C169.116 38.1437 167.369 32.6791 163.874 27.4422C158.633 19.5868 149.898 14.9192 138.145 13.2115C126.551 11.5038 114.957 11.3899 103.205 11.9592C102.728 11.9592 102.093 11.9592 101.616 12.073C89.8637 12.1869 78.2697 13.0976 66.0404 14.6915C72.0757 13.2115 77.6344 12.4146 83.1932 11.6176C94.4695 10.2515 105.905 9.79611 117.34 9.56842C122.263 9.45458 127.187 9.45458 132.11 9.79611C138.145 10.1377 143.863 11.0484 149.422 12.6423C156.569 14.8053 161.81 18.4484 165.78 23.116C172.292 30.6299 174.515 38.9406 171.974 47.5928C169.274 56.5866 161.81 63.1897 150.851 67.8574C137.192 73.6635 122.263 76.7373 107.016 79.0142C94.6283 80.8358 82.0814 81.2911 69.5345 80.8358C60.0052 80.4942 50.3171 79.8111 41.1055 77.5342C32.2115 75.3712 23.794 72.525 16.3293 68.4266C12.6765 66.3774 9.3412 64.1005 6.64123 61.482C0.447199 55.562 -1.29983 48.959 0.923666 41.6729C2.98834 34.8421 7.91181 29.036 14.2647 23.7991C24.1116 15.7161 36.3408 10.1376 50.1583 6.2669C60.4817 3.30691 71.2816 1.48539 82.2402 0.460776C90.4989 -0.108452 98.2812 -0.108452 106.063 0.233084C110.828 0.460775 115.752 0.688467 120.516 1.59923C122.104 1.82692 123.693 2.16846 124.963 2.96538C124.963 3.07923 124.963 3.19307 124.804 3.42076Z" fill="#F07167"/>
</svg>
