<svg width="1448" height="719" viewBox="0 0 1448 719" fill="none" xmlns="http://www.w3.org/2000/svg">
<path d="M0 40C0 40 438.389 0 720 0C1001.61 0 1440 40 1440 40L1447.77 716C1447.77 716 1009.38 676 727.771 676C446.159 676 0 718.082 0 718.082V40Z" fill="#F07167"/>
<mask id="mask0_207_89" style="mask-type:alpha" maskUnits="userSpaceOnUse" x="0" y="0" width="1448" height="719">
<path d="M0 40C0 40 438.389 0 720 0C1001.61 0 1440 40 1440 40L1447.77 716C1447.77 716 1009.38 676 727.771 676C446.159 676 0 718.082 0 718.082V40Z" fill="#F07167"/>
</mask>
<g mask="url(#mask0_207_89)">
<circle opacity="0.08" cx="208" cy="557" r="461" fill="url(#paint0_linear_207_89)"/>
</g>
<defs>
<linearGradient id="paint0_linear_207_89" x1="-253" y1="1018" x2="669" y2="96" gradientUnits="userSpaceOnUse">
<stop stop-color="white" stop-opacity="0"/>
<stop offset="1" stop-color="white"/>
</linearGradient>
</defs>
</svg>
