<svg width="24" height="24" viewBox="0 0 24 24" fill="none" xmlns="http://www.w3.org/2000/svg">
<g clip-path="url(#clip0_22_8568)">
<path d="M4.9892 17.1283C5.28601 16.0526 5.67563 15.0243 6.15001 14.0515M11.4872 7.68723C12.2894 7.10608 13.1463 6.59158 14.0512 6.15039" stroke="#F42631" stroke-width="1.5" stroke-linecap="round" stroke-linejoin="round"/>
<path d="M4.30811 22.2568C2.89211 22.2568 1.74423 21.1089 1.74423 19.6928C1.74423 18.2767 2.89211 17.1289 4.30811 17.1289C5.72411 17.1289 6.87208 18.2768 6.87208 19.6928C6.87208 21.1088 5.7242 22.2568 4.30811 22.2568Z" stroke="#F42631" stroke-width="1.5" stroke-linecap="round" stroke-linejoin="round"/>
<path d="M9.43604 11.999C8.02004 11.999 6.87207 10.8511 6.87207 9.43506C6.87207 8.01906 8.02004 6.87109 9.43604 6.87109C10.852 6.87109 12 8.01906 12 9.43506C12 10.8511 10.852 11.999 9.43604 11.999Z" stroke="#F42631" stroke-width="1.5" stroke-linecap="round" stroke-linejoin="round"/>
<path d="M19.6918 6.87198C18.2758 6.87198 17.1279 5.72411 17.1279 4.30802C17.1279 2.89192 18.2758 1.74414 19.6918 1.74414C21.1078 1.74414 22.2558 2.89202 22.2558 4.30802C22.2558 5.72402 21.1079 6.87198 19.6918 6.87198Z" stroke="#F42631" stroke-width="1.5" stroke-linecap="round" stroke-linejoin="round"/>
</g>
<defs>
<clipPath id="clip0_22_8568">
<rect width="24" height="24" fill="white"/>
</clipPath>
</defs>
</svg>
