<svg width="24" height="24" viewBox="0 0 24 24" fill="none" xmlns="http://www.w3.org/2000/svg">
<path d="M7.3125 17.625V16.6875C7.3125 14.0987 9.41117 12 12 12C14.5888 12 16.6875 14.0987 16.6875 16.6875V17.625" stroke="#8CD779" stroke-width="1.5" stroke-linecap="round" stroke-linejoin="round"/>
<path d="M1.6875 17.625V16.6875C1.6875 15.1342 2.9467 13.875 4.5 13.875" stroke="#8CD779" stroke-width="1.5" stroke-linecap="round" stroke-linejoin="round"/>
<path d="M22.3125 17.625V16.6875C22.3125 15.1342 21.0533 13.875 19.5 13.875" stroke="#8CD779" stroke-width="1.5" stroke-linecap="round" stroke-linejoin="round"/>
<path d="M12 12C13.5533 12 14.8125 10.7408 14.8125 9.1875C14.8125 7.6342 13.5533 6.375 12 6.375C10.4467 6.375 9.1875 7.6342 9.1875 9.1875C9.1875 10.7408 10.4467 12 12 12Z" stroke="#8CD779" stroke-width="1.5" stroke-linecap="round" stroke-linejoin="round"/>
<path d="M4.5 13.875C5.53553 13.875 6.375 13.0356 6.375 12C6.375 10.9644 5.53553 10.125 4.5 10.125C3.46447 10.125 2.625 10.9644 2.625 12C2.625 13.0356 3.46447 13.875 4.5 13.875Z" stroke="#8CD779" stroke-width="1.5" stroke-linecap="round" stroke-linejoin="round"/>
<path d="M19.5 13.875C20.5356 13.875 21.375 13.0356 21.375 12C21.375 10.9644 20.5356 10.125 19.5 10.125C18.4644 10.125 17.625 10.9644 17.625 12C17.625 13.0356 18.4644 13.875 19.5 13.875Z" stroke="#8CD779" stroke-width="1.5" stroke-linecap="round" stroke-linejoin="round"/>
</svg>
