<svg width="29" height="23" viewBox="0 0 29 23" fill="none" xmlns="http://www.w3.org/2000/svg">
<path d="M28.2759 8.04683C27.9393 8.42985 27.8393 8.60305 27.6027 8.81286C22.9671 13.642 18.0351 18.1846 12.5602 22.0673C12.0504 22.3504 11.4906 22.72 10.9442 22.8664C10.671 22.9396 10.1379 22.8628 10.1013 22.7262C9.94153 22.403 9.96832 21.9566 10.1183 21.6968C10.4183 21.1771 10.8915 20.7575 11.3147 20.4245C13.3076 18.5729 15.4236 16.9078 17.4164 15.0561C19.3592 13.2911 21.2654 11.3894 23.1717 9.48773C23.9315 8.77171 24.8279 8.01908 25.6743 7.35305C26.0475 7.10664 26.4207 6.86023 26.8305 6.75042C27.2403 6.64062 27.8599 6.76741 28.1563 7.05401C28.4161 7.20401 28.2893 7.82363 28.2759 8.04683Z" fill="#F07167"/>
<path d="M3.26366 6.76931C4.11366 5.29707 5.01366 3.73822 5.86366 2.26598C6.31366 1.48655 6.88686 0.893734 7.51007 0.214311C7.79667 -0.082099 8.46629 -0.0419064 8.8127 0.158094C9.0725 0.308094 9.21892 0.854504 9.19212 1.30091C9.16533 1.74732 8.96533 2.09374 8.71533 2.52675C6.82872 5.59444 4.89212 8.74873 2.91891 11.7664C2.56891 12.3726 2.04571 12.8789 1.4859 13.2485C1.1627 13.4083 0.579685 13.4181 0.183274 13.3047C0.0100693 13.2047 -0.0363412 12.4851 0.0270563 12.1753C0.390454 11.3458 0.790455 10.653 1.24045 9.8736C1.97706 8.79777 2.57705 7.75854 3.26366 6.76931C3.17706 6.71931 3.17706 6.71931 3.26366 6.76931Z" fill="#F07167"/>
</svg>
