<svg width="90" height="16" viewBox="0 0 90 16" fill="none" xmlns="http://www.w3.org/2000/svg">
<path d="M6.44058 0.260274C5.43384 0.260274 4.25931 0.131261 2.91699 0.00224578C1.51437 -0.0407582 -0.955291 0.518303 0.387029 3.09859C1.72935 5.67887 5.20575 5.11981 6.77616 4.51774C8.11848 4.38873 8.95743 4.25971 9.62859 4.25971C14.9979 4.51774 20.3671 4.38873 25.5686 4.90478C33.9581 5.67887 42.5154 6.71098 50.9049 7.74309C62.818 9.29126 74.5633 11.6135 85.6375 15.3549C86.4764 15.613 87.1476 15.871 87.9865 16C88.4899 16 88.9933 15.871 90 15.4839C89.4966 14.0648 88.1543 13.4197 86.9798 12.9037L86.9795 12.9036C84.1272 11.7425 81.2748 10.5814 78.4225 9.54929C70.7041 6.96901 62.4824 5.42084 54.2607 4.1307C44.8645 2.71154 35.4682 1.4214 26.072 0.905344C19.5282 0.518302 12.9844 0.518302 6.44058 0.260274Z" fill="#F07167"/>
</svg>
