<svg width="77" height="102" viewBox="0 0 77 102" fill="none" xmlns="http://www.w3.org/2000/svg">
<path d="M60.9 47.8809C71.12 52.5009 76.86 60.9009 76.86 71.8209C76.86 89.4609 61.88 101.921 39.62 101.921C15.54 101.921 1.46776e-05 87.5009 3.50001 65.9409H21C18.48 78.6809 26.6 87.0809 39.76 87.0809C51.38 87.0809 59.5 80.9209 59.5 71.2609C59.5 61.4609 51.1 55.0209 38.64 55.0209H30.1V41.5809H38.64C48.72 41.5809 55.58 36.5409 55.58 27.8609C55.58 19.7409 49.28 14.8409 39.48 14.8409C28.28 14.8409 21.28 21.5609 23.66 32.0609H6.86002C2.80002 13.4409 17.92 0.000931025 39.76 0.000931025C59.5 0.000931025 72.94 10.9209 72.94 27.0209C72.94 36.2609 68.6 43.4009 60.9 47.8809Z" fill="url(#paint0_linear_33_296)"/>
<defs>
<linearGradient id="paint0_linear_33_296" x1="5.75035" y1="-1.53906" x2="48.8687" y2="112.991" gradientUnits="userSpaceOnUse">
<stop stop-color="#47A3FF"/>
<stop offset="1" stop-color="#47A3FF" stop-opacity="0"/>
</linearGradient>
</defs>
</svg>
