<svg width="30" height="26" viewBox="0 0 30 26" fill="none" xmlns="http://www.w3.org/2000/svg">
<path d="M5.78301 10.0359C5.9648 9.76056 6.07699 9.6106 6.19818 9.42704C7.6753 6.87049 9.17701 4.35654 10.8287 1.95477C11.1922 1.40411 11.5804 0.896048 11.9686 0.387985C12.1234 0.213434 12.3789 0.0658864 12.6075 0.0191156C12.9548 -0.0678367 13.2547 0.156543 13.3909 0.589066C13.5582 1.17396 13.7255 1.75886 13.8166 2.35934C14.1998 4.15421 14.4978 5.99826 14.6614 7.8063C14.668 7.91608 14.7082 8.03486 14.7483 8.15364C15.0351 8.15846 15.0981 7.92332 15.2193 7.73976C16.1954 6.38113 17.1379 5.01349 18.105 3.68844C18.399 3.26315 18.7266 2.84686 19.0877 2.43958C19.3457 2.14866 19.6037 1.85774 19.9198 1.61842C20.3638 1.30532 20.8923 1.48293 21.0776 2.00064C21.1579 2.2382 21.1957 2.50035 21.1999 2.7535C21.1554 4.39776 21.1018 6.07561 20.8377 7.73305C20.7993 8.01079 20.7855 8.33112 20.7807 8.61786C20.7717 8.65146 20.8389 8.66946 20.8544 8.74564C21.1076 8.74147 21.2132 8.48173 21.359 8.34077C22.2361 7.35165 23.0886 6.31993 23.9993 5.33981C24.5488 4.76697 25.132 4.20314 25.7061 3.67289C25.8945 3.50734 26.0738 3.37539 26.2778 3.28602C26.8987 2.98434 27.501 3.28973 27.5315 3.98199C27.5488 4.45469 27.499 4.9094 27.4066 5.38869C27.1702 6.40546 26.8575 7.43783 26.6211 8.4546C26.2946 9.80729 26.0264 11.2116 25.7335 12.5733C25.5151 13.5229 25.3302 14.4815 25.1118 15.431C25.0488 15.6662 25.053 15.9193 24.9966 16.2643C25.3103 16.1683 25.5053 16.1125 25.7002 16.0568C26.6931 15.7107 27.6523 15.3557 28.6451 15.0096C28.9589 14.9137 29.2546 14.8849 29.5119 15.1339C29.7357 15.3739 29.7218 15.6942 29.5826 15.9449C29.3624 16.498 29.0841 16.9995 28.8639 17.5525C28.0149 19.3773 27.0987 21.184 26.5766 23.1324C26.5136 23.3675 26.4752 23.6453 26.4458 23.8894C26.4247 24.6399 26.0366 25.1479 25.3821 25.4406C24.5236 25.8227 23.6028 25.9 22.6664 25.9011C21.1901 25.9016 19.7588 25.7341 18.2783 25.4814C16.5963 25.1747 14.9143 24.868 13.2862 24.3598C11.6918 23.8606 10.0818 23.2852 8.50536 22.7187C6.79457 22.1163 5.12877 21.3459 3.57517 20.4256C2.74018 19.9138 1.9232 19.3349 1.15781 18.6977C0.775115 18.3792 0.49561 17.9442 0.216104 17.5093C-0.0478116 17.1505 -0.049577 16.754 0.101029 16.3263C0.701687 14.219 1.23516 12.0937 1.83582 9.98636C2.13285 8.87781 2.49707 7.78726 2.8367 6.65412C2.87271 6.51975 2.9513 6.36079 3.05449 6.24443C3.31246 5.95351 3.67539 5.94274 3.91472 6.2589C4.08027 6.44727 4.16063 6.68483 4.27458 6.93139C4.68122 7.83244 5.07886 8.76708 5.4855 9.66813C5.54369 9.71973 5.62646 9.81392 5.78301 10.0359ZM1.42207 15.0241C1.68422 14.9863 1.82759 14.9887 2.01355 14.9666C2.67222 14.927 3.3489 14.8203 3.99856 14.8144C5.70342 14.7671 7.40345 15.0066 9.06748 15.3805C10.7315 15.7543 12.4045 16.0946 14.0326 16.6029C16.4152 17.3853 18.7553 18.1923 20.9897 19.2591C22.5547 20.0025 24.0682 20.8041 25.3728 21.9817C25.4556 22.0759 25.5899 22.1119 25.7825 22.1995C25.8791 21.9734 25.9577 21.8144 26.0363 21.6555C26.1329 21.4293 26.1713 21.1516 26.2679 20.9254C26.8475 19.5685 27.4181 18.2453 27.9977 16.8884C28.0673 16.763 28.0697 16.6197 28.1327 16.3845C27.8616 16.4559 27.6756 16.4781 27.5232 16.5092C27.0055 16.6945 26.5124 16.9225 25.9947 17.1078C25.5957 17.2529 25.2058 17.3645 24.8003 17.3998C24.4284 17.4442 24.1194 17.2534 23.9653 16.888C23.9095 16.6931 23.8628 16.4645 23.9168 16.263C24.1694 14.7825 24.4221 13.302 24.751 11.806C25.2149 9.806 25.7549 7.79046 26.2278 5.75691C26.2908 5.52177 26.3538 5.28662 26.3742 5.07607C26.4012 4.97529 26.3275 4.84751 26.2807 4.61895C26.0497 4.80909 25.8703 4.94105 25.7246 5.08201C24.2061 6.58337 22.8287 8.23052 21.4848 9.88666C21.2784 10.1194 21.0967 10.3947 20.8657 10.5849C20.6167 10.8422 20.3276 10.9807 19.967 10.8481C19.5729 10.7065 19.5532 10.3772 19.4998 10.0389C19.4932 9.92908 19.4776 9.8529 19.5046 9.75212C19.5455 9.33101 19.5773 8.94349 19.6181 8.52238C19.788 6.94772 19.9669 5.33946 20.1032 3.7558C20.1056 3.61243 20.0745 3.46005 20.0457 3.16431C19.7967 3.42164 19.6509 3.5626 19.5387 3.71256C18.2867 5.4293 17.0592 7.18863 15.8407 8.91438C15.5647 9.27248 15.3223 9.63959 15.0217 9.9551C14.5844 10.378 14.0715 10.2765 13.8706 9.68265C13.741 9.35991 13.6967 8.98798 13.6769 8.65864C13.4419 6.57945 13.207 4.50025 12.7524 2.43423C12.7147 2.17209 12.6007 1.92553 12.5228 1.5446C12.3254 1.74374 12.1886 1.85111 12.11 2.01007C11.825 2.40176 11.5401 2.79346 11.2797 3.22775C9.72878 5.65652 8.23607 8.13688 6.71877 10.5747C6.58858 10.7918 6.45839 11.0089 6.2946 11.2171C5.92444 11.658 5.46074 11.6417 5.11405 11.1888C4.9575 10.9668 4.81895 10.6777 4.714 10.3975C4.39672 9.70043 4.11304 9.01235 3.79576 8.31527C3.72199 8.18749 3.63921 8.0933 3.56544 7.96552C3.53185 7.95652 3.45566 7.97211 3.42207 7.96311C2.7674 10.272 1.96937 12.5784 1.42207 15.0241ZM12.1009 17.0934C10.6966 16.8251 8.93182 16.4243 7.1826 16.0996C5.91268 15.8673 4.60676 15.7694 3.32301 15.8575C2.80771 15.8994 2.31701 15.984 1.8173 16.1021C1.03744 16.3252 0.895834 16.7193 1.41707 17.327C1.68999 17.6522 1.9965 17.9863 2.33001 18.2197C3.147 18.7987 3.97298 19.344 4.85056 19.8312C7.59307 21.2861 10.5444 22.365 13.5161 23.2333C14.5149 23.5369 15.5496 23.7061 16.5238 23.9672C18.246 24.3926 20.0223 24.6165 21.7919 24.7307C22.7439 24.8057 23.7229 24.78 24.6551 24.5257C25.4686 24.3117 25.5766 23.9086 25.1069 23.2426C24.9996 23.1059 24.9258 22.9781 24.8004 22.9085C24.3595 22.5383 23.9277 22.1346 23.4352 21.8226C21.2752 20.3437 18.8793 19.3417 16.4139 18.4651C15.1398 17.9797 13.7961 17.6196 12.1009 17.0934Z" fill="#F07167"/>
<path d="M15.0497 12.8069C15.2141 12.0589 15.6539 11.4926 16.1518 10.978C16.2976 10.837 16.4344 10.7297 16.6383 10.6403C17.1315 10.4124 17.5838 10.6056 17.7691 11.1233C17.8248 11.3183 17.847 11.5042 17.8692 11.6902C17.8457 12.584 17.6543 13.4328 17.1269 14.1916C16.9451 14.4669 16.6536 14.7489 16.3644 14.8874C15.6829 15.2809 14.9979 14.8813 14.9182 14.1038C14.9164 13.7073 14.9998 13.2616 15.0497 12.8069Z" fill="#F07167"/>
<path d="M19.4712 15.2518C19.7406 14.7839 20.0099 14.316 20.3465 13.8662C20.4677 13.6826 20.7233 13.5351 20.9362 13.4121C21.5145 13.135 22.0922 13.3978 22.2841 14.0253C22.4292 14.4242 22.431 14.8207 22.2804 15.2484C22.0512 15.8351 21.6966 16.3522 21.1339 16.7054C20.7416 16.9604 20.318 17.0629 19.8837 16.8025C19.5412 16.6027 19.3649 16.0514 19.4999 15.5475C19.5179 15.4804 19.5359 15.4132 19.5629 15.3124C19.5048 15.2608 19.4712 15.2518 19.4712 15.2518Z" fill="#F07167"/>
<path d="M8.90163 11.6996C9.11283 11.1801 9.37322 10.7458 9.84174 10.4753C10.3619 10.1467 10.9665 10.3087 11.21 10.878C11.5273 11.5751 11.5014 12.6123 10.8151 13.2925C10.5145 13.608 10.1246 13.7195 9.68791 13.6025C9.22661 13.4429 9.02088 13.1357 8.95193 12.7212C8.86498 12.3739 8.88781 12.0199 8.90163 11.6996Z" fill="#F07167"/>
<path d="M4.31084 17.8144C4.4968 17.7922 4.72536 17.7454 4.90233 17.7568C5.71095 17.8295 6.48599 17.8931 7.27662 18.033C9.78287 18.4885 12.2351 19.1456 14.6604 19.9034C16.322 20.4207 17.9656 21.0051 19.6092 21.5895C20.263 21.8367 20.8653 22.1421 21.4675 22.4475C21.8526 22.6227 22.0158 22.9544 21.8946 23.138C21.7128 23.4133 21.3925 23.3995 21.1573 23.3365C20.6534 23.2015 20.2012 23.0083 19.7153 22.8061C18.6673 22.4173 17.6284 21.9949 16.5714 21.6396C14.5919 20.9652 12.6033 20.3244 10.6058 19.7171C9.50625 19.3865 8.3797 19.1566 7.23755 18.8506C6.33056 18.6076 5.41457 18.3981 4.50757 18.1551C4.4068 18.1281 4.32402 18.0339 4.23224 17.9733C4.28384 17.9151 4.29284 17.8816 4.31084 17.8144Z" fill="#F07167"/>
</svg>
