<svg width="50" height="40" viewBox="0 0 50 40" fill="none" xmlns="http://www.w3.org/2000/svg">
<path d="M0.459606 15.1143C2.96471 7.79928 9.91437 3.5728 17.0256 1.7034C21.1874 0.606141 25.3491 0.524863 29.5916 1.29701C31.9351 1.74404 34.319 2.35363 36.42 3.45089C37.8746 4.18239 39.2888 5.23901 40.8242 5.88924C41.0262 6.13308 41.2686 6.33627 41.5919 6.41755C41.9151 6.70202 42.2787 6.94586 42.6424 7.18969C42.7636 7.27097 42.9252 7.18969 42.9656 7.10842C43.1273 6.82394 43.2889 6.53947 43.4101 6.21435C43.4909 6.21435 43.6121 6.17371 43.6929 6.0518C44.299 5.27965 44.6222 4.06047 44.8243 2.8413C45.592 5.19837 46.4405 7.55545 47.2082 9.91252C47.6526 11.3349 48.0567 12.7979 48.4203 14.2609C48.4203 14.9518 48.4203 15.6427 48.5011 16.3335C48.5819 16.8618 48.7031 17.3901 48.8648 17.9184C48.986 18.3248 48.7031 18.2842 48.3395 18.4468C47.0061 18.9344 45.592 19.097 44.1778 19.3408C43.6121 19.3815 43.0464 19.4627 42.4404 19.5847C42.1575 19.6253 41.8343 19.7066 41.5515 19.7879C39.3292 20.1536 37.0261 20.6413 35.2079 21.8198C35.1675 21.8198 35.0867 21.8605 35.0463 21.8605C35.0867 19.6253 36.016 16.9431 37.5918 15.4395C37.7534 15.2769 37.7534 15.0331 37.5918 14.8705C37.0665 14.3422 36.5816 13.7326 35.9756 13.3669C36.016 13.2043 35.9756 13.0011 35.8139 12.8385C29.7936 8.44951 21.5914 7.43353 14.3993 8.69335C11.3689 9.22166 8.33857 10.0751 5.51023 11.2943C3.53038 12.2696 0.742441 13.7732 0.378797 16.171C0.378797 16.171 0.378797 16.2116 0.419202 16.171C1.63135 13.9358 4.25767 12.7979 6.47995 11.9038C9.10627 10.8472 11.8942 10.1564 14.6417 9.62805C21.5106 8.36823 29.43 9.46549 35.2079 13.6107C35.6119 14.2609 36.218 14.7892 36.7837 15.2769C35.1271 17.1057 34.2382 20.0723 34.3594 22.47C34.3594 22.7139 34.6018 22.8764 34.8038 22.8358C36.5816 22.3481 38.2787 21.6573 40.0161 21.0883C41.1878 20.8851 42.4 20.7226 43.5717 20.5194C45.3495 20.1942 47.8142 20.1536 49.4304 19.097C49.4708 19.1783 49.4708 19.2595 49.5112 19.3408C49.5112 19.3815 49.5516 19.3815 49.5516 19.3408C49.592 19.2189 49.6325 19.097 49.6325 18.9751C49.7133 18.9344 49.7941 18.8532 49.8345 18.8125C49.9557 18.7312 49.9961 18.4874 49.9557 18.3655C49.8749 18.1623 49.8345 17.9997 49.7537 17.7965C49.8345 15.3175 48.8648 12.5134 48.2587 10.3596C47.289 7.10842 46.1172 3.89792 45.1071 0.646781C44.9859 0.240388 44.2182 0.118471 44.1778 0.646781C44.0162 1.9066 43.6121 3.12577 43.2889 4.34495C43.2889 4.34495 43.2889 4.34495 43.2889 4.38559C43.2889 4.42623 43.2889 4.42623 43.2889 4.46687C43.2485 4.7107 43.1677 4.9139 43.1273 5.15773C43.006 5.44221 42.8444 5.68604 42.5616 5.8486C42.5212 5.80796 42.4808 5.76732 42.4404 5.72668C40.4201 4.7107 38.4403 3.5728 36.42 2.55682C34.1978 1.37829 31.6926 0.849977 29.2683 0.402945C24.945 -0.328561 20.6621 -0.0440861 16.46 1.09381C9.30829 3.00386 2.39904 7.59609 0.338392 15.0737C0.297987 15.1956 0.419202 15.1956 0.459606 15.1143ZM42.6424 6.70202C42.5616 6.66139 42.4808 6.62075 42.4404 6.58011C42.4808 6.58011 42.5212 6.58011 42.5616 6.53947C42.6424 6.53947 42.6828 6.49883 42.7636 6.45819C42.7232 6.53947 42.6828 6.62075 42.6424 6.70202Z" fill="#47A3FF"/>
<path d="M49.592 24.0143C49.592 23.9737 49.6325 23.8924 49.6325 23.8518C49.6325 23.8518 49.6325 23.8111 49.592 23.8518C48.9052 25.071 47.8142 25.965 46.6021 26.6559C46.6021 26.6559 46.5617 26.6152 46.5617 26.6559V26.6965C46.2384 26.8997 45.8748 27.0623 45.5111 27.2248V27.1842C45.5111 27.0216 45.2687 26.981 45.2283 27.1436C45.2283 27.2248 45.1879 27.3061 45.1879 27.3874C44.9859 27.5093 44.7435 27.5906 44.5414 27.6719C44.5414 27.5499 44.5414 27.4687 44.5414 27.3467C44.5414 27.3061 44.501 27.3061 44.501 27.3467C44.4606 27.4687 44.4202 27.5906 44.4202 27.7531C44.1374 27.8751 43.8545 27.997 43.5717 28.1189C40.9454 29.1755 38.1574 29.8664 35.4099 30.3947C35.1271 30.4353 34.8846 30.476 34.6018 30.5166C32.5411 30.5979 30.4401 30.7604 28.3794 30.8417C23.8541 30.5979 19.2883 29.3787 15.5711 26.8997C15.6923 26.7372 15.4094 26.4933 15.2478 26.6559C15.1266 26.5746 15.0054 26.4933 14.8438 26.3714C14.4397 25.7212 13.8337 25.1929 13.268 24.6646C14.9246 22.8358 15.8135 19.8691 15.6923 17.4714C15.6923 17.2276 15.4498 17.065 15.2478 17.1057C13.47 17.5933 11.773 18.2842 10.0356 18.8532C8.86384 19.0563 7.65169 19.2189 6.47995 19.4221C4.70213 19.7472 2.23743 19.7879 0.621226 20.8445C0.580821 20.7632 0.580821 20.6819 0.540416 20.6006C0.540416 20.56 0.500011 20.56 0.500011 20.6006C0.378797 20.8038 0.378797 20.9664 0.338392 21.0883C0.257582 21.1289 0.176772 21.2102 0.136367 21.2509C0.0151519 21.3321 -0.0252531 21.576 0.0151519 21.6979C0.0959618 21.9011 0.136367 22.0637 0.217177 22.2668C0.136367 24.7458 1.10609 27.5499 1.71216 29.7038C2.68188 32.955 3.85362 36.1655 4.86375 39.4166C4.98496 39.823 5.75266 39.9449 5.79306 39.4166C5.95468 38.1568 6.35873 36.9376 6.68197 35.7184V35.6778C6.68197 35.6371 6.68197 35.6371 6.68197 35.5965C6.72238 35.5152 6.72238 35.434 6.76278 35.3527C6.84359 35.312 6.96481 35.2308 7.04562 35.1495C7.16683 35.0682 7.04562 34.9056 6.96481 34.9869C6.9244 34.9869 6.884 35.0276 6.84359 35.0276C6.84359 34.9869 6.84359 34.9463 6.884 34.9056C7.00521 34.6212 7.16683 34.3773 7.44967 34.2148C7.49007 34.2554 7.53048 34.2961 7.57088 34.3367C9.59113 35.3527 11.571 36.4906 13.5912 37.5066C15.8135 38.6038 18.3186 39.1728 20.7429 39.5792C25.0662 40.3513 29.3492 40.0262 33.5513 38.8883C34.1573 38.7257 34.723 38.5632 35.3291 38.36C35.3695 38.4006 35.4503 38.4006 35.4907 38.4006C35.6927 38.36 35.8948 38.2787 36.0564 38.1161C39.2888 36.9376 42.3596 35.1901 44.8243 32.8737C45.3091 32.5079 45.7536 32.1015 46.1576 31.6545C47.2082 30.5572 47.9354 29.2568 48.5011 27.9157C48.5415 27.8344 48.5819 27.7531 48.6223 27.7125C48.7031 27.6719 48.7435 27.6312 48.8244 27.5906C48.9456 27.5093 48.9456 27.3061 48.8648 27.2248C49.1476 26.6152 49.39 25.965 49.592 25.2741C49.7133 24.949 49.8345 24.6239 49.9961 24.2988C50.0365 24.055 49.7537 23.8924 49.592 24.0143ZM36.7837 37.0595C36.9453 36.7344 37.0665 36.3687 37.1877 36.0435C37.2685 36.0029 37.3089 35.9623 37.3897 35.9216C37.1877 36.328 36.9857 36.6938 36.7837 37.0595ZM35.2887 37.6285C35.4099 37.4253 35.5311 37.1408 35.6119 36.897C35.8139 36.7751 36.016 36.6938 36.218 36.5719C36.0564 36.8563 35.8948 37.1814 35.7331 37.4659C35.5715 37.5066 35.4099 37.5472 35.2887 37.6285ZM32.8644 38.3193C32.622 38.4006 32.3391 38.4413 32.0967 38.5225C32.1371 38.4819 32.1371 38.4006 32.1775 38.36C32.3795 38.2787 32.622 38.1974 32.824 38.1161C32.8644 38.1161 32.9048 38.0755 32.9856 38.0755C32.9452 38.1568 32.9048 38.2381 32.8644 38.3193ZM17.6721 38.0755C17.7529 37.9942 17.8337 37.9536 17.9146 37.8723C18.359 37.9129 18.7631 37.9536 19.2075 37.9942C19.0863 38.1161 19.0055 38.2381 18.8843 38.4006C18.4802 38.2787 18.0762 38.1974 17.6721 38.0755ZM16.1771 37.6285C16.662 37.7098 17.1469 37.791 17.6317 37.8723C17.5509 37.9129 17.5105 37.9942 17.4297 38.0349C17.0256 37.9129 16.6216 37.791 16.1771 37.6285ZM14.9246 18.0404C14.9246 18.4874 14.8842 18.9751 14.8034 19.4627C14.763 19.4221 14.763 19.4221 14.7226 19.3815C14.8034 18.9751 14.8842 18.528 14.9246 18.081C14.9246 18.0404 14.8842 18.0404 14.8842 18.081C14.8438 18.3655 14.8034 18.65 14.7226 18.9344C14.7226 18.8532 14.6417 18.8125 14.5609 18.8125C14.3589 18.8125 14.1973 18.8532 13.9953 18.8532C13.9549 18.8125 13.9145 18.8125 13.8741 18.7719C13.9549 18.6906 13.9953 18.6093 14.0761 18.4874C14.3185 18.3655 14.5609 18.2436 14.763 18.081C14.8034 18.081 14.8438 18.0404 14.9246 18.0404ZM14.1973 21.576C14.1569 21.5353 14.0761 21.4947 14.0357 21.4541C14.3185 20.8038 14.5205 20.1536 14.6822 19.4627C14.7226 19.5034 14.7226 19.544 14.763 19.544C14.6417 20.2349 14.4397 20.9258 14.1973 21.576ZM13.3084 23.3235C13.268 23.2828 13.1872 23.2422 13.1468 23.2422C13.1468 23.2015 13.1872 23.2015 13.1872 23.1609C13.3084 23.0796 13.4296 22.9984 13.5508 22.9577C13.47 23.0796 13.3892 23.2015 13.3084 23.3235ZM13.7124 26.3308C13.6316 26.6152 13.5104 26.8997 13.3892 27.1842C13.2276 27.0623 13.066 26.981 12.9447 26.8591C13.1468 26.6152 13.3084 26.412 13.5104 26.1682C13.5912 26.2088 13.6316 26.2901 13.7124 26.3308ZM18.7631 29.6225C18.7631 29.6225 18.7631 29.6632 18.7227 29.6632C18.4802 29.5819 18.1974 29.46 17.955 29.3381C17.955 29.2974 17.955 29.2974 17.9954 29.2568C18.2782 29.4193 18.5206 29.5006 18.7631 29.6225ZM45.996 30.7198C46.0768 30.4353 46.1576 30.1102 46.2384 29.7851C46.5213 29.5413 46.7637 29.2974 46.9657 29.0536C46.8849 29.2162 46.8041 29.4193 46.7637 29.5819C46.5213 29.9883 46.2788 30.3541 45.996 30.7198ZM42.1171 33.7677C42.2383 33.4426 42.3596 33.1175 42.4808 32.7518C42.804 32.5079 43.0868 32.2641 43.3697 32.0203C43.2889 32.3454 43.1677 32.6705 43.006 32.9143C42.9656 32.9956 43.0464 33.0769 43.1273 33.0769C43.6121 32.8737 43.7737 32.1422 43.8949 31.6139C44.0162 31.5326 44.1374 31.4107 44.2586 31.2888C44.1374 31.7358 44.0566 32.1422 44.0162 32.5892C43.3697 33.0362 42.7636 33.402 42.1171 33.7677ZM40.9858 34.4586C41.0666 34.2148 41.1474 33.9303 41.2282 33.6865C41.3898 33.5646 41.5515 33.4833 41.7131 33.3614C41.5919 33.6458 41.4706 33.9303 41.3494 34.2148C41.2282 34.2961 41.107 34.3773 40.9858 34.4586ZM24.0561 39.1321C23.5712 39.0915 23.0864 39.0508 22.6015 39.0102C22.8036 38.6851 22.9652 38.3193 23.1672 37.9942C23.6925 37.9536 24.2581 37.9129 24.7834 37.8723C24.5814 38.2381 24.3793 38.5632 24.1773 38.9289C24.0965 39.0102 24.0561 39.0915 24.0561 39.1321ZM20.2984 37.5066C20.4601 37.3034 20.6217 37.0595 20.7833 36.8157C20.9449 36.8563 21.1065 36.8563 21.3086 36.897C21.4298 36.897 21.551 36.9376 21.6722 36.9376C21.551 37.1408 21.4702 37.3034 21.349 37.5066C20.9853 37.5066 20.6217 37.5066 20.2984 37.5066ZM5.46982 35.5559C5.46982 35.5965 5.46982 35.5965 5.42942 35.6371C5.38901 35.6371 5.34861 35.6778 5.3082 35.6778C5.34861 35.3933 5.42942 35.0682 5.46982 34.7837C5.51023 34.7431 5.51023 34.7431 5.51023 34.7024C5.59104 34.418 5.67185 34.1741 5.75266 33.9303C5.79306 33.9303 5.87387 33.8897 5.91428 33.8897C5.75266 34.418 5.59104 34.9869 5.46982 35.5559ZM4.58091 35.3933C4.41929 34.9463 4.25767 34.5399 4.13646 34.0929C4.29808 34.0929 4.5001 34.0929 4.66172 34.0929C4.62132 34.2961 4.58091 34.4993 4.54051 34.7024C4.5001 34.9869 4.90415 35.1088 4.94456 34.8244C4.98496 34.6618 5.02537 34.4586 5.06577 34.2961L5.10618 34.3367C5.02537 34.7837 4.94456 35.1901 4.94456 35.6371C4.82334 35.5559 4.70213 35.4746 4.58091 35.3933ZM3.81322 32.1828C3.81322 31.7764 3.85362 31.37 3.97484 30.9636C4.17686 30.923 4.33848 30.923 4.54051 30.8824C4.78294 31.1668 4.98496 31.4513 5.22739 31.7358C5.06577 32.3047 4.94456 32.833 4.82334 33.402C4.5001 32.9956 4.17686 32.5892 3.81322 32.1828ZM3.32836 31.7764C3.28795 31.6545 3.24755 31.4919 3.20714 31.37C3.20714 31.3294 3.20714 31.2888 3.20714 31.2481C3.20714 31.1668 3.24755 31.1262 3.24755 31.0449C3.32836 31.0449 3.40917 31.0449 3.44957 31.0449C3.40917 31.2888 3.36876 31.5326 3.32836 31.7764ZM3.97484 28.1189C4.13646 27.6719 4.33848 27.2248 4.54051 26.7778C4.62132 26.7778 4.66172 26.7372 4.74253 26.7372C4.86375 26.8591 4.98496 27.0216 5.10618 27.1436C4.94456 27.4687 4.74253 27.8344 4.54051 28.2814C4.4597 28.3221 4.33848 28.3627 4.21727 28.4034C4.17686 28.2814 4.09605 28.2002 3.97484 28.1189ZM3.97484 28.444C3.93443 28.444 3.89403 28.4846 3.85362 28.4846C3.85362 28.444 3.89403 28.4034 3.89403 28.3627C3.93443 28.4034 3.93443 28.444 3.97484 28.444ZM2.15662 25.518C2.56066 25.4773 2.96471 25.3961 3.32836 25.3148C3.12633 25.8431 2.92431 26.3714 2.72228 26.8997C2.47985 26.6965 2.23743 26.4933 1.995 26.2901H1.95459C2.0354 26.0057 2.07581 25.7618 2.15662 25.518ZM1.95459 21.7385C1.83338 21.9824 1.75257 22.2262 1.67176 22.5107C1.51014 22.4294 1.34852 22.3481 1.1869 22.2262C1.14649 22.1449 1.14649 22.0637 1.10609 21.9417C0.984871 21.5353 1.26771 21.576 1.63135 21.4134C1.67176 21.4134 1.67176 21.4134 1.71216 21.3728C2.15662 21.4134 2.56066 21.4134 3.00512 21.3728C3.04552 21.4541 3.12633 21.5353 3.20714 21.576C2.96471 22.023 2.76269 22.5107 2.52026 22.9577H2.47985C2.23742 22.7952 1.995 22.592 1.75257 22.47C1.83338 22.1856 1.91419 21.9417 1.995 21.6979C1.995 21.7385 1.95459 21.7385 1.95459 21.7385ZM13.6316 18.6906C13.672 18.6906 13.7124 18.7312 13.7124 18.7312C13.672 18.7719 13.6316 18.8125 13.5912 18.8532C13.4296 18.8938 13.2276 18.8938 13.066 18.9344C13.3084 18.8532 13.47 18.7719 13.6316 18.6906ZM13.672 18.6906C13.7528 18.65 13.7932 18.6093 13.8741 18.6093C13.8337 18.65 13.7932 18.6906 13.7528 18.7312C13.7124 18.6906 13.7124 18.6906 13.672 18.6906ZM14.6013 19.3002C14.5609 19.2595 14.5205 19.2189 14.4397 19.1783C14.4801 19.1783 14.5205 19.1783 14.5609 19.1376C14.6013 19.1376 14.6417 19.097 14.6417 19.097C14.6417 19.1376 14.6013 19.2189 14.6013 19.3002ZM14.5609 19.3408C14.3993 19.9098 14.1973 20.4787 13.9953 21.007C13.9549 20.9258 13.8741 20.8445 13.7528 20.8851C13.672 20.9258 13.5508 20.9258 13.47 20.9664C13.3084 20.8445 13.1468 20.6819 12.9851 20.56C13.4296 20.3568 13.8741 20.113 14.2781 19.8691C14.5205 19.7472 14.3185 19.3408 14.0761 19.5034C13.7124 19.7066 13.3488 19.9098 12.9851 20.0723C13.1064 19.8691 13.268 19.6253 13.3892 19.4221C13.7124 19.3408 14.0761 19.2595 14.3993 19.1783C14.4397 19.2189 14.5205 19.3002 14.5609 19.3408ZM13.1064 22.8358C12.9851 22.8764 12.9043 22.9171 12.7831 22.9984C12.4599 22.7139 12.177 22.3888 11.8942 22.0637C11.9346 22.023 11.9346 21.9824 11.975 21.9417C12.5407 21.7385 13.066 21.5353 13.6316 21.3728C13.672 21.4134 13.7528 21.4541 13.7932 21.4947C13.5912 21.9417 13.3488 22.3888 13.1064 22.8358ZM30.3997 31.6951C30.3593 31.7764 30.3189 31.8577 30.2381 31.939C29.9148 31.9796 29.5916 32.0609 29.2683 32.1015C29.2683 32.0609 29.3088 32.0203 29.3088 32.0203C29.3492 31.8171 29.0663 31.6951 28.9855 31.8577C28.9047 31.9796 28.8643 32.0609 28.7835 32.1828C28.5411 32.2235 28.339 32.2641 28.0966 32.2641C28.137 32.0609 28.2178 31.8577 28.2582 31.6545C28.9855 31.6951 29.6724 31.6951 30.3997 31.6951ZM39.4908 30.5979C39.4504 30.6385 39.4504 30.6792 39.41 30.7604C39.1272 30.8417 38.8443 30.8824 38.5615 30.9636C38.6019 30.8417 38.6019 30.7198 38.6423 30.5979C38.9655 30.5572 39.208 30.5572 39.4908 30.5979ZM39.2484 31.0856C39.208 31.1668 39.208 31.2075 39.1676 31.2888C38.9251 31.37 38.6827 31.4513 38.4403 31.4919C38.4403 31.4107 38.4807 31.37 38.4807 31.2888C38.7231 31.2075 39.0059 31.1668 39.2484 31.0856ZM27.9754 38.6851C28.0966 38.2787 28.2178 37.8723 28.339 37.4659C28.6623 37.4253 28.9451 37.3846 29.2683 37.344C29.1471 37.7098 29.0259 38.0755 28.9855 38.4413C28.6623 38.5225 28.339 38.6038 27.9754 38.6851ZM23.9753 36.6125C24.0965 36.4093 24.2581 36.1655 24.3793 35.9623C24.9046 35.9623 25.4299 35.9216 25.9551 35.881C25.8339 36.1248 25.6723 36.328 25.5511 36.5719C25.0258 36.5719 24.5006 36.6125 23.9753 36.6125ZM23.0864 37.4253C23.1672 37.3034 23.248 37.1814 23.3288 37.0595H23.3692C23.2884 37.1814 23.248 37.3034 23.1672 37.4253C23.1672 37.4253 23.1268 37.4253 23.0864 37.4253ZM22.8844 38.0349C22.7227 38.36 22.5611 38.6851 22.3995 39.0102C22.1975 38.9696 22.0359 38.9696 21.8338 38.9289C22.1167 38.6445 22.3591 38.36 22.6419 38.0349C22.7631 38.0349 22.8036 38.0349 22.8844 38.0349ZM16.1367 37.1002C15.9347 37.0595 15.6923 37.0189 15.4903 36.9782C15.8135 36.6938 16.1367 36.2467 16.46 35.7997C16.7428 35.881 16.9852 35.9216 17.2681 36.0029C16.9044 36.4093 16.5408 36.7751 16.1367 37.1002ZM5.18699 34.0522C5.14658 34.0522 5.14658 34.0522 5.18699 34.0522V34.0522ZM5.18699 33.7677C5.3082 33.2394 5.42942 32.7518 5.59104 32.2641C5.63144 32.3454 5.71225 32.4267 5.75266 32.4673C5.55063 32.8737 5.38901 33.3207 5.2678 33.7271C5.22739 33.7677 5.18699 33.7677 5.18699 33.7677ZM5.71225 31.7764C5.79306 31.4919 5.87387 31.2481 5.95468 30.9636C6.0759 31.1262 6.15671 31.2481 6.27792 31.4107C6.15671 31.6139 6.03549 31.8577 5.91428 32.1015C5.87387 31.9796 5.79306 31.8983 5.71225 31.7764ZM3.6516 21.4134C4.17686 21.3728 4.74253 21.3321 5.2678 21.2509C5.02537 21.6979 4.78294 22.1449 4.58091 22.592C4.4597 22.6326 4.33848 22.6326 4.21727 22.6732C3.97484 22.4294 3.73241 22.1449 3.53038 21.9011C3.53038 21.7385 3.57079 21.576 3.6516 21.4134ZM3.20714 21.6166C3.16674 21.576 3.12633 21.4947 3.04552 21.4541C3.12633 21.4541 3.20714 21.4541 3.28795 21.4541C3.28795 21.4947 3.24755 21.5353 3.20714 21.6166ZM6.15671 21.0883C6.35873 21.4134 6.60116 21.6979 6.84359 21.9824C6.84359 22.023 6.80319 22.023 6.80319 22.0637C6.15671 22.2262 5.51023 22.3481 4.86375 22.5107C5.06577 22.0637 5.2678 21.6573 5.46982 21.2102C5.67185 21.1696 5.91428 21.1289 6.15671 21.0883ZM9.75275 27.5906C9.75275 27.5499 9.71234 27.5499 9.71234 27.5093C9.67194 27.428 9.55072 27.4687 9.55072 27.5499C9.46991 27.4687 9.3487 27.3874 9.26789 27.3061C9.3487 27.1435 9.46991 26.981 9.55072 26.8184C9.59113 26.8184 9.59113 26.8184 9.63153 26.8184C9.79315 26.8184 9.79315 26.6152 9.71234 26.534C9.87396 26.2495 10.0356 25.9244 10.1972 25.5993C10.2376 25.6399 10.278 25.6399 10.3184 25.6805C10.3992 25.7212 10.48 25.5993 10.4396 25.5586C10.3992 25.518 10.3588 25.4773 10.3184 25.4367C10.48 25.1522 10.6013 24.8271 10.7629 24.5426C11.1265 24.3801 11.4902 24.1769 11.8134 23.9737C11.9346 24.0956 12.0962 24.1769 12.2175 24.2988C11.4094 25.4367 10.5608 26.4933 9.75275 27.5906ZM15.8539 29.013C16.0963 29.1349 16.3388 29.2568 16.5812 29.3787C16.4196 29.5006 16.2579 29.6225 16.1367 29.7851C15.8943 29.7038 15.6923 29.5819 15.4498 29.46C15.6115 29.2974 15.7327 29.1755 15.8539 29.013ZM20.7833 31.8983C20.9853 31.939 21.1874 32.0203 21.3894 32.0609C21.3894 32.1015 21.349 32.1422 21.349 32.1422C21.0257 32.1015 20.7429 32.0203 20.4197 31.9796C20.4601 31.939 20.5005 31.8577 20.5409 31.8171C20.6217 31.8577 20.7025 31.8577 20.7833 31.8983ZM22.6823 32.3454C22.6419 32.4673 22.5611 32.5892 22.5207 32.7518C22.1975 32.7111 21.8742 32.7111 21.5914 32.6705C21.6722 32.5079 21.7126 32.3454 21.7934 32.1828C22.0763 32.2235 22.3995 32.3047 22.6823 32.3454ZM21.955 31.7358C22.0359 31.4919 22.1167 31.2481 22.2379 31.0449C22.5207 31.0856 22.844 31.1262 23.1268 31.1262C23.046 31.4107 22.9652 31.6545 22.844 31.939C22.5611 31.8577 22.2379 31.7764 21.955 31.7358ZM24.9854 32.6705C24.945 32.7518 24.9046 32.7924 24.9046 32.8737C24.8238 32.8737 24.7834 32.8737 24.7026 32.8737C24.3793 32.8737 24.0965 32.833 23.7733 32.833C23.8137 32.7518 23.8541 32.6298 23.8945 32.5486C24.2581 32.5892 24.6218 32.6298 24.9854 32.6705ZM24.0561 32.1422C24.1773 31.8171 24.3389 31.5326 24.5006 31.2481C24.8238 31.2888 25.1874 31.37 25.5107 31.4107C25.3895 31.6951 25.2683 32.0203 25.147 32.3047C24.7834 32.2641 24.4198 32.2235 24.0561 32.1422ZM29.7128 36.1248C29.3896 36.1655 29.0663 36.2061 28.7431 36.2467C28.8239 36.0435 28.8643 35.8403 28.9451 35.6371C28.9855 35.6371 28.9855 35.6371 29.0259 35.6371C29.3492 35.5965 29.632 35.5152 29.9552 35.434C29.9148 35.6778 29.834 35.9216 29.7128 36.1248ZM15.7731 35.1901C15.8135 35.1088 15.8539 35.0682 15.8943 34.9869C16.0559 35.0276 16.2175 35.0682 16.4196 35.1495C16.3792 35.1901 16.3388 35.2714 16.2984 35.312C16.1367 35.2714 15.9347 35.2308 15.7731 35.1901ZM16.2579 34.418C16.3792 34.2148 16.5408 34.0116 16.662 33.7677C16.8236 33.849 16.9852 33.8897 17.1469 33.9709C17.0256 34.1741 16.9044 34.3367 16.7832 34.5399C16.5812 34.5399 16.4196 34.4586 16.2579 34.418ZM12.0962 34.2961C11.8134 34.2148 11.5306 34.1335 11.2881 34.0522C11.1669 34.0116 11.0457 33.9709 10.9245 33.9303C11.1265 33.6458 11.2881 33.402 11.3285 33.3207C11.3689 33.2394 11.4498 33.1175 11.4902 33.0362C11.8134 33.2394 12.0962 33.402 12.4195 33.5645C12.3387 33.7271 12.2579 33.8897 12.1366 34.0929C12.177 34.1741 12.1366 34.2554 12.0962 34.2961ZM10.3184 33.6458C10.6013 33.3614 10.8437 33.0362 11.0457 32.7518C11.0861 32.7518 11.0861 32.7924 11.1265 32.7924C10.9245 33.1175 10.7225 33.4426 10.5204 33.7677C10.4396 33.7271 10.3992 33.6865 10.3184 33.6458ZM7.65169 31.6545C7.57088 31.5732 7.53048 31.492 7.44967 31.4107C7.57088 31.1668 7.7325 30.9636 7.89412 30.7198C7.93453 30.8011 8.01534 30.8824 8.05574 30.9636C7.93453 31.2075 7.77291 31.4107 7.65169 31.6545ZM6.15671 30.3947C6.27792 30.3541 6.43954 30.3134 6.56076 30.2321C6.64157 30.3541 6.68197 30.476 6.76278 30.5979C6.68197 30.7198 6.60116 30.8417 6.52035 31.0043C6.39914 30.8417 6.27792 30.6792 6.1163 30.476C6.15671 30.476 6.15671 30.4353 6.15671 30.3947ZM6.68197 30.1915C6.84359 30.1509 6.96481 30.0696 7.12643 30.0289C7.04562 30.1509 6.96481 30.3134 6.84359 30.476C6.80319 30.3947 6.72238 30.3134 6.68197 30.1915ZM3.73241 25.1929C3.89403 25.1522 4.01524 25.1116 4.17686 25.071C4.33848 25.3148 4.54051 25.518 4.70213 25.7618C4.62132 25.9244 4.54051 26.0463 4.4597 26.2088C4.17686 25.9244 3.93443 25.6805 3.6516 25.3961C3.692 25.3554 3.73241 25.2741 3.73241 25.1929ZM8.09615 23.5673C8.25776 23.7299 8.37898 23.9331 8.5406 24.0956C8.29817 24.502 8.05574 24.949 7.85372 25.3554C7.65169 25.4367 7.44967 25.518 7.28805 25.5993C7.04562 25.3961 6.80319 25.1522 6.56076 24.949C6.72238 24.6239 6.884 24.3394 7.00521 24.0143C7.36886 23.8924 7.7325 23.7299 8.09615 23.5673ZM7.20724 23.6486C7.32845 23.4047 7.44967 23.1609 7.57088 22.9171C7.6921 23.039 7.77291 23.2015 7.89412 23.3235C7.65169 23.4454 7.40926 23.5267 7.20724 23.6486ZM10.278 21.6166C10.6013 21.5353 10.8841 21.4134 11.2073 21.2915C11.2881 21.4134 11.4094 21.5353 11.4902 21.6573C10.9649 21.8605 10.48 22.1043 9.99518 22.3075C9.95477 22.3075 9.95477 22.2668 9.91437 22.2668C10.0356 22.0637 10.1568 21.8198 10.278 21.6166ZM9.71234 22.1449C9.59113 22.0637 9.51032 21.9824 9.3891 21.9011C9.59113 21.8605 9.75275 21.7792 9.95477 21.7385C9.91437 21.8605 9.79315 21.9824 9.71234 22.1449ZM10.1972 20.1536C10.5204 20.0723 10.8437 19.991 11.1669 19.9504C11.0053 20.1536 10.8841 20.3974 10.7225 20.6413C10.5608 20.4381 10.3992 20.2755 10.1972 20.1536ZM11.2881 19.9098C11.4902 19.8691 11.6922 19.8285 11.8942 19.7472C12.0962 19.9098 12.2983 20.0723 12.4599 20.2755C11.975 20.4787 11.4498 20.6819 10.9649 20.8851C10.9245 20.8445 10.8437 20.7632 10.8033 20.7226C10.9649 20.4381 11.1265 20.1942 11.2881 19.9098ZM10.9245 20.9258C10.8437 20.9664 10.7629 20.9664 10.6417 21.007C10.6821 20.9258 10.7225 20.8445 10.7629 20.7632C10.8437 20.8038 10.8841 20.8445 10.9245 20.9258ZM11.571 22.0637C11.3689 22.4294 11.1669 22.7952 11.0053 23.2015C10.7629 22.9984 10.5204 22.8358 10.278 22.6326C10.7225 22.3888 11.1265 22.2262 11.571 22.0637ZM10.1972 22.6326C10.4396 22.8358 10.6821 23.0796 10.9245 23.2828C10.8033 23.5267 10.6821 23.8111 10.5204 24.055C10.1568 24.2582 9.75275 24.4207 9.3891 24.6239C9.22748 24.4614 9.06586 24.2988 8.86384 24.1362C9.06586 23.7299 9.30829 23.3235 9.51032 22.8764C9.79315 22.7952 9.99518 22.7139 10.1972 22.6326ZM9.30829 26.534C9.02546 26.534 8.74262 26.5746 8.45979 26.6559C8.25776 26.4933 8.09615 26.3308 7.89412 26.2088C7.97493 26.0463 8.05574 25.8837 8.13655 25.6805C8.58101 25.518 9.02546 25.3148 9.46991 25.1116C9.59113 25.2335 9.71234 25.3148 9.87396 25.4367C9.67194 25.8025 9.51032 26.1682 9.30829 26.534ZM8.98505 27.1029C8.90424 27.0216 8.82343 26.981 8.74263 26.8997C8.86384 26.8591 8.98505 26.8591 9.14667 26.8591C9.06586 26.9404 9.02546 27.0216 8.98505 27.1029ZM8.17696 26.7372C7.97493 26.7778 7.77291 26.8591 7.57088 26.9404C7.65169 26.7778 7.7325 26.6152 7.81331 26.412C7.93453 26.4933 8.05574 26.6152 8.17696 26.7372ZM8.41938 25.1116C8.5406 24.8678 8.66181 24.6646 8.78303 24.4207C8.90424 24.5426 9.02546 24.6646 9.10627 24.7865C8.90424 24.8678 8.66181 24.9897 8.41938 25.1116ZM9.79315 24.9897C9.91437 24.9084 10.076 24.8678 10.1972 24.7865C10.1164 24.9084 10.076 25.0303 9.99518 25.1929C9.95477 25.1116 9.87396 25.0303 9.79315 24.9897ZM8.66181 23.8924C8.5406 23.7705 8.41938 23.6486 8.29817 23.5267C8.58101 23.4047 8.86384 23.2828 9.14667 23.1203C8.94465 23.3641 8.78303 23.6486 8.66181 23.8924ZM7.04562 25.7212C6.68197 25.8837 6.31833 26.0057 5.99509 26.1276C6.15671 25.8025 6.31833 25.4773 6.47995 25.1522C6.64157 25.3554 6.84359 25.518 7.04562 25.7212ZM6.27792 24.7458C6.15671 24.6646 6.0759 24.5426 5.95468 24.4614C6.15671 24.3801 6.35873 24.2988 6.52035 24.2175C6.47995 24.4207 6.35873 24.5833 6.27792 24.7458ZM4.66172 22.9577C5.2678 22.8358 5.91428 22.7139 6.52035 22.592C6.23752 23.1203 5.95468 23.6486 5.67185 24.1362C5.3082 23.7705 4.94456 23.4454 4.62132 23.0796C4.62132 23.039 4.62132 22.9984 4.66172 22.9577ZM5.55063 24.2988C5.55063 24.3394 5.51023 24.3394 5.51023 24.3801C5.10618 24.5426 4.70213 24.7052 4.29808 24.8271C4.21727 24.7052 4.09605 24.6239 4.01524 24.502C4.17686 24.055 4.33848 23.6486 4.54051 23.2015C4.86375 23.6079 5.22739 23.9331 5.55063 24.2988ZM4.05565 24.9084C3.97484 24.949 3.89403 24.949 3.81322 24.9897C3.85362 24.9084 3.89403 24.8271 3.89403 24.7458C3.97484 24.7865 4.01524 24.8678 4.05565 24.9084ZM4.4597 24.9897C4.74253 24.9084 5.06577 24.7865 5.34861 24.7052C5.18699 24.9897 5.02537 25.2335 4.90415 25.518C4.74253 25.3554 4.58091 25.1929 4.4597 24.9897ZM5.59104 24.6239C5.67185 24.5833 5.71225 24.5833 5.79306 24.5426C5.91428 24.6646 6.0759 24.7865 6.19711 24.9084C5.95468 25.3554 5.75266 25.8025 5.51023 26.2901C5.51023 26.2901 5.51023 26.2901 5.46982 26.2901C5.34861 26.1276 5.22739 26.0057 5.10618 25.8431C5.06577 25.8025 5.02537 25.7618 4.98496 25.7212C5.22739 25.3554 5.38901 24.9897 5.59104 24.6239ZM5.83347 26.4527C6.35873 26.3308 6.84359 26.1682 7.32845 25.965C7.36886 26.0057 7.40926 26.0463 7.44967 26.0869C7.28805 26.4527 7.08602 26.7778 6.9244 27.1436C6.76278 27.2248 6.56076 27.3061 6.39914 27.3874C6.19711 27.1436 5.95468 26.8591 5.75266 26.6152C5.75266 26.5746 5.79306 26.4933 5.83347 26.4527ZM6.76278 27.5093C6.72238 27.5906 6.72238 27.6312 6.68197 27.7125C6.64157 27.6719 6.60116 27.6312 6.56076 27.5906C6.64157 27.5499 6.72238 27.5499 6.76278 27.5093ZM7.40926 27.2655C7.77291 27.1435 8.09615 27.0216 8.45979 26.9404C8.58101 27.0623 8.74262 27.1842 8.86384 27.2655C8.62141 27.6719 8.33858 28.1189 8.05574 28.5659C8.01534 28.5253 7.97493 28.444 7.93453 28.4034C7.89412 28.3627 7.81331 28.4034 7.85372 28.444C7.89412 28.5253 7.93453 28.6066 8.01534 28.6878C7.97493 28.7691 7.89412 28.8504 7.85372 28.9317C7.57088 28.6472 7.32845 28.3627 7.08602 28.0783C7.16683 27.8344 7.28805 27.5499 7.40926 27.2655ZM9.95477 28.3627C9.79315 28.5659 9.67194 28.7691 9.51032 28.9317C9.3487 28.9317 9.18708 28.9723 9.02546 29.013C9.26789 28.6878 9.51032 28.3627 9.75275 27.997C9.83356 28.1595 9.91437 28.2408 9.95477 28.3627ZM10.6821 29.5006C10.4396 29.907 10.1972 30.2728 9.99518 30.6792L9.95477 30.6385C10.076 30.4353 10.1972 30.2321 10.278 30.0696C10.3992 29.907 10.5608 29.7038 10.6821 29.5006ZM10.8033 29.2974C10.8841 29.1755 10.9245 29.0942 11.0053 28.9723C11.0053 28.9723 11.0457 28.9723 11.0457 29.013C10.9649 29.0942 10.8841 29.2162 10.8033 29.2974ZM17.2681 30.2321C16.9852 30.1102 16.6216 29.9883 16.2984 29.8257C16.4196 29.7038 16.5408 29.5413 16.7024 29.4193C16.9852 29.5413 17.2681 29.6632 17.5509 29.7851C17.4297 29.9477 17.3489 30.1102 17.2681 30.2321ZM16.9448 30.7198C16.9448 30.7604 16.9044 30.7604 16.9044 30.8011C16.6216 30.6792 16.3388 30.5572 16.0963 30.4353C16.0155 30.3947 15.9347 30.354 15.8943 30.354C15.8943 30.3134 15.9347 30.3134 15.9347 30.2728C16.2579 30.4353 16.6216 30.5572 16.9448 30.7198ZM16.662 31.1668C16.662 31.2075 16.6216 31.2075 16.6216 31.2481C16.2579 31.0856 15.9347 30.923 15.5711 30.7198C15.5711 30.6792 15.6115 30.6792 15.6115 30.6385C15.9751 30.8011 16.3388 30.9636 16.662 31.1668ZM21.1469 32.6298C20.9853 32.6298 20.8641 32.5892 20.7025 32.5892C20.5005 32.5486 20.2984 32.5079 20.0964 32.4673C20.0964 32.4267 20.1368 32.4267 20.1368 32.386C20.5005 32.4267 20.8641 32.4673 21.1874 32.4267C21.2278 32.5079 21.1874 32.5486 21.1469 32.6298ZM12.7023 30.5979C12.6619 30.5979 12.6619 30.5979 12.7023 30.5979C12.6619 30.6385 12.6619 30.6385 12.6215 30.5979C12.6215 30.5979 12.6619 30.5979 12.7023 30.5979C12.6619 30.5979 12.6619 30.5572 12.7023 30.5979ZM23.046 33.9303C22.9248 34.2554 22.7631 34.5805 22.6419 34.9056C22.4399 34.865 22.2379 34.8244 21.9955 34.7837C22.1571 34.4586 22.3187 34.1335 22.4399 33.849C22.6419 33.8897 22.844 33.9303 23.046 33.9303ZM22.6419 33.402C22.6823 33.3614 22.6823 33.2801 22.7227 33.2394C22.9248 33.2394 23.1268 33.2801 23.3288 33.2801C23.2884 33.3614 23.2884 33.402 23.248 33.4833C23.046 33.4426 22.844 33.4426 22.6419 33.402ZM23.3692 33.9709C23.6925 34.0116 24.0157 34.0522 24.2985 34.0522C24.0965 34.418 23.9349 34.7431 23.7329 35.0682C23.4904 35.0276 23.248 34.9869 22.9652 34.9463C23.1268 34.6618 23.248 34.3367 23.3692 33.9709ZM24.8642 34.1335C24.945 34.1335 25.0662 34.1335 25.147 34.1741C24.945 34.4993 24.7026 34.865 24.5006 35.2308C24.4602 35.2308 24.4602 35.2308 24.4198 35.2308C24.541 34.8244 24.7026 34.4586 24.8642 34.1335ZM28.2178 33.402C28.137 33.5645 28.0966 33.6865 28.0562 33.849C27.8946 33.849 27.733 33.849 27.5713 33.849C27.6522 33.7271 27.6926 33.5646 27.733 33.4426C27.8542 33.402 28.0562 33.402 28.2178 33.402ZM30.3189 33.8084C30.0764 33.8084 29.834 33.8084 29.5916 33.849C29.6724 33.6865 29.7128 33.5239 29.7936 33.3614C29.9956 33.3614 30.1977 33.3614 30.4401 33.3207C30.3997 33.4833 30.3593 33.6458 30.3189 33.8084ZM29.2683 33.849C29.0663 33.849 28.8239 33.849 28.6219 33.849C28.7027 33.6865 28.7431 33.5239 28.8239 33.402C29.0259 33.402 29.2683 33.402 29.4704 33.3614C29.43 33.5239 29.3492 33.6865 29.2683 33.849ZM27.0461 33.8084C26.9653 33.8084 26.8441 33.8084 26.7632 33.8084C26.44 33.8084 26.1168 33.7677 25.8339 33.7677C25.9147 33.6458 25.9955 33.5239 26.0764 33.402C26.4804 33.402 26.844 33.402 27.2481 33.402C27.1673 33.5239 27.0865 33.6865 27.0461 33.8084ZM26.3996 34.2148C26.5208 34.2148 26.6824 34.2148 26.8036 34.2148C26.6824 34.4993 26.5208 34.7837 26.3592 35.0682C26.036 35.1088 25.7127 35.1495 25.4299 35.1495C25.2279 35.1495 25.0258 35.1901 24.8238 35.1901C25.0258 34.865 25.2683 34.4993 25.5107 34.1741C25.8339 34.1741 26.1168 34.2148 26.3996 34.2148ZM27.3289 34.2554C27.4905 34.2554 27.6926 34.2554 27.8542 34.2554C27.7734 34.4586 27.6926 34.6618 27.6117 34.865C27.4097 34.9056 27.1673 34.9463 26.9653 34.9869C27.0865 34.7431 27.2077 34.4993 27.3289 34.2554ZM28.4602 34.2554C28.6623 34.2554 28.9047 34.2554 29.1067 34.2554C29.0663 34.3773 29.0259 34.4993 28.9451 34.6212C28.7027 34.6618 28.4198 34.7431 28.1774 34.7837C28.2582 34.6212 28.339 34.418 28.4602 34.2554ZM29.4704 34.2554C29.7532 34.2554 29.9956 34.2148 30.2785 34.2148C30.2785 34.2554 30.2785 34.2961 30.2381 34.2961C29.9552 34.3773 29.632 34.4586 29.3492 34.5399C29.3896 34.418 29.43 34.3367 29.4704 34.2554ZM30.9249 33.7677C30.9654 33.6052 31.0058 33.4426 31.0462 33.2801C31.1674 33.2801 31.2482 33.2801 31.3694 33.2394C31.329 33.402 31.2886 33.5645 31.2482 33.7677C31.127 33.7677 31.0462 33.7677 30.9249 33.7677ZM31.127 32.7518C31.127 32.7111 31.1674 32.6298 31.1674 32.5892C31.2886 32.5892 31.3694 32.5486 31.4906 32.5486C31.4906 32.6298 31.4502 32.6705 31.4502 32.7518C31.3694 32.7518 31.2482 32.7518 31.127 32.7518ZM30.5613 32.7924C30.3593 32.7924 30.1977 32.833 29.9956 32.833C29.9956 32.7924 30.036 32.7518 30.036 32.7518C30.1977 32.7111 30.3997 32.7111 30.5613 32.6705C30.6017 32.7111 30.6017 32.7518 30.5613 32.7924ZM29.7532 32.8737C29.7128 32.8737 29.6724 32.8737 29.632 32.8737C29.43 32.8737 29.2279 32.8737 29.0663 32.9143C29.3088 32.8737 29.5512 32.833 29.7936 32.833C29.7532 32.7924 29.7532 32.833 29.7532 32.8737ZM25.6319 33.3614C25.5511 33.4833 25.5107 33.5646 25.4299 33.6865C25.3087 33.6865 25.1874 33.6865 25.0662 33.6458C25.1066 33.5239 25.147 33.4426 25.1874 33.3207C25.3087 33.3614 25.4703 33.3614 25.6319 33.3614ZM24.541 33.6458C24.2177 33.6052 23.8541 33.5645 23.5308 33.5239C23.5712 33.4426 23.5712 33.3614 23.6117 33.2801C23.9753 33.2801 24.3389 33.3207 24.6622 33.3207C24.6218 33.4426 24.5814 33.5239 24.541 33.6458ZM22.3187 33.1988C22.2783 33.2394 22.2783 33.2801 22.2379 33.3207C21.9146 33.2801 21.6318 33.2394 21.3086 33.1582C21.3086 33.1175 21.349 33.1175 21.349 33.0769C21.551 33.0769 21.753 33.1175 21.955 33.1175C22.0763 33.1988 22.1975 33.1988 22.3187 33.1988ZM20.9449 33.1175C20.7833 33.0769 20.6621 33.0769 20.5005 33.0362C20.6621 33.0769 20.8237 33.0769 20.9449 33.1175ZM17.2277 32.1828C17.1873 32.1828 17.1469 32.1828 17.1065 32.1828C16.9044 32.1015 16.7428 32.0609 16.5408 31.9796C16.5408 31.939 16.5812 31.939 16.5812 31.8983C16.8236 31.9796 17.0256 32.0609 17.2681 32.1422C17.2681 32.1422 17.2277 32.1422 17.2277 32.1828ZM14.5205 31.7358C14.4801 31.7358 14.4801 31.7358 14.4397 31.7358C14.2781 31.6951 14.1569 31.6951 13.9953 31.6545C14.0357 31.6139 14.0357 31.5326 14.0761 31.4919C14.2377 31.5732 14.3589 31.6545 14.5205 31.7358ZM13.672 31.5326C13.672 31.5732 13.6316 31.5732 13.6316 31.6139C13.47 31.5732 13.3488 31.5326 13.1872 31.5326C13.0256 31.4513 12.9043 31.3294 12.7427 31.2481C12.7831 31.2075 12.8235 31.1262 12.8639 31.0856C12.9851 31.0856 13.1468 31.0856 13.268 31.0856C13.4296 31.2075 13.5912 31.2888 13.7932 31.4107C13.7528 31.4107 13.7124 31.4513 13.672 31.5326ZM11.9346 30.8824C11.8942 31.0043 11.8134 31.1262 11.7326 31.2075C11.773 31.0856 11.8538 31.0043 11.9346 30.8824ZM10.2376 31.37C10.3992 31.5326 10.5608 31.6951 10.7225 31.8171C10.6821 31.8577 10.6417 31.8983 10.6417 31.939C10.3588 31.8171 10.076 31.6951 9.79315 31.6139C9.87396 31.4513 9.95477 31.3294 10.0356 31.1668C10.076 31.2075 10.1568 31.2888 10.2376 31.37ZM11.6518 31.939C11.6922 31.8983 11.6922 31.8577 11.7326 31.8171H11.773C11.6518 31.9796 11.5306 32.1422 11.4498 32.3047C11.4498 32.3047 11.4094 32.3047 11.4094 32.2641C11.4498 32.1422 11.571 32.0203 11.6518 31.939ZM12.1366 31.2888C12.177 31.2481 12.177 31.2075 12.2175 31.1668C12.2175 31.2075 12.177 31.2481 12.1366 31.2888ZM14.6013 32.2641C14.6418 32.2641 14.6418 32.2641 14.6822 32.2641C15.0458 32.3454 15.4498 32.386 15.8135 32.4267C15.7327 32.5486 15.6519 32.6705 15.5711 32.833C15.2478 32.6705 14.8842 32.5079 14.5609 32.3454C14.6013 32.3047 14.6013 32.3047 14.6013 32.2641ZM16.1771 32.5079C16.3388 32.5486 16.5408 32.5486 16.7024 32.5892C16.7832 32.6298 16.8236 32.6298 16.9044 32.6705C16.7832 32.8737 16.6216 33.0769 16.5004 33.2801C16.2984 33.1988 16.0963 33.1175 15.9347 33.0362C16.0155 32.833 16.0963 32.6705 16.1771 32.5079ZM17.3085 32.7518C17.4701 32.7924 17.5913 32.833 17.7125 32.8737C17.7529 32.8737 17.7933 32.8737 17.7933 32.9143C17.6721 33.1175 17.5105 33.3614 17.3893 33.5645C17.2277 33.5239 17.066 33.4426 16.9044 33.3614C17.0256 33.1988 17.1873 32.9956 17.3085 32.7518ZM18.3186 33.0769C18.561 33.1582 18.8035 33.1988 19.0459 33.2801C18.9247 33.5239 18.7631 33.7677 18.6418 34.0116C18.3994 33.9303 18.157 33.849 17.8741 33.7677C18.0358 33.5239 18.157 33.2801 18.3186 33.0769ZM19.5712 33.3614C19.9348 33.4426 20.3389 33.5239 20.7025 33.6052C20.5813 33.8897 20.4197 34.1741 20.258 34.4586C19.8944 34.3773 19.4903 34.2554 19.0863 34.1335C19.2883 33.8897 19.4499 33.6458 19.5712 33.3614ZM21.1065 33.6865C21.3894 33.7271 21.7126 33.7677 21.9955 33.849C21.8338 34.1741 21.6722 34.4586 21.5106 34.7837C21.2278 34.7431 20.9449 34.6618 20.6621 34.5805C20.8237 34.2554 20.9853 33.9709 21.1065 33.6865ZM31.8543 33.1988C32.2987 33.1582 32.7432 33.1175 33.1876 33.0769C33.1472 33.2394 33.1068 33.402 33.0664 33.6052C32.6624 33.6458 32.2179 33.6865 31.8139 33.7271C31.8139 33.5645 31.8543 33.3614 31.8543 33.1988ZM31.9351 32.7111C31.9351 32.6298 31.9351 32.5892 31.9351 32.5079C32.4199 32.4267 32.9048 32.386 33.3492 32.3047C33.3088 32.386 33.3088 32.4673 33.2684 32.5486C32.8644 32.5892 32.3795 32.6705 31.9351 32.7111ZM33.1068 31.939C33.228 31.8983 33.3897 31.8577 33.5109 31.8577V31.8983C33.3897 31.8983 33.228 31.8983 33.1068 31.939ZM19.5712 32.3047C19.4499 32.2641 19.3287 32.2235 19.2075 32.2235C19.1267 32.1828 19.0055 32.1828 18.9247 32.1422L18.9651 32.1015C19.2075 32.1828 19.4095 32.2235 19.652 32.3047C19.5712 32.3047 19.5712 32.3047 19.5712 32.3047ZM18.3994 31.9796C18.2378 31.939 18.0762 31.8577 17.9146 31.7764L17.955 31.7358C18.1166 31.8171 18.2782 31.8577 18.4398 31.939C18.4398 31.939 18.3994 31.939 18.3994 31.9796ZM17.5913 31.6545C17.3489 31.5732 17.1469 31.4513 16.9044 31.37C16.9044 31.3294 16.9448 31.3294 16.9448 31.2888C17.1469 31.4107 17.3893 31.492 17.6317 31.6139C17.5913 31.6139 17.5913 31.6139 17.5913 31.6545ZM16.2984 31.7358C16.2984 31.7764 16.2579 31.7764 16.2579 31.8171C15.8943 31.6545 15.5307 31.4919 15.167 31.3294C15.2074 31.2888 15.2074 31.2481 15.2478 31.2481C15.5711 31.4107 15.9347 31.5732 16.2984 31.7358ZM14.8842 31.2075C14.8034 31.1668 14.7226 31.1262 14.6417 31.0856C14.5609 31.0449 14.4801 31.0043 14.3993 30.9636C14.3993 30.923 14.4397 30.8824 14.4397 30.8824C14.6013 30.9636 14.763 31.0449 14.9246 31.1262C14.9246 31.1668 14.9246 31.1668 14.8842 31.2075ZM14.1569 30.8011C13.9145 30.6385 13.672 30.4353 13.4296 30.2728C13.4296 30.2728 13.4296 30.2728 13.4296 30.2321C13.672 30.3947 13.9549 30.5572 14.1973 30.7198C14.1973 30.7604 14.1569 30.7604 14.1569 30.8011ZM12.3791 30.3134L12.3387 30.354C12.2983 30.3947 12.2983 30.4353 12.2579 30.476C12.2175 30.476 12.2175 30.4353 12.177 30.4353C12.2175 30.3541 12.2579 30.3134 12.2983 30.2321C12.3387 30.2728 12.3387 30.2728 12.3791 30.3134ZM11.2881 30.1915C11.2881 30.1915 11.2881 30.2321 11.3285 30.2321C11.4094 30.3541 11.5306 30.4353 11.6114 30.5166C11.4902 30.7198 11.3689 30.923 11.2073 31.0856C10.9245 31.0449 10.6417 31.0449 10.3992 31.0043C10.3184 30.923 10.278 30.8824 10.1972 30.8011C10.4396 30.4353 10.6417 30.0696 10.8841 29.6632C11.0053 29.907 11.1265 30.0696 11.2881 30.1915ZM10.1972 29.5819C10.0356 29.8664 9.83356 30.1102 9.63153 30.354C9.51032 30.2321 9.3891 30.1102 9.26789 29.9883C9.42951 29.7851 9.59113 29.5819 9.71234 29.3787C9.79315 29.3787 9.87396 29.3787 9.95477 29.3381C10.1972 29.3381 10.2376 28.9723 10.0356 28.9317C10.076 28.891 10.1164 28.8098 10.1568 28.7691C10.2376 28.891 10.3184 29.0536 10.4396 29.1755C10.3588 29.2974 10.278 29.46 10.1972 29.5819ZM8.21736 30.7604C8.17696 30.6792 8.13655 30.5572 8.05574 30.476C8.13655 30.3541 8.21736 30.2321 8.29817 30.0696C8.37898 30.1509 8.45979 30.1915 8.5406 30.2321C8.45979 30.3947 8.33857 30.5979 8.21736 30.7604ZM8.581 29.7038C8.62141 29.6632 8.62141 29.6225 8.66181 29.6225C8.74262 29.7038 8.78303 29.7851 8.86384 29.8664C8.86384 29.907 8.82343 29.907 8.82343 29.907C8.74262 29.8664 8.66181 29.7851 8.581 29.7038ZM8.13655 29.2568C8.17696 29.1755 8.21736 29.1349 8.25776 29.0536C8.29817 29.0942 8.33857 29.1755 8.37898 29.2162C8.29817 29.2162 8.21736 29.2568 8.13655 29.2568ZM8.82343 29.5006C8.94465 29.46 9.02546 29.46 9.14667 29.4193C9.10627 29.5006 9.02546 29.5819 8.98505 29.6632C8.94465 29.6225 8.86384 29.5819 8.82343 29.5006ZM8.581 29.1349C8.5406 29.1349 8.50019 29.1349 8.50019 29.1755C8.41938 29.0942 8.37898 29.013 8.29817 28.9317C8.58101 28.4846 8.86384 27.997 9.14667 27.5499C9.26789 27.6719 9.42951 27.7531 9.55072 27.8751C9.22748 28.2814 8.90424 28.6878 8.581 29.1349ZM7.93453 29.7851C7.97493 29.8257 8.01534 29.8664 8.05574 29.907C7.97493 29.9883 7.93453 30.1102 7.85372 30.1915C7.81331 30.1102 7.7325 30.0289 7.6921 29.9477C7.6921 29.907 7.7325 29.907 7.7325 29.8664C7.81331 29.7851 7.89412 29.7851 7.93453 29.7851ZM7.53048 30.2321C7.57088 30.3134 7.65169 30.3947 7.6921 30.476C7.53048 30.7198 7.40926 30.923 7.24764 31.1668C7.20724 31.0856 7.16683 31.0449 7.12643 30.9636C7.24764 30.6792 7.40926 30.4353 7.53048 30.2321ZM8.94465 30.476C9.02546 30.5166 9.14667 30.5979 9.22748 30.6385C9.30829 30.6792 9.42951 30.5572 9.3487 30.476C9.26789 30.3947 9.18708 30.3134 9.10627 30.2321C9.10627 30.2321 9.10627 30.2321 9.10627 30.1915C9.22748 30.3134 9.3487 30.4353 9.42951 30.5572C9.14667 30.923 8.82343 31.3294 8.5406 31.6951C8.45979 31.5732 8.41938 31.4919 8.33858 31.37C8.5406 31.0856 8.74263 30.7604 8.94465 30.476ZM9.79315 30.923L9.83356 30.9636C9.55072 31.4513 9.30829 31.939 9.06586 32.386C9.02546 32.3047 8.98505 32.2641 8.94465 32.1828C9.22748 31.8171 9.51032 31.37 9.79315 30.923ZM9.67194 31.6951C9.87396 31.8983 10.1164 32.0609 10.3588 32.2641C10.1164 32.5486 9.87396 32.833 9.63153 33.1175C9.46991 32.955 9.30829 32.7518 9.14667 32.5892C9.3487 32.2641 9.51032 31.9796 9.67194 31.6951ZM11.8538 32.5486C11.975 32.3454 12.1366 32.1422 12.2579 31.8983C12.6215 31.939 12.9447 32.0203 13.3084 32.0609C13.1064 32.386 12.9447 32.7111 12.7427 33.0362C12.4599 32.8737 12.1366 32.7111 11.8538 32.5486ZM13.47 32.6298C13.5508 32.5079 13.5912 32.386 13.672 32.2641C13.7932 32.3454 13.9145 32.4267 14.0357 32.5079C13.8336 32.833 13.672 33.1175 13.5104 33.4426C13.3892 33.402 13.268 33.3207 13.1872 33.2801C13.268 33.0362 13.3488 32.833 13.47 32.6298ZM14.3589 32.6705C14.6822 32.833 15.0054 33.0362 15.3286 33.1988C15.2074 33.3614 15.0862 33.5645 15.0054 33.7677C14.965 33.8084 14.9246 33.8897 14.8842 34.0116C14.7226 33.9709 14.5609 33.8897 14.3993 33.849C14.2377 33.7677 14.0761 33.7271 13.8741 33.6458C14.0357 33.2801 14.1973 32.9956 14.3589 32.6705ZM15.6923 33.3614C15.8539 33.4426 16.0559 33.5239 16.2175 33.6052C16.1367 33.7271 16.0155 33.8897 15.9347 34.0116C15.8943 34.0929 15.8135 34.1741 15.7327 34.2554C15.5711 34.2148 15.4499 34.1741 15.2882 34.1335C15.4499 33.8897 15.5711 33.6458 15.6923 33.3614ZM17.5913 34.1335C17.8337 34.2148 18.1166 34.2961 18.359 34.418C18.2782 34.5399 18.1974 34.7024 18.1166 34.8244C17.8337 34.7837 17.5509 34.7024 17.2681 34.6618C17.3489 34.4993 17.4701 34.3367 17.5913 34.1335ZM18.8843 34.5805C19.2883 34.7024 19.652 34.8244 20.056 34.9056C20.0156 34.9463 20.0156 34.9869 19.9752 35.0682C19.6924 35.0276 19.4095 35.0276 19.1671 34.9869C19.0055 34.9869 18.8439 34.9463 18.7227 34.9463C18.7227 34.8244 18.8035 34.7024 18.8843 34.5805ZM20.4197 34.9869C20.5813 35.0276 20.7833 35.0682 20.9449 35.1088C20.7429 35.1088 20.5813 35.0682 20.3793 35.0682C20.3793 35.0682 20.3793 35.0276 20.4197 34.9869ZM31.0866 34.4586C31.0866 34.4993 31.0866 34.4993 31.0866 34.5399C31.0462 34.5399 30.9654 34.5805 30.9249 34.5805C30.9654 34.5399 31.0462 34.4993 31.0866 34.4586ZM31.6926 34.0929C32.1371 34.0116 32.5411 33.9709 32.9452 33.9303C32.9048 34.0116 32.9048 34.0929 32.8644 34.1741C32.4603 34.2554 32.0159 34.3367 31.6118 34.4586C31.6522 34.2961 31.6522 34.2148 31.6926 34.0929ZM33.4705 33.849C33.7937 33.8084 34.1573 33.7271 34.4806 33.6865C34.4806 33.7271 34.4402 33.7677 34.4402 33.849C34.1169 33.9303 33.7533 34.0116 33.4301 34.0522C33.4705 33.9709 33.4705 33.8897 33.4705 33.849ZM34.8442 33.6052C35.2483 33.5239 35.6523 33.4426 36.0564 33.3614C36.0564 33.402 36.0564 33.4426 36.016 33.4426C35.6119 33.5239 35.2079 33.6458 34.8038 33.7271C34.8442 33.6865 34.8442 33.6458 34.8442 33.6052ZM36.5008 33.2394C36.6221 33.1988 36.7433 33.1988 36.8645 33.1582C37.1069 33.1175 37.3493 33.0362 37.5918 32.955C37.5918 32.9956 37.5918 32.9956 37.5514 33.0362C37.1877 33.1175 36.8241 33.2394 36.4604 33.3207C36.5008 33.3207 36.5008 33.2801 36.5008 33.2394ZM38.117 32.833C38.2787 32.7924 38.4403 32.7111 38.6019 32.6705C38.6019 32.7111 38.5615 32.7924 38.5615 32.833C38.3999 32.8737 38.2383 32.9143 38.117 32.955C38.117 32.8737 38.117 32.833 38.117 32.833ZM43.7333 30.5166C43.4909 30.6792 43.2485 30.8011 43.0464 30.9636C43.0868 30.7198 43.1273 30.476 43.1677 30.2321C43.4101 30.0696 43.6525 29.907 43.8949 29.7445C43.8545 29.9883 43.7737 30.1915 43.7333 30.4353C43.7333 30.476 43.7333 30.476 43.7333 30.5166ZM42.5616 31.2481C42.3596 31.37 42.1171 31.5326 41.9151 31.6545C41.8747 31.6545 41.8747 31.6951 41.8343 31.6951C41.8343 31.6951 41.7939 31.6951 41.7939 31.7358C41.8343 31.4919 41.9151 31.2481 41.9555 31.0449C42.2383 30.8824 42.5212 30.7198 42.804 30.5166C42.7232 30.7198 42.6424 30.9636 42.5616 31.2481ZM41.4302 31.7764C41.4706 31.6139 41.4706 31.4107 41.4706 31.2481C41.5111 31.2075 41.5515 31.2075 41.5919 31.1668C41.5515 31.37 41.5111 31.5732 41.4302 31.7764ZM40.5009 32.1828C40.0161 32.3454 39.5312 32.5079 39.0463 32.6705C39.0868 32.5892 39.0868 32.5079 39.1272 32.4673C39.612 32.2641 40.1373 32.0203 40.5817 31.7764C40.5413 31.8983 40.5413 32.0203 40.5009 32.1828ZM38.3191 33.4833V33.5239C38.1978 33.5645 38.0766 33.6458 37.915 33.6865C37.915 33.6458 37.9554 33.6052 37.9554 33.5645C38.0766 33.5645 38.1978 33.5239 38.3191 33.4833ZM44.2182 30.1915C44.2586 29.9477 44.3394 29.7038 44.3798 29.46C44.5414 29.3787 44.703 29.2568 44.8647 29.1755C44.8243 29.4193 44.7435 29.6632 44.6626 29.907C44.501 30.0289 44.3394 30.1102 44.2182 30.1915ZM40.6625 31.2481C40.2181 31.4513 39.7736 31.6545 39.3292 31.8577C39.3696 31.7764 39.41 31.7358 39.41 31.6545C39.814 31.5326 40.2181 31.37 40.6221 31.2075C40.6625 31.2075 40.6625 31.2481 40.6625 31.2481ZM38.8039 32.1015C38.6019 32.1828 38.3999 32.2641 38.2383 32.3454C38.2787 32.2235 38.2787 32.1422 38.3191 32.0203C38.5211 31.9796 38.7231 31.8983 38.9251 31.8171C38.8847 31.939 38.8443 32.0203 38.8039 32.1015ZM37.7534 32.5079C37.5918 32.5486 37.4302 32.6298 37.2685 32.6705C37.0261 32.7518 36.8241 32.833 36.5816 32.8737C36.6221 32.7518 36.6625 32.5892 36.6625 32.4673C37.0665 32.386 37.4706 32.2641 37.8746 32.1828C37.8342 32.2641 37.7938 32.386 37.7534 32.5079ZM36.1372 32.9956C35.7331 33.1175 35.3291 33.1988 34.925 33.2801C34.9654 33.1175 35.0059 32.955 35.0463 32.7924C35.4503 32.7111 35.8544 32.6298 36.2584 32.5486C36.218 32.6705 36.1776 32.833 36.1372 32.9956ZM34.6018 33.3207C34.2382 33.402 33.9149 33.4426 33.5513 33.4833C33.5917 33.3207 33.6321 33.1582 33.6321 32.9956C33.9957 32.955 34.3998 32.8737 34.7634 32.833C34.723 32.9956 34.6422 33.1582 34.6018 33.3207ZM33.7129 32.5079C33.7129 32.4267 33.7129 32.3454 33.7129 32.2641C34.1573 32.1828 34.6018 32.1422 35.0059 32.0609C34.9654 32.1422 34.9654 32.2641 34.925 32.3454C34.521 32.386 34.1169 32.4267 33.7129 32.5079ZM33.7129 31.8577V31.8171C34.1978 31.6951 34.723 31.5732 35.2079 31.4107C35.1675 31.492 35.1675 31.5732 35.1271 31.6545C34.6826 31.6951 34.1978 31.7764 33.7129 31.8577ZM26.4804 32.7518L26.5208 32.7111C26.6824 32.7111 26.8036 32.7111 26.9653 32.7111C26.8036 32.7518 26.642 32.7518 26.4804 32.7518ZM25.9955 32.7924C25.7531 32.7924 25.5511 32.833 25.3087 32.833C25.3087 32.7924 25.3491 32.7111 25.3491 32.6705C25.5915 32.6705 25.8339 32.7111 26.0359 32.7111C26.0359 32.7518 26.036 32.7924 25.9955 32.7924ZM23.5308 32.7924C23.3288 32.7924 23.0864 32.7518 22.8844 32.7518C22.9248 32.6298 22.9652 32.5079 23.0056 32.386C23.248 32.4267 23.45 32.4673 23.6925 32.5079C23.6117 32.5892 23.5712 32.7111 23.5308 32.7924ZM19.854 31.8577C19.6116 31.8171 19.4095 31.7358 19.1671 31.6545C19.2075 31.6139 19.2479 31.5326 19.2479 31.4919C19.4903 31.5732 19.7328 31.6139 19.9348 31.6951C19.9348 31.7358 19.8944 31.7764 19.854 31.8577ZM18.7227 31.4919C18.561 31.4513 18.3994 31.37 18.1974 31.2888C18.2378 31.2481 18.2378 31.2075 18.2782 31.1668C18.4398 31.2075 18.6418 31.2888 18.8035 31.3294C18.7631 31.4107 18.7227 31.4513 18.7227 31.4919ZM17.8741 31.1668C17.6317 31.0856 17.3893 30.9636 17.1873 30.8824C17.1873 30.8417 17.2277 30.8417 17.2277 30.8011C17.4701 30.8824 17.7125 30.9636 17.955 31.0449C17.9146 31.1262 17.9146 31.1668 17.8741 31.1668ZM17.5105 30.3134C17.5913 30.1509 17.6721 30.0289 17.7529 29.8664C17.9954 29.9477 18.2378 30.0696 18.5206 30.1509C18.4398 30.3134 18.359 30.4353 18.2782 30.5979C17.9954 30.5166 17.7529 30.4353 17.5105 30.3134ZM15.7731 30.1509C15.7327 30.1915 15.7327 30.1915 15.6923 30.2321C15.4903 30.1509 15.2882 30.0289 15.0862 29.9477C15.1266 29.907 15.167 29.8664 15.167 29.8257C15.369 29.9477 15.5711 30.0696 15.7731 30.1509ZM15.2478 30.4353C15.2882 30.476 15.369 30.5166 15.4498 30.5166C15.4094 30.5572 15.4094 30.5572 15.369 30.5979C15.167 30.5166 15.0054 30.3947 14.8034 30.3134C14.8034 30.2728 14.8438 30.2728 14.8438 30.2321C15.0054 30.2728 15.1266 30.3541 15.2478 30.4353ZM14.5609 30.1509C14.2781 30.0289 14.0357 29.8664 13.7528 29.7445C13.7932 29.7038 13.7932 29.6632 13.8336 29.6225C14.1165 29.7851 14.3589 29.907 14.6013 30.0696C14.6013 30.1102 14.6013 30.1509 14.5609 30.1509ZM13.47 29.6225C13.4296 29.6225 13.3892 29.5819 13.3488 29.5819C13.3892 29.5413 13.4296 29.5006 13.47 29.4193C13.5104 29.46 13.5508 29.46 13.5912 29.5006C13.5508 29.5413 13.5104 29.5819 13.47 29.6225ZM13.0256 29.4193C12.9447 29.3787 12.8639 29.3381 12.7831 29.3381C12.8235 29.2568 12.8639 29.1755 12.9043 29.0942C12.9851 29.1349 13.066 29.2162 13.1468 29.2568C13.1064 29.2974 13.066 29.3381 13.0256 29.4193ZM12.4195 29.1755C12.2983 29.1349 12.177 29.0942 12.0962 29.0536C12.0154 29.013 11.975 29.0942 11.975 29.1349C11.9346 29.0942 11.8538 29.0536 11.8134 29.013C11.6922 28.9317 11.571 29.0942 11.6114 29.2162C11.7326 29.46 11.8538 29.7038 12.0154 29.907C11.9346 30.0289 11.8942 30.1509 11.8134 30.2321C11.6114 30.1102 11.4094 29.9477 11.2073 29.7445C11.1669 29.7038 11.0861 29.6225 11.0457 29.5413C11.1265 29.4193 11.2073 29.2974 11.2881 29.1755C11.3285 29.1755 11.3285 29.2162 11.3689 29.2162C11.4902 29.2974 11.6114 29.0942 11.4902 29.013C11.4498 29.013 11.4498 28.9723 11.4094 28.9723C11.571 28.7285 11.773 28.444 11.9346 28.2002C12.1366 28.4034 12.3791 28.6472 12.6619 28.8098C12.5811 28.9317 12.5003 29.0536 12.4195 29.1755ZM11.1265 28.8098L11.0861 28.7691C11.2477 28.444 11.4094 28.1595 11.571 27.8344C11.6114 27.8751 11.6518 27.9157 11.6922 27.9563C11.4902 28.2408 11.3285 28.5253 11.1265 28.8098ZM10.8033 28.5659C10.6821 28.4846 10.6013 28.4034 10.48 28.3221C10.7225 27.9563 10.9649 27.6312 11.2073 27.2655C11.2477 27.3874 11.3285 27.4687 11.3689 27.5906C11.2073 27.9157 11.0053 28.2408 10.8033 28.5659ZM10.7225 28.7691C10.6821 28.8504 10.6417 28.9317 10.6013 28.9723C10.5204 28.8504 10.3992 28.7285 10.3184 28.5659C10.3588 28.5253 10.3588 28.5253 10.3588 28.4846C10.48 28.5659 10.6013 28.6878 10.7225 28.7691ZM11.0457 23.8111C11.0861 23.6892 11.1669 23.6079 11.2073 23.486C11.2881 23.5267 11.3285 23.6079 11.4094 23.6486C11.2881 23.6892 11.1669 23.7705 11.0457 23.8111ZM11.2477 23.3641C11.4498 22.9577 11.6518 22.5513 11.8134 22.1449C12.0558 22.47 12.2983 22.7952 12.6215 23.039C12.2579 23.2015 11.8942 23.4047 11.4902 23.5673C11.4498 23.5267 11.3285 23.4454 11.2477 23.3641ZM11.571 21.6573C11.4902 21.5353 11.3689 21.4134 11.2881 21.2915C11.6114 21.1696 11.9346 21.0477 12.2579 20.8851C12.1366 21.0883 12.0154 21.3321 11.8942 21.5353C11.773 21.576 11.6518 21.6166 11.571 21.6573ZM12.5811 20.7226C12.6619 20.6819 12.7427 20.6413 12.8235 20.6006C12.9851 20.7226 13.1064 20.8851 13.268 21.007C12.9043 21.1289 12.5811 21.2509 12.2175 21.3728C12.3387 21.1696 12.4599 20.9664 12.5811 20.7226ZM12.6215 20.2349C12.4195 20.0723 12.2175 19.9098 12.0154 19.7472C12.4195 19.6659 12.7831 19.5847 13.1872 19.4627C13.0256 19.7066 12.8235 19.9504 12.6619 20.1942L12.6215 20.2349ZM10.1568 20.1536C10.3588 20.3162 10.5204 20.4787 10.6821 20.6413C10.6013 20.8038 10.48 20.9258 10.3992 21.0883C9.91437 21.2509 9.42951 21.3728 8.94465 21.5353C8.78303 21.4134 8.62141 21.2915 8.45979 21.1289C8.58101 20.9258 8.66181 20.7226 8.74263 20.4787C9.22748 20.3974 9.67194 20.2755 10.1568 20.1536ZM8.94465 21.5353C8.70222 21.6166 8.41938 21.6573 8.17696 21.7385C8.25776 21.5353 8.37898 21.3321 8.45979 21.1289C8.62141 21.2509 8.78303 21.4134 8.94465 21.5353ZM9.3891 21.9011C9.51032 21.9824 9.59113 22.0636 9.71234 22.1856C9.63153 22.3075 9.55072 22.47 9.42951 22.592C8.94465 22.7952 8.50019 23.039 8.01534 23.2422C7.89412 23.0796 7.7325 22.9577 7.61129 22.7952C7.6921 22.6326 7.77291 22.47 7.85372 22.2668C8.37898 22.1856 8.86384 22.023 9.3891 21.9011ZM7.44967 22.592C7.40926 22.5513 7.36886 22.47 7.28805 22.4294C7.36886 22.3888 7.49007 22.3888 7.57088 22.3481C7.53048 22.4294 7.49007 22.5107 7.44967 22.592ZM7.36886 22.7139C7.16683 23.0796 6.96481 23.486 6.76278 23.8518C6.43954 24.0143 6.1163 24.1362 5.75266 24.2988C6.03549 23.7299 6.31833 23.1609 6.60116 22.592C6.80319 22.5513 6.96481 22.5107 7.16683 22.47C7.24764 22.5513 7.32845 22.6326 7.36886 22.7139ZM4.05565 22.6732C3.73241 22.7545 3.36876 22.8358 3.04552 22.9171C3.16674 22.592 3.28795 22.2668 3.40917 21.9417C3.6516 22.2262 3.85362 22.47 4.05565 22.6732ZM4.33848 22.9984C4.13646 23.4047 3.93443 23.8111 3.77281 24.2582C3.48998 23.9737 3.16674 23.6892 2.8839 23.4047C2.92431 23.3641 2.92431 23.2828 2.96471 23.2422C3.40917 23.1609 3.85362 23.0796 4.33848 22.9984ZM2.80309 23.5267C3.08593 23.8111 3.40917 24.1362 3.6516 24.4614C3.57079 24.6646 3.44957 24.9084 3.36876 25.1522H3.32836C3.08593 24.8678 2.80309 24.6239 2.52026 24.3801C2.60107 24.0956 2.72228 23.8111 2.80309 23.5267ZM2.07581 24.055C1.87378 23.8924 1.67176 23.7299 1.46973 23.5673C1.46973 23.5267 1.46973 23.486 1.51014 23.4454C1.79297 23.4047 2.07581 23.3641 2.39904 23.3235C2.27783 23.5673 2.19702 23.8111 2.07581 24.055ZM4.41929 26.3714C4.37889 26.4527 4.29808 26.5746 4.25767 26.6559C3.89403 26.7372 3.53038 26.8184 3.12633 26.8997C3.28795 26.4527 3.44957 26.0057 3.61119 25.518C3.89403 25.8025 4.17686 26.0869 4.41929 26.3714ZM4.70213 26.4527C4.78294 26.2901 4.82334 26.1682 4.90415 26.0057C4.98496 26.1276 5.10618 26.2495 5.18699 26.412C5.06577 26.4527 4.90415 26.4933 4.78294 26.534C4.74253 26.4933 4.70213 26.4527 4.70213 26.4527ZM5.3082 26.5746C5.34861 26.6152 5.34861 26.6152 5.3082 26.5746C5.2678 26.7372 5.22739 26.8184 5.18699 26.9404C5.10618 26.8591 5.02537 26.7372 4.90415 26.6559C5.06577 26.6559 5.18699 26.6152 5.3082 26.5746ZM5.42942 27.2248C5.46982 27.1436 5.51023 27.0216 5.55063 26.9404C5.71225 27.1436 5.83347 27.3467 5.99509 27.5499C5.91428 27.5906 5.87387 27.5906 5.79306 27.6312C5.71225 27.5093 5.59104 27.3467 5.42942 27.2248ZM5.63144 27.7531C5.42942 27.8344 5.22739 27.9563 5.02537 28.0376C5.14658 27.8344 5.22739 27.6312 5.3082 27.428C5.46982 27.5093 5.55063 27.6312 5.63144 27.7531ZM6.19711 27.7531C6.27792 27.8751 6.39914 28.0376 6.47995 28.1595C6.47995 28.2002 6.43954 28.2408 6.43954 28.2814C6.31833 28.1189 6.15671 27.997 6.03549 27.8344C6.0759 27.7938 6.1163 27.7938 6.19711 27.7531ZM6.84359 28.6066C7.08602 28.891 7.28805 29.1349 7.53048 29.3787C7.49007 29.4193 7.49007 29.46 7.44967 29.5006C7.24764 29.2162 7.04562 28.9723 6.80319 28.6878C6.80319 28.6472 6.84359 28.6472 6.84359 28.6066ZM7.12643 29.6225C6.9244 29.7038 6.72238 29.7851 6.52035 29.8664C6.47995 29.8257 6.47995 29.7445 6.43954 29.7038C6.52035 29.46 6.60116 29.2568 6.68197 29.013C6.80319 29.2162 6.96481 29.4193 7.12643 29.6225ZM6.35873 29.8664C6.35873 29.907 6.39914 29.907 6.39914 29.9477C6.35873 29.9477 6.35873 29.9477 6.31833 29.9883C6.35873 29.907 6.35873 29.8664 6.35873 29.8664ZM5.3082 31.3294C5.14658 31.1668 5.02537 31.0043 4.86375 30.8011C5.10618 30.7604 5.3082 30.6792 5.55063 30.5979C5.46982 30.8417 5.38901 31.0856 5.3082 31.3294ZM6.64157 31.8577C6.68197 31.8983 6.72238 31.9796 6.76278 32.0203C6.64157 32.2641 6.52035 32.4673 6.43954 32.7111C6.39914 32.6705 6.35873 32.5892 6.31833 32.5486C6.39914 32.3454 6.52035 32.1015 6.64157 31.8577ZM6.84359 31.4513C6.9244 31.3294 6.96481 31.2075 7.04562 31.0856C7.08602 31.1668 7.12643 31.2481 7.16683 31.2888C7.08602 31.4107 7.04562 31.5326 6.96481 31.6139C6.9244 31.5732 6.884 31.5326 6.84359 31.4513ZM7.36886 31.6139C7.44967 31.6951 7.49007 31.8171 7.57088 31.8983C7.49007 32.0203 7.44967 32.1828 7.40926 32.3047C7.32845 32.1828 7.24764 32.0609 7.16683 31.939C7.24764 31.8171 7.28805 31.6951 7.36886 31.6139ZM7.81331 32.9143C7.77291 32.9143 7.77291 32.9143 7.81331 32.9143C7.81331 32.7111 7.85372 32.5079 7.93453 32.3454C7.97493 32.386 8.01534 32.4267 8.05574 32.4673C7.97493 32.6298 7.89412 32.7924 7.81331 32.9143ZM8.01534 32.1015C8.09614 31.8983 8.21736 31.6545 8.29817 31.4513C8.33858 31.5732 8.41938 31.6951 8.45979 31.8171C8.33858 31.9796 8.25777 32.1015 8.13655 32.2641C8.13655 32.1828 8.09614 32.1422 8.01534 32.1015ZM8.78303 32.3454C8.82343 32.4267 8.86384 32.5079 8.94465 32.5892C8.90424 32.6298 8.86384 32.7111 8.86384 32.7518C8.78303 32.6705 8.70222 32.6298 8.581 32.5486C8.66181 32.5079 8.74262 32.4267 8.78303 32.3454ZM9.02546 32.7518C9.10627 32.8737 9.18708 32.955 9.22748 33.0769C9.14667 32.9956 9.02546 32.955 8.94465 32.8737C8.98505 32.833 9.02546 32.7924 9.02546 32.7518ZM10.076 33.8897C10.1568 33.9709 10.278 34.0116 10.3588 34.0522C10.278 34.1741 10.1568 34.3367 10.076 34.4993C9.91437 34.418 9.75275 34.3367 9.59113 34.2554C9.71234 34.1741 9.87396 34.0522 10.076 33.8897ZM10.48 34.7431C10.5204 34.6212 10.6417 34.4586 10.7225 34.2961C11.0861 34.4586 11.4902 34.6212 11.8942 34.7431C11.773 34.9869 11.6922 35.2308 11.6518 35.4746C11.2477 35.1901 10.8841 34.9463 10.48 34.7431ZM12.4195 34.865C12.5003 34.9056 12.5811 34.9056 12.7023 34.9463C12.5407 35.2308 12.3791 35.5152 12.2579 35.7997C12.177 35.7591 12.0962 35.6778 12.0154 35.6371C12.1366 35.3933 12.2983 35.1495 12.4195 34.865ZM12.6215 34.4586C12.7023 34.2554 12.8235 34.0522 12.9043 33.849C12.9851 33.8897 13.1064 33.9303 13.1872 34.0116C13.1064 34.1741 12.9851 34.3773 12.9043 34.5399C12.8235 34.4993 12.7427 34.4586 12.6215 34.4586ZM13.5912 34.1335C13.9145 34.2961 14.2377 34.418 14.5609 34.5399C14.5205 34.6618 14.4397 34.7431 14.3993 34.865C14.0357 34.7837 13.672 34.7024 13.3084 34.6212C13.4296 34.4586 13.5104 34.2961 13.5912 34.1335ZM15.1266 34.7431C15.2074 34.7837 15.2882 34.7837 15.369 34.8244C15.3286 34.9056 15.2478 34.9869 15.2074 35.0682C15.167 35.0682 15.1266 35.0276 15.0458 35.0276C15.0458 34.9056 15.0862 34.8244 15.1266 34.7431ZM14.9246 35.434C14.8842 35.4746 14.8438 35.5559 14.8438 35.5965C14.8438 35.5152 14.8438 35.4746 14.9246 35.434C14.8842 35.434 14.8842 35.434 14.9246 35.434ZM14.4801 36.2061C14.3993 36.4093 14.3589 36.5719 14.3589 36.6938C14.2377 36.6531 14.1569 36.6531 14.0357 36.6125C14.0761 36.6125 14.0761 36.6125 14.1165 36.5719C14.2377 36.4906 14.3589 36.3687 14.4801 36.2061ZM15.2882 35.9623C15.369 35.8403 15.4498 35.7184 15.5307 35.5965C15.6923 35.6371 15.8539 35.6778 16.0559 35.7184C15.8539 36.0435 15.5307 36.6125 15.2478 36.9376C15.0458 36.897 14.8842 36.8563 14.6822 36.8157C14.8034 36.5312 15.167 36.1248 15.2882 35.9623ZM16.9448 35.4746C16.864 35.4746 16.8236 35.434 16.7428 35.434C16.7832 35.3933 16.8236 35.312 16.864 35.2714C17.1469 35.3527 17.4297 35.3933 17.7125 35.434C17.6721 35.5152 17.6317 35.5559 17.5509 35.6371C17.3489 35.5559 17.1469 35.5152 16.9448 35.4746ZM18.2782 35.5152C18.3994 35.5152 18.561 35.5559 18.6822 35.5559C18.9651 35.5965 19.2883 35.6371 19.5712 35.6778C19.4903 35.7997 19.4095 35.9216 19.3287 36.0435C18.9247 35.9623 18.5206 35.8403 18.1166 35.7591C18.157 35.6778 18.1974 35.5965 18.2782 35.5152ZM19.9348 35.7184C20.2176 35.7591 20.5409 35.7997 20.8641 35.7997C20.7429 35.9623 20.6621 36.1248 20.5409 36.2874C20.258 36.2467 19.9752 36.1655 19.652 36.1248C19.7732 36.0029 19.854 35.8403 19.9348 35.7184ZM21.3894 35.8403C21.6722 35.8403 21.9146 35.881 22.1975 35.881C22.1167 36.0842 21.9955 36.2874 21.9146 36.4499C21.6318 36.4093 21.349 36.3687 21.0661 36.328C21.1874 36.2061 21.3086 36.0435 21.3894 35.8403ZM22.6015 35.9216C22.8036 35.9216 23.0056 35.9216 23.2076 35.9216C23.0864 36.1248 22.9248 36.328 22.8036 36.5312C22.6419 36.5312 22.4803 36.4906 22.3187 36.4906C22.4399 36.328 22.5207 36.1248 22.6015 35.9216ZM23.6521 36.6125C23.7733 36.4093 23.8945 36.2061 24.0157 35.9623C23.8945 36.1655 23.7733 36.3687 23.6521 36.6125ZM26.44 35.881C26.6824 35.881 26.9249 35.881 27.1673 35.8403C27.0865 36.0435 26.9653 36.2467 26.8845 36.4499C26.6016 36.4906 26.3188 36.4906 26.0764 36.4906C26.1976 36.328 26.3188 36.0842 26.44 35.881ZM27.6521 35.8403C27.935 35.7997 28.2178 35.7997 28.5411 35.7591C28.4602 35.9623 28.3794 36.1655 28.339 36.3687C28.0158 36.4093 27.6926 36.4499 27.3693 36.4906C27.4501 36.2467 27.5309 36.0435 27.6521 35.8403ZM28.137 36.8563C28.137 36.897 28.137 36.897 28.0966 36.9376C27.7734 36.9782 27.4097 37.0189 27.0865 37.0595H27.0461C27.0461 37.0189 27.0865 36.9782 27.0865 36.9376C27.4501 36.897 27.7734 36.897 28.137 36.8563ZM28.5815 36.775C28.9047 36.7344 29.2279 36.6938 29.5512 36.6531C29.5512 36.6938 29.5512 36.6938 29.5108 36.7344C29.1875 36.775 28.8643 36.8157 28.5411 36.8563C28.5815 36.8157 28.5815 36.8157 28.5815 36.775ZM30.1573 37.2221C30.2381 37.2221 30.3189 37.1814 30.3997 37.1814C30.3189 37.5066 30.2381 37.8317 30.1573 38.1161C30.0764 38.1568 29.9956 38.1568 29.9148 38.1974C29.9956 37.9129 30.0764 37.5472 30.1573 37.2221ZM30.2785 36.6125C30.2785 36.5718 30.2785 36.5312 30.2785 36.5312C30.3997 36.5312 30.4805 36.4906 30.6017 36.4906C30.6017 36.5312 30.5613 36.5718 30.5613 36.6125C30.4805 36.6125 30.3593 36.6125 30.2785 36.6125ZM30.3997 36.0435C30.4401 35.7997 30.5209 35.5965 30.5613 35.3527C30.6825 35.312 30.8037 35.312 30.9249 35.2714C30.8845 35.3933 30.8845 35.4746 30.8441 35.5965C30.8037 35.7184 30.7633 35.8403 30.7229 35.9623C30.6421 36.0029 30.5209 36.0029 30.3997 36.0435ZM31.329 35.7184C31.3694 35.5152 31.4098 35.3527 31.4502 35.1495C31.8543 35.0682 32.2583 34.9463 32.7028 34.865C32.6624 35.0682 32.5816 35.2714 32.5411 35.434C32.5411 35.4746 32.5007 35.5559 32.5007 35.5965C32.0967 35.6778 31.733 35.7997 31.329 35.8403C31.329 35.7997 31.329 35.7591 31.329 35.7184ZM33.2684 34.7024C33.3493 34.6618 33.4301 34.6618 33.5513 34.6212C33.7937 34.5805 34.0361 34.4993 34.2382 34.4586C34.1573 34.7024 34.0765 34.9056 33.9957 35.1495C33.6725 35.2308 33.3493 35.3527 33.026 35.434C33.1472 35.1901 33.1876 34.9463 33.2684 34.7024ZM34.6422 34.418C35.0463 34.3367 35.4503 34.2148 35.8544 34.1335C35.8544 34.1741 35.8544 34.2148 35.8139 34.2554C35.7735 34.3773 35.7331 34.4993 35.7331 34.6212C35.3291 34.7837 34.8846 34.9056 34.4806 35.0682C34.521 34.8244 34.5614 34.6212 34.6422 34.418ZM36.3392 34.0116C36.6625 33.9303 37.0261 33.849 37.3493 33.7677C37.3089 33.849 37.3089 33.9303 37.2685 34.0116C36.9453 34.1335 36.5816 34.2961 36.2584 34.418C36.2988 34.2554 36.3392 34.1335 36.3392 34.0116ZM36.9857 34.7024C36.9049 34.865 36.8645 35.0276 36.7837 35.1901C36.5008 35.2714 36.2584 35.3527 35.9756 35.434C36.016 35.312 36.0564 35.1495 36.0968 35.0276C36.42 34.9463 36.7029 34.8244 36.9857 34.7024ZM37.5514 34.9463C37.5918 34.7837 37.6726 34.6212 37.713 34.4586C37.8342 34.418 37.915 34.3773 38.0362 34.3367C37.9958 34.4993 37.915 34.6618 37.8746 34.7837C37.7534 34.8244 37.6322 34.865 37.5514 34.9463ZM38.3191 34.4993C38.3595 34.3773 38.3999 34.2554 38.4807 34.1335C38.6423 34.0522 38.8039 34.0116 38.9655 33.9303C39.2888 33.7677 39.612 33.6052 39.9353 33.4426C39.5312 33.7271 39.1272 34.0116 38.7231 34.2554C38.5615 34.3367 38.4403 34.418 38.3191 34.4993ZM45.2687 29.5006C45.3091 29.2974 45.3091 29.0536 45.3495 28.8504C45.5516 28.7285 45.7536 28.6066 45.9556 28.4846C45.9152 28.6878 45.8344 28.9317 45.794 29.1349C45.6324 29.2568 45.4303 29.3787 45.2687 29.5006ZM41.5111 30.3947C41.5515 30.3541 41.5919 30.354 41.6323 30.354C41.5919 30.3947 41.5515 30.3947 41.5111 30.3947ZM40.7434 30.7198C40.4201 30.8417 40.0565 30.9636 39.7332 31.0856C39.7736 31.0449 39.7736 30.9636 39.814 30.923C40.1373 30.8417 40.4201 30.7198 40.7434 30.6385C40.7434 30.6792 40.7434 30.7198 40.7434 30.7198ZM38.0766 31.6139C37.6726 31.7358 37.2685 31.8171 36.8241 31.939C36.8645 31.8577 36.8645 31.7764 36.9049 31.6545C37.3089 31.5732 37.7534 31.4919 38.1574 31.37C38.117 31.4513 38.117 31.5326 38.0766 31.6139ZM36.4604 31.9796C36.0564 32.0609 35.6119 32.1422 35.2079 32.2235C35.2483 32.1422 35.2483 32.0203 35.2887 31.939C35.7331 31.8577 36.1372 31.7764 36.5816 31.6951C36.5008 31.8171 36.5008 31.8983 36.4604 31.9796ZM35.3695 31.5732C35.4099 31.4513 35.4099 31.3294 35.4503 31.2075C35.4907 31.2075 35.5311 31.2075 35.5715 31.1668C36.016 31.0856 36.42 31.0043 36.8645 30.923C36.8241 31.0449 36.7433 31.2075 36.7029 31.3294C36.2584 31.4107 35.814 31.4919 35.3695 31.5732ZM31.733 31.6139C31.6118 31.6545 31.4502 31.6545 31.329 31.6951C31.329 31.6951 31.329 31.6545 31.329 31.6139C31.4502 31.6545 31.5714 31.6139 31.733 31.6139ZM30.9654 31.7764C30.8037 31.8171 30.6421 31.8171 30.5209 31.8577C30.5613 31.7764 30.6017 31.7358 30.6017 31.6545C30.7229 31.6545 30.8845 31.6545 31.0058 31.6545C31.0058 31.6951 31.0058 31.7358 30.9654 31.7764ZM27.6117 32.3047C27.3289 32.3454 27.0461 32.3454 26.7632 32.3454C26.9249 32.1422 27.0461 31.8983 27.2077 31.6951C27.2481 31.6545 27.2481 31.6139 27.2481 31.5732C27.4097 31.5732 27.6117 31.6139 27.7734 31.6139C27.733 31.8577 27.6926 32.0609 27.6117 32.3047ZM26.3188 32.3454C26.0359 32.3454 25.7531 32.3454 25.4703 32.3047C25.5511 32.0203 25.6319 31.7358 25.7127 31.4107C26.0764 31.4513 26.4804 31.4919 26.844 31.5326C26.6824 31.8171 26.4804 32.0609 26.3188 32.3454ZM24.3389 31.2075C24.1773 31.492 24.0157 31.7764 23.8541 32.1015C23.6117 32.0609 23.3288 32.0203 23.0864 31.9796C23.1672 31.6951 23.2076 31.4107 23.248 31.1262C23.5308 31.1668 23.8137 31.1668 24.0965 31.1668C24.2177 31.2075 24.2581 31.2075 24.3389 31.2075ZM21.8338 30.9636C21.753 31.1668 21.6722 31.4107 21.5914 31.6139C21.349 31.5326 21.1065 31.492 20.8237 31.4107C20.9449 31.2075 21.1065 31.0449 21.2278 30.8417C21.4298 30.8824 21.6318 30.923 21.8338 30.9636ZM20.2176 31.2481C19.9752 31.1668 19.7328 31.1262 19.5308 31.0449C19.6116 30.8824 19.7328 30.7198 19.8136 30.5572C20.056 30.6385 20.3389 30.6792 20.6217 30.7604C20.5005 30.8824 20.3389 31.0856 20.2176 31.2481ZM19.0863 30.8824C18.8843 30.8011 18.7227 30.7604 18.5206 30.6792C18.6014 30.5166 18.6822 30.3541 18.7227 30.1915C18.7631 30.1915 18.8035 30.2321 18.8439 30.2321H18.8843C19.0459 30.2728 19.2075 30.3541 19.3691 30.3947C19.2883 30.5572 19.2075 30.7198 19.0863 30.8824ZM15.167 27.9157C15.2478 28.1189 15.4094 28.2814 15.5307 28.444C15.4094 28.4034 15.3286 28.3221 15.2074 28.2814C15.1266 28.2408 15.0458 28.2002 14.965 28.1595C15.0458 28.0783 15.0862 27.997 15.167 27.9157ZM15.6923 28.9317C15.5307 29.0536 15.4094 29.1755 15.2478 29.3381C14.965 29.1755 14.6822 29.013 14.4397 28.8098C14.5609 28.6878 14.6417 28.5253 14.763 28.4034C15.0862 28.6066 15.4094 28.7691 15.6923 28.9317ZM14.965 29.6632C14.9246 29.7038 14.8842 29.7851 14.8438 29.8257C14.5609 29.7038 14.3185 29.5413 14.0357 29.4193C14.1165 29.2974 14.1973 29.2162 14.2781 29.0942C14.4801 29.2974 14.7226 29.5006 14.965 29.6632ZM13.7528 29.2568C13.7124 29.2162 13.672 29.2162 13.6316 29.1755C13.7528 29.013 13.8336 28.891 13.9549 28.7285C13.9953 28.7691 14.0357 28.8098 14.0761 28.891C13.9953 29.013 13.8741 29.1349 13.7528 29.2568ZM13.3084 29.013C13.2276 28.9723 13.1064 28.891 13.0256 28.8504C13.1872 28.4846 13.3488 28.1189 13.47 27.7531C13.5104 27.997 13.6316 28.2002 13.7124 28.4034C13.5912 28.6066 13.4296 28.8098 13.3084 29.013ZM12.7427 28.6066C12.5003 28.444 12.2579 28.2408 12.0154 28.0376C12.2579 27.7125 12.5003 27.3467 12.7831 27.0216C12.9447 27.1436 13.1064 27.2655 13.3084 27.3874C13.1064 27.8344 12.9447 28.2408 12.7427 28.6066ZM11.8134 27.8344C11.773 27.7938 11.7326 27.7531 11.6922 27.6719C11.8538 27.3061 12.0154 26.9404 12.1366 26.534C12.2579 26.6559 12.4195 26.7372 12.5407 26.8591C12.2983 27.1842 12.0558 27.5093 11.8134 27.8344ZM11.4498 27.428C11.3689 27.3467 11.3285 27.2655 11.2881 27.1436C11.4498 26.8591 11.6518 26.5746 11.8134 26.2901C11.8538 26.3308 11.9346 26.3714 11.975 26.412C11.8134 26.7372 11.6518 27.1029 11.4498 27.428ZM11.1265 26.7778C11.1265 26.7372 11.0861 26.6965 11.0861 26.6559C11.0861 26.6152 11.0053 26.6152 11.0457 26.6559C11.0457 26.7372 11.0861 26.7778 11.0861 26.8184C10.8033 27.2248 10.5204 27.6312 10.1972 28.0376C10.1164 27.9563 10.0356 27.8751 9.91437 27.8344C10.3992 27.1842 10.8841 26.534 11.3689 25.8837C11.4498 25.9244 11.4902 26.0057 11.571 26.0463C11.4094 26.3308 11.2477 26.5746 11.1265 26.7778ZM11.4902 25.7618C11.773 25.3961 12.0558 24.9897 12.2983 24.5833C12.2983 24.6239 12.2983 24.6239 12.2983 24.6646C12.1366 25.071 11.9346 25.4773 11.6922 25.8837C11.6114 25.8431 11.5306 25.8025 11.4902 25.7618ZM11.9346 23.8924C12.2175 23.7299 12.5003 23.5673 12.7427 23.4454C12.5811 23.6892 12.4195 23.9331 12.2579 24.1769C12.1366 24.0956 12.0558 23.9737 11.9346 23.8924ZM13.8336 21.2915C13.8336 21.2509 13.8741 21.2509 13.8336 21.2915C13.8741 21.2915 13.8741 21.2509 13.9145 21.2509C13.9145 21.2915 13.9145 21.2915 13.8741 21.3321C13.8741 21.2915 13.8741 21.2915 13.8336 21.2915ZM13.7932 18.8532L13.8336 18.8125C13.8741 18.8125 13.8741 18.8532 13.9145 18.8532C13.8741 18.8532 13.8337 18.8532 13.7932 18.8532ZM8.29817 21.007C8.17696 20.8851 8.01534 20.8038 7.89412 20.6819C7.89412 20.6819 7.85372 20.6819 7.89412 20.7226C8.01534 20.8445 8.17696 20.9258 8.29817 21.007C8.13655 21.2915 8.01534 21.5353 7.85372 21.7792C7.53048 21.8605 7.24764 21.9417 6.9244 22.023L6.884 21.9824C7.04562 21.6166 7.20724 21.2102 7.36886 20.8445C7.53048 20.8038 7.6921 20.7632 7.81331 20.7226C8.05574 20.6819 8.29817 20.6006 8.5406 20.56C8.5002 20.6819 8.41938 20.8445 8.29817 21.007ZM6.84359 21.9011C6.60116 21.6166 6.39914 21.3321 6.15671 21.0883C6.56076 21.007 6.9244 20.9258 7.32845 20.8445C7.20724 21.2102 7.04562 21.576 6.84359 21.9011ZM5.59104 20.8851C5.63144 20.8038 5.67185 20.6819 5.75266 20.6006H5.79306C6.35873 20.56 6.9244 20.4787 7.53048 20.3568H7.57088C7.57088 20.3974 7.53048 20.3974 7.53048 20.4381C6.884 20.56 6.23752 20.7226 5.59104 20.8851ZM5.63144 20.6006C5.55063 20.7226 5.51023 20.8038 5.42942 20.9258C4.86375 21.0477 4.25767 21.1696 3.692 21.2509C3.73241 21.1289 3.77281 21.0477 3.81322 20.9258C4.41929 20.8038 5.02537 20.6819 5.63144 20.6006ZM3.40917 21.2509C2.8839 21.3321 2.39904 21.3728 1.87378 21.3728C2.43945 21.1696 3.00512 21.0477 3.57079 20.9258C3.48998 21.0477 3.44957 21.1696 3.40917 21.2509ZM2.35864 23.1203C2.07581 23.2015 1.79297 23.2828 1.51014 23.3641C1.55054 23.1203 1.63135 22.8764 1.71216 22.6326C1.95459 22.7545 2.15662 22.9171 2.35864 23.1203ZM1.46973 23.6892V23.6486C1.67176 23.8111 1.87378 23.9737 2.07581 24.1362C1.91419 24.5833 1.75257 25.071 1.63135 25.5586C1.59095 25.5586 1.59095 25.5586 1.55054 25.5586C1.51014 24.9084 1.55054 24.2988 1.46973 23.6892ZM2.47985 24.4614C2.72228 24.7052 3.00512 24.9084 3.24755 25.1522C2.8839 25.2335 2.56066 25.3148 2.19702 25.3961C2.27783 25.071 2.35864 24.7865 2.47985 24.4614ZM3.12633 26.981C3.48998 26.9404 3.85362 26.8997 4.21727 26.8184C4.05565 27.1436 3.89403 27.4687 3.73241 27.8344C3.48998 27.6312 3.28795 27.3874 3.04552 27.1842C3.08593 27.1029 3.08593 27.0623 3.12633 26.981ZM4.4597 28.444C4.4597 28.4846 4.41929 28.4846 4.41929 28.5253L4.37889 28.4846C4.37889 28.4846 4.41929 28.444 4.4597 28.444ZM4.94456 28.2814C5.22739 28.1595 5.51023 28.0376 5.79306 27.9157C5.95468 28.1189 6.15671 28.3627 6.31833 28.5659C6.1163 29.0536 5.91428 29.5413 5.75266 30.0289C5.42942 29.6225 5.06577 29.2162 4.70213 28.8504C4.78294 28.6472 4.86375 28.444 4.94456 28.2814ZM5.42942 30.2728C5.14658 30.3541 4.86375 30.4353 4.58091 30.5166C4.4597 30.3541 4.29808 30.2321 4.17686 30.0696C4.29808 29.7445 4.41929 29.46 4.54051 29.1349C4.86375 29.5413 5.14658 29.907 5.42942 30.2728ZM4.25767 30.5979C4.17686 30.5979 4.09605 30.6385 4.01524 30.6385C4.05565 30.5572 4.05565 30.476 4.09605 30.3947C4.13646 30.476 4.21727 30.5572 4.25767 30.5979ZM5.91428 33.5645C5.99509 33.3614 6.0759 33.1582 6.15671 32.955C6.19711 32.9956 6.23752 33.0362 6.27792 33.1175C6.23752 33.2394 6.15671 33.3614 6.1163 33.5239C6.03549 33.5239 5.95468 33.5239 5.91428 33.5645ZM6.80319 33.2394C6.76278 33.1582 6.68197 33.0769 6.64157 33.0362C6.76278 32.7924 6.84359 32.5486 6.96481 32.3454C7.08602 32.4673 7.16683 32.6298 7.28805 32.7518C7.20724 32.7518 7.08602 32.7924 7.00521 32.8737C6.96481 32.9956 6.884 33.1175 6.80319 33.2394ZM8.41938 33.5645C8.25776 33.4426 8.09615 33.3207 7.93453 33.1988C7.93453 33.1582 7.89412 33.1582 7.89412 33.1175C7.89412 33.1175 7.89412 33.1175 7.93453 33.1175H7.97493C8.13655 33.0362 8.25776 32.955 8.37898 32.833C8.50019 32.955 8.62141 33.0362 8.70222 33.1175C8.62141 33.2801 8.5406 33.4426 8.45979 33.6052C8.41938 33.5645 8.41938 33.5645 8.41938 33.5645ZM8.78303 33.1582C8.94465 33.2801 9.10627 33.402 9.26789 33.4833C9.22748 33.5239 9.18708 33.5645 9.18708 33.6052C9.10627 33.6865 9.14667 33.8084 9.26789 33.8084C9.42951 33.8084 9.59113 33.7677 9.75275 33.6865H9.79315C9.63153 33.849 9.46991 34.0116 9.30829 34.1335C9.26789 34.1335 9.22748 34.1335 9.18708 34.0929C9.02546 33.8897 8.82343 33.7271 8.5406 33.6052C8.62141 33.4426 8.70222 33.3207 8.78303 33.1582ZM12.6215 36.0029C12.8235 35.6778 12.9851 35.3527 13.1468 35.0276C13.5104 35.1088 13.8741 35.1901 14.2377 35.2714C14.0357 35.6778 13.8741 36.0435 13.9145 36.1248C13.8741 36.0029 13.7124 36.0435 13.7124 36.1655C13.7124 36.328 13.7124 36.328 13.7528 36.4499C13.7528 36.4906 13.7932 36.5312 13.8336 36.5719C13.6316 36.4906 13.3892 36.4499 13.1872 36.3687C13.0256 36.2467 12.8235 36.1248 12.6215 36.0029ZM17.7933 36.1655C18.1974 36.2874 18.6014 36.3687 19.0055 36.4499C18.7631 36.775 18.4802 37.1002 18.1974 37.3846C17.7125 37.344 17.2277 37.3034 16.7428 37.2221C17.1065 36.897 17.4701 36.5312 17.7933 36.1655ZM19.3287 36.5312C19.6116 36.6125 19.9348 36.6531 20.2176 36.7344C20.0156 36.9782 19.854 37.2627 19.652 37.5066C19.2883 37.5066 18.8843 37.4659 18.5206 37.4253C18.8035 37.1408 19.0863 36.8563 19.3287 36.5312ZM22.1167 36.9782C22.2379 36.9782 22.3995 37.0189 22.5207 37.0189C22.3995 37.1814 22.3187 37.3034 22.1975 37.4659C22.0763 37.4659 21.955 37.4659 21.8338 37.4659C21.9146 37.344 22.0359 37.1408 22.1167 36.9782ZM21.4702 38.0755C21.5914 38.0755 21.7126 38.0755 21.8338 38.0755C21.6722 38.3193 21.4702 38.6038 21.2682 38.8476C21.1469 38.8476 21.0257 38.807 20.9045 38.807C21.1065 38.5632 21.3086 38.3193 21.4702 38.0755ZM23.4904 37.4253C23.5712 37.3034 23.6117 37.2221 23.6925 37.1002C24.2177 37.1002 24.743 37.1002 25.2279 37.1002C25.1874 37.1814 25.147 37.2221 25.1066 37.3034C24.5814 37.344 24.0157 37.3846 23.4904 37.4253ZM25.7127 37.0595C26.0359 37.0595 26.3188 37.0189 26.642 37.0189C26.642 37.0595 26.6016 37.1002 26.6016 37.1408C26.2784 37.1814 25.9551 37.2221 25.6319 37.2627C25.6319 37.1814 25.6723 37.1002 25.7127 37.0595ZM26.7228 37.6691C27.1269 37.6285 27.4905 37.5878 27.8946 37.5066C27.7734 37.9129 27.6117 38.3193 27.4905 38.7664C26.9653 38.8476 26.44 38.9289 25.9147 39.0102C26.1976 38.6445 26.4804 38.1568 26.7228 37.6691ZM31.0866 37.1002C31.3694 37.0595 31.6522 37.0189 31.9351 36.9376C31.8543 37.1814 31.7331 37.4253 31.6522 37.6691C31.4098 37.7504 31.127 37.8317 30.8845 37.9129C30.9654 37.6691 31.0462 37.3846 31.0866 37.1002ZM31.2078 36.4906C31.2078 36.4499 31.2078 36.4093 31.2078 36.3687C31.5714 36.2874 31.8947 36.2467 32.2583 36.1655C32.2179 36.2061 32.2179 36.2874 32.1775 36.328C31.8543 36.3687 31.531 36.4499 31.2078 36.4906ZM32.9048 36.0029C33.228 35.9216 33.5109 35.8403 33.8341 35.7591C33.7937 35.8403 33.7533 35.9216 33.7533 36.0435C33.4705 36.1248 33.1472 36.1655 32.8644 36.2061C32.8644 36.1248 32.8644 36.0842 32.9048 36.0029ZM34.2786 35.6371C34.723 35.5152 35.1271 35.3933 35.5715 35.2308C35.5311 35.3527 35.4907 35.4746 35.4503 35.5965C35.0463 35.7184 34.6018 35.7997 34.1978 35.9216C34.1978 35.8403 34.2382 35.7184 34.2786 35.6371ZM45.0667 30.6792C45.2283 30.5572 45.3899 30.476 45.5516 30.354C45.4707 30.6385 45.3899 30.923 45.3091 31.1668C45.2687 31.2888 45.3091 31.37 45.3899 31.4107C45.1475 31.6545 44.9051 31.8983 44.6222 32.1015C44.7839 31.6951 44.9455 31.1668 45.0667 30.6792ZM47.895 27.5906C47.9758 27.2248 48.0163 26.8591 48.0163 26.4933C48.0567 26.4527 48.1375 26.3714 48.1779 26.3308C48.1779 26.412 48.1779 26.534 48.1375 26.6152C48.1375 26.7372 48.0971 26.9404 48.0971 27.0623C48.0567 27.2655 47.9758 27.428 47.895 27.5906ZM47.2082 27.2248C46.9657 27.6719 46.7637 28.1189 46.4809 28.5253C46.4809 28.4034 46.5213 28.2815 46.5213 28.1595C46.5617 28.1595 46.5617 28.1189 46.6021 28.1189V28.0783C46.6021 28.0783 46.5617 28.0783 46.5617 28.1189C46.5617 27.997 46.6021 27.8751 46.6021 27.7938C46.7637 27.5906 46.9657 27.3874 47.2082 27.2248ZM45.996 28.3627C45.794 28.4846 45.592 28.5659 45.3899 28.6878V28.6472C45.592 28.4846 45.8344 28.3221 46.0364 28.1595C45.996 28.2408 45.996 28.3221 45.996 28.3627ZM42.1979 29.9477C42.2383 29.7851 42.2787 29.5819 42.3192 29.4193C42.5616 29.3381 42.804 29.2568 43.0464 29.1349C43.0464 29.2974 43.006 29.5006 42.9656 29.6632C42.7232 29.7851 42.4404 29.8664 42.1979 29.9477ZM41.9959 30.0289C41.8343 30.0696 41.6727 30.1102 41.5111 30.1915C41.5111 30.0289 41.5111 29.907 41.4706 29.7445C41.7131 29.6632 41.9151 29.5819 42.1575 29.5006C42.0767 29.6632 42.0363 29.8257 41.9959 30.0289ZM41.2282 30.0696C41.1474 29.8664 40.7434 29.907 40.7434 30.1915C40.7434 30.2728 40.7434 30.3134 40.7434 30.3947C40.5009 30.476 40.2181 30.5166 39.9757 30.5979C40.0161 30.5166 40.0969 30.3947 40.1373 30.3134C40.1777 30.2321 40.1777 30.1915 40.1373 30.1102C40.5009 29.9883 40.8646 29.907 41.2282 29.7851C41.2686 29.8664 41.2686 29.9883 41.2282 30.0696ZM39.5312 30.476C39.3292 30.476 39.0868 30.4353 38.8847 30.4353C39.1676 30.3541 39.41 30.2728 39.6928 30.2321C39.6524 30.3134 39.612 30.3947 39.5312 30.476ZM38.4403 30.5572C38.3999 30.6792 38.3191 30.8417 38.2787 30.9636C37.8746 31.0449 37.4301 31.1262 37.0261 31.2481C37.0665 31.1262 37.1473 30.9636 37.1877 30.8417C37.5918 30.7604 38.0362 30.6792 38.4403 30.5572ZM19.6924 29.9883C19.4499 29.907 19.1671 29.8257 18.9247 29.7445V29.7038C19.1671 29.7851 19.4499 29.8664 19.6924 29.9883ZM17.8337 29.2974C17.8337 29.2974 17.7933 29.2974 17.7933 29.2568C17.5105 29.1349 17.2681 28.9723 17.0256 28.8098C17.3085 28.9723 17.5913 29.0942 17.8741 29.2162C17.8337 29.2162 17.8337 29.2568 17.8337 29.2974ZM15.0862 27.6719C15.0862 27.7125 15.0862 27.7125 15.0862 27.7531C15.0054 27.8344 14.9246 27.9563 14.8438 28.0376C14.763 27.997 14.6822 27.9563 14.6417 27.9157C14.7226 27.7938 14.8438 27.6719 14.9246 27.5499C14.965 27.5906 15.0458 27.6312 15.0862 27.6719ZM14.6013 28.2814C14.4801 28.4034 14.3993 28.5253 14.2781 28.6472C14.2377 28.6066 14.1973 28.5659 14.1165 28.4846C14.1973 28.3627 14.2781 28.2408 14.3993 28.1595C14.4801 28.2002 14.5609 28.2408 14.6013 28.2814ZM13.8741 28.2002C13.7528 28.0376 13.6316 27.8344 13.5912 27.6312C13.7528 27.7531 13.9145 27.8344 14.0761 27.9563C13.9953 28.0376 13.9549 28.1189 13.8741 28.2002ZM12.6619 26.6559C12.5003 26.534 12.3387 26.412 12.177 26.2901C12.2983 25.965 12.3791 25.5993 12.4195 25.2741C12.4195 25.2335 12.3791 25.2335 12.3791 25.2741C12.2579 25.5993 12.1366 25.8837 12.0154 26.2088C11.975 26.1682 11.9346 26.1276 11.8538 26.0869C12.0154 25.7212 12.177 25.3961 12.3387 25.0303C12.6619 25.3554 12.9447 25.6805 13.2276 25.965C13.066 26.2089 12.8639 26.4527 12.6619 26.6559ZM12.5003 24.3394C12.7023 24.0143 12.8639 23.6892 13.066 23.3641C13.1064 23.4047 13.1468 23.4454 13.2276 23.4454C12.9851 23.7705 12.7427 24.0956 12.5003 24.3394ZM13.4296 22.6732C13.6316 22.3075 13.7932 21.9417 13.9549 21.576C13.9953 21.6166 14.0761 21.6573 14.1165 21.6979C13.9549 22.0637 13.7932 22.4294 13.5912 22.7952C13.5912 22.7545 13.5104 22.6732 13.4296 22.6732ZM8.70222 20.0723C8.33858 20.1942 7.93453 20.2755 7.57088 20.3974C7.57088 20.3568 7.57088 20.3568 7.61129 20.3162C7.89412 20.2755 8.13655 20.1942 8.41938 20.1536C8.50019 20.113 8.58101 20.113 8.70222 20.0723ZM1.63135 22.5513C1.55054 22.7952 1.46973 23.039 1.38892 23.2828C1.34852 22.9577 1.26771 22.592 1.1869 22.2668C1.34852 22.3481 1.46973 22.47 1.63135 22.5513ZM1.55054 25.6399V25.5993H1.59095C1.59095 25.6399 1.55054 25.6805 1.55054 25.7212C1.55054 25.7212 1.55054 25.6805 1.55054 25.6399ZM1.95459 26.412C2.15662 26.6152 2.35864 26.7778 2.56066 26.981C2.47985 26.981 2.39904 27.0216 2.31823 27.0216V27.0623C2.39904 27.0623 2.52026 27.0623 2.60107 27.0216C2.60107 27.0216 2.64147 27.0623 2.68188 27.0623C2.56066 27.4687 2.39904 27.8751 2.27783 28.2408L2.23743 28.2002C2.11621 27.7938 1.995 27.3467 1.87378 26.8997C1.87378 26.7778 1.91419 26.6152 1.95459 26.412ZM2.56066 28.6878L2.60107 28.7285H2.56066C2.56066 28.7285 2.56066 28.7285 2.56066 28.6878ZM2.60107 28.5659C2.72228 28.1595 2.8435 27.7938 2.96471 27.3874C3.20714 27.6312 3.40917 27.8344 3.61119 28.0783C3.53038 28.2408 3.48998 28.444 3.40917 28.6066C3.20714 28.6472 2.96471 28.6878 2.76269 28.7285C2.72228 28.6878 2.64147 28.6472 2.60107 28.5659ZM3.36876 28.7285C3.32836 28.8504 3.28795 29.013 3.24755 29.1349C3.12633 29.013 3.00512 28.891 2.8839 28.7691C3.04552 28.8098 3.20714 28.7691 3.36876 28.7285ZM3.81322 28.6472C3.89403 28.6066 3.97484 28.6066 4.05565 28.5659C4.13646 28.6472 4.21727 28.7285 4.25767 28.8098C4.09605 29.1349 3.97484 29.4193 3.85362 29.7445C3.73241 29.6225 3.6516 29.5413 3.53038 29.4193C3.6516 29.1755 3.73241 28.9317 3.81322 28.6472ZM3.77281 30.0289C3.692 30.2728 3.61119 30.476 3.53038 30.7198C3.44957 30.7198 3.36876 30.7198 3.28795 30.7198C3.32836 30.3541 3.40917 30.0289 3.48998 29.6632C3.57079 29.7851 3.692 29.907 3.77281 30.0289ZM3.85362 32.955C3.81322 32.7924 3.81322 32.5892 3.77281 32.4267C4.13646 32.833 4.41929 33.2394 4.70213 33.6865C4.70213 33.7677 4.66172 33.849 4.66172 33.9303C4.4597 33.9709 4.25767 34.0116 4.05565 34.0116C3.97484 33.7271 3.85362 33.4426 3.77281 33.1582C3.85362 33.0769 3.89403 33.0362 3.85362 32.955ZM4.62132 35.5559C4.74253 35.6371 4.82334 35.7184 4.90415 35.7997V35.8403C4.86375 35.8403 4.78294 35.881 4.74253 35.881C4.70213 35.7997 4.66172 35.6778 4.62132 35.5559ZM5.3082 35.9623C5.34861 35.9623 5.34861 35.9623 5.38901 35.9216C5.38901 35.9623 5.38901 36.0029 5.34861 36.0435C5.34861 36.0435 5.3082 36.0029 5.3082 35.9623ZM6.27792 33.8897C6.27792 33.849 6.31833 33.849 6.31833 33.8084C6.39914 33.7677 6.47995 33.7677 6.56076 33.7271V33.7677C6.47995 33.7271 6.39914 33.7677 6.27792 33.8897ZM7.24764 33.5239C7.24764 33.4833 7.28805 33.4426 7.32845 33.3614C7.32845 33.3614 7.36886 33.3614 7.36886 33.3207C7.36886 33.3614 7.40926 33.402 7.44967 33.402C7.36886 33.4833 7.32845 33.5239 7.24764 33.5239ZM19.854 38.0349C20.2176 38.0349 20.5813 38.0755 20.9449 38.0755C20.7833 38.2787 20.5813 38.5225 20.3793 38.7257C20.056 38.6851 19.7732 38.6038 19.4499 38.5632C19.6116 38.36 19.7328 38.1974 19.854 38.0349ZM24.2985 39.1728C24.5814 38.7257 24.9046 38.3193 25.1874 37.8723C25.5511 37.8317 25.9147 37.791 26.2784 37.7504C26.1572 38.0349 25.9147 38.6445 25.6319 39.0915C25.2279 39.1321 24.7834 39.1728 24.3793 39.2134C24.3389 39.1728 24.3389 39.1728 24.2985 39.1728ZM31.4502 38.6038C31.4502 38.6445 31.4502 38.6445 31.4502 38.6851C31.2886 38.7257 31.127 38.7664 30.9654 38.7664C31.127 38.6851 31.2886 38.6445 31.4502 38.6038ZM32.622 37.3034C32.5816 37.3034 32.5816 37.3034 32.5411 37.344C32.5816 37.1814 32.622 36.9782 32.6624 36.8157C32.9452 36.775 33.228 36.6938 33.5109 36.6531C33.4705 36.775 33.4301 36.897 33.3897 37.0189C33.1472 37.1002 32.8644 37.2221 32.622 37.3034ZM33.9957 36.5312C34.319 36.4499 34.6826 36.3687 35.0059 36.2874C34.6422 36.4499 34.2786 36.6125 33.9149 36.775C33.9553 36.6938 33.9553 36.6125 33.9957 36.5312ZM37.7534 35.7184C38.1978 35.4746 38.6423 35.1901 39.0868 34.9056C39.208 34.8244 39.2888 34.7837 39.41 34.7024H39.4504C39.0868 35.312 38.6423 35.881 38.1574 36.4093C38.117 36.4499 38.117 36.4499 38.117 36.4906C37.7938 36.6531 37.4706 36.775 37.1069 36.9376C37.3493 36.5312 37.5514 36.1248 37.7534 35.7184ZM40.0565 34.3773C40.0969 34.3367 40.1777 34.2961 40.2181 34.2961C40.0969 34.5805 39.9757 34.865 39.8949 35.1495C39.5716 35.3933 39.2888 35.5965 39.0059 35.881C38.9251 35.9623 38.9655 36.0435 39.0059 36.0842C38.8847 36.1655 38.7231 36.2061 38.6019 36.2874C39.1676 35.6778 39.6524 35.0682 40.0565 34.3773ZM48.4607 26.3308C48.4607 26.2495 48.4607 26.1682 48.4203 26.0463C48.5415 25.9244 48.6223 25.8025 48.7435 25.6805C48.6627 25.9244 48.5819 26.1276 48.4607 26.3308ZM46.1576 27.7938C45.9152 27.997 45.6728 28.1595 45.4303 28.3221C45.4303 28.2814 45.4303 28.2002 45.4303 28.1595C45.6728 28.0376 45.9152 27.9157 46.1576 27.7938ZM44.9455 28.6066C44.7839 28.7285 44.5818 28.8098 44.4202 28.9317C44.4202 28.8098 44.4606 28.6878 44.4606 28.6066C44.6222 28.5253 44.8243 28.444 44.9859 28.3627C44.9859 28.444 44.9859 28.5253 44.9455 28.6066ZM44.1374 28.7285C44.097 28.891 44.0566 29.013 44.0162 29.1755C43.7737 29.3381 43.4909 29.46 43.2485 29.6225H43.2081C43.2081 29.46 43.2081 29.2974 43.2081 29.0942C43.5313 28.9723 43.8545 28.8504 44.1374 28.7285ZM14.2781 27.7125C14.0761 27.5906 13.8336 27.428 13.6316 27.3061C13.7124 27.0216 13.8337 26.7372 13.8741 26.4527C13.9145 26.4933 13.9549 26.4933 13.9953 26.534C13.9549 26.6965 13.9953 26.8997 14.1569 27.0623C14.2781 27.1435 14.4397 27.2655 14.5609 27.3467C14.4801 27.4687 14.3589 27.5906 14.2781 27.7125ZM2.43945 28.9723C2.47985 28.9317 2.52026 28.891 2.52026 28.8504C2.56066 28.8504 2.64147 28.8504 2.68188 28.8504C2.8435 29.013 3.00512 29.2162 3.16674 29.3787C3.04552 29.7445 2.96471 30.1102 2.8839 30.5166C2.8435 30.3541 2.76269 30.1915 2.72228 30.0289C2.64147 29.6632 2.52026 29.2974 2.43945 28.9723ZM4.82334 36.0842C4.86375 36.0842 4.90415 36.0842 4.94456 36.0435C4.94456 36.0842 4.94456 36.1248 4.94456 36.1248C4.94456 36.328 5.2678 36.328 5.2678 36.1248L5.3082 36.1655C5.22739 36.4499 5.18699 36.7344 5.14658 37.0595C5.02537 36.7344 4.90415 36.4093 4.82334 36.0842ZM33.3897 38.1974C33.4301 38.0755 33.4705 37.9536 33.5513 37.8317C33.9957 37.6691 34.3998 37.4659 34.8442 37.2627C34.723 37.4659 34.6018 37.6691 34.4806 37.8723C34.0765 37.9942 33.7533 38.1161 33.3897 38.1974Z" fill="#47A3FF"/>
</svg>
