<svg width="59" height="40" viewBox="0 0 59 40" fill="none" xmlns="http://www.w3.org/2000/svg">
<path d="M19.6936 7.77263C18.9686 2.70254 14.5948 -0.536685 9.51937 0.073603C6.4554 0.449165 3.71887 2.11572 1.89452 4.60382C1.21623 5.54273 0.491171 6.90414 0.350837 8.19513C-0.608117 11.27 0.491172 14.9318 2.52602 17.4434C4.0931 19.3681 6.24489 20.4478 8.51364 20.6826V20.706C8.42008 22.2787 8.3733 23.8279 8.34992 25.4006C7.83535 25.4475 7.34418 25.5414 6.85301 25.7057C6.22151 25.7292 5.59 25.7527 4.95849 25.8231C4.74799 25.8466 4.56088 25.9874 4.58427 26.1986C4.60766 26.6212 4.63105 27.0671 4.63105 27.4896C4.53749 27.5366 4.5141 27.6539 4.60766 27.7009C4.63105 27.7244 4.67782 27.7244 4.70121 27.7478C4.77138 27.8183 4.84155 27.8652 4.9351 27.8652C5.94084 28.3112 7.13368 28.499 8.30314 28.5694C8.25636 30.635 8.13941 32.724 8.27975 34.7662C8.30314 35.0948 8.56042 35.2121 8.79431 35.1652C8.91125 35.2356 9.05159 35.2591 9.16854 35.2356C11.1332 34.7192 10.8058 30.4002 10.8058 28.9684C10.8058 28.8745 10.8058 28.7572 10.8058 28.6633C11.9986 28.6398 13.9165 28.499 14.4545 27.7009C14.548 27.6539 14.6182 27.5835 14.665 27.4896C14.7819 27.2314 14.8755 26.9967 14.9456 26.7385C15.0158 26.4568 14.9456 26.1517 14.7351 25.9404C13.9165 25.1189 12.0454 25.2832 10.7356 25.3302C10.7122 24.7433 10.6888 24.1565 10.6654 23.5462C10.6187 22.7012 10.759 21.5276 10.5251 20.6356C11.9518 20.4713 13.3552 19.9784 14.6182 19.1569C18.2903 16.8096 20.3018 12.0681 19.6936 7.77263ZM17.7991 12.8192C16.2788 17.1382 11.8349 20.5417 7.34418 19.1569C7.78858 19.2507 8.25636 19.3212 8.77092 19.3212C14.127 19.5089 18.1967 14.3215 18.4072 9.32182C18.4072 9.2514 18.4072 9.20446 18.4072 9.13404C18.4072 10.3781 18.1967 11.6456 17.7991 12.8192ZM5.30933 27.3019H5.33272C5.30933 27.3019 5.30933 27.3019 5.30933 27.3019ZM5.33272 3.64144C9.12176 0.355274 15.3199 1.6228 16.9571 6.41121C18.5476 11.1057 15.6239 16.2462 11.1566 17.9128C7.9523 19.1099 4.81816 17.7015 3.20431 14.7675C2.26874 13.0774 2.10502 11.1057 2.19858 9.15751C2.5728 7.0215 3.71887 5.0498 5.33272 3.64144ZM2.24536 6.03565C2.22197 6.03565 2.22197 6.03565 2.24536 6.03565C2.17519 6.15301 2.12841 6.27038 2.08163 6.38774C2.10502 6.31732 2.12841 6.24691 2.1518 6.15301C2.17519 6.10607 2.19858 6.05912 2.24536 6.03565Z" fill="#47A3FF"/>
<path d="M58.2389 8.38317C57.7244 8.54748 57.1864 8.73526 56.6718 8.89957C56.5315 8.89957 56.3912 8.94651 56.2508 9.01693C56.2274 9.01693 56.2275 9.0404 56.2041 9.0404C54.9644 9.43944 53.7482 9.83847 52.5086 10.214C50.6141 10.7774 48.6026 11.1529 46.7782 11.8806C46.7081 11.8806 46.6145 11.951 46.5911 12.0449C46.4976 13.1012 46.942 13.9931 47.5969 14.7912C45.7725 16.0587 44.1119 17.561 42.1472 18.6407C40.2293 16.669 37.75 15.3076 34.9667 15.0259C29.6574 14.4861 24.7691 17.8661 23.9739 23.2413C23.2722 28.0532 25.1901 33.0998 28.4178 36.6207C29.8679 38.1934 31.7858 39.4844 33.8908 39.8834C34.5457 40.0008 35.2006 40.0243 35.8555 39.9773C42.4045 40.2355 47.0355 33.1703 46.2637 27.1378C45.983 24.8844 45.0942 22.6311 43.7611 20.6828C44.5095 20.2368 45.2346 19.7204 45.9362 19.1806C46.8484 18.5938 47.7138 17.9835 48.5792 17.3262C48.8365 17.1385 49.0938 16.9272 49.3744 16.7394C49.9358 17.3028 50.4269 17.9131 50.731 18.5468C50.7778 18.6407 50.8246 18.6877 50.9181 18.7581C50.8947 19.0867 51.3157 19.3918 51.5964 19.0867C51.6198 19.0632 51.6432 19.0397 51.6432 19.0397C52.1344 19.5092 53.0933 18.6407 53.4208 18.1947C53.7482 17.7487 54.0289 17.2558 54.2628 16.7394C54.8943 16.0587 55.4322 15.2372 55.7831 14.7677C57.0461 13.1012 58.4026 11.2234 58.964 9.18124C59.1277 8.68831 58.7067 8.21886 58.2389 8.38317ZM49.8422 13.1951C49.889 13.1951 49.9358 13.1716 49.9826 13.1716C49.9592 13.1951 49.9124 13.2185 49.889 13.242C49.8656 13.242 49.8656 13.2185 49.8422 13.1951ZM29.4001 33.405C28.8622 32.959 28.371 32.4661 27.95 31.9262C27.2951 30.7056 26.7572 29.3208 26.4531 27.8889C26.6402 24.2037 29.1428 20.4481 32.6278 19.4623C38.5219 17.7722 43.1997 23.6169 43.0828 29.0391C43.0828 29.4381 43.036 29.8372 42.9424 30.2362C41.9367 32.4661 40.2293 34.4143 37.9605 35.3063C37.3758 35.541 36.7443 35.7053 36.1128 35.7757C33.6803 35.8931 31.2713 34.9777 29.4001 33.405ZM36.066 17.6549C37.0718 17.9131 37.9839 18.359 38.8026 18.9459C35.8321 17.3967 32.1133 17.3967 29.2364 19.5092C28.0436 20.3777 27.108 21.5278 26.4063 22.8188C26.7104 21.6217 27.2717 20.5185 28.1605 19.5796C30.1486 17.514 33.3997 16.9742 36.066 17.6549ZM36.2531 37.6535C37.5863 37.4892 38.8961 37.0667 40.1357 36.386C39.7615 36.6442 39.3639 36.8789 38.9663 37.0902C38.1477 37.3719 37.1887 37.5831 36.2531 37.6535Z" fill="#47A3FF"/>
</svg>
