<svg width="25" height="40" viewBox="0 0 25 40" fill="none" xmlns="http://www.w3.org/2000/svg">
<path d="M24.6857 36.452C24.5914 36.1416 24.4657 35.8002 24.3085 35.5209C24.2771 35.4588 24.2456 35.4278 24.2142 35.3657C24.2456 35.3657 24.2456 35.3657 24.2771 35.3657C24.56 35.3036 24.56 34.9001 24.2771 34.8381C23.617 34.6829 22.8626 34.745 22.1711 34.776C22.2026 34.7139 22.2026 34.6518 22.2026 34.5898C22.3597 34.7139 22.6426 34.6829 22.6426 34.4346C22.5169 33.1311 22.4226 31.7965 21.9826 30.524C21.5739 29.2825 20.7253 28.2583 19.8452 27.2651C19.7823 27.203 19.7195 27.1099 19.6252 27.0479C19.3737 26.6754 19.0908 26.303 18.808 25.9616C18.1165 25.0926 17.3621 24.2235 16.6077 23.3855C16.1991 22.889 15.7905 22.3924 15.319 21.9268C14.5961 21.0888 13.936 20.1888 13.3074 19.2887C15.1619 17.3334 17.2049 15.5643 18.9337 13.4848C19.9395 12.2744 20.9139 10.9088 21.4797 9.41904C21.9197 8.36379 22.234 7.27751 22.2969 6.06708C22.9569 6.005 23.5856 5.84982 24.057 5.47738C24.0885 5.44634 24.1199 5.41531 24.1513 5.38427C24.3399 5.41531 24.5285 5.3222 24.5285 5.10494C24.56 3.98762 25 2.00127 23.9942 1.19432C24.0571 1.03914 24.0256 0.883952 23.837 0.759805C22.6741 -0.0781847 20.9453 -0.0471481 19.5309 0.045962C17.7078 0.139072 15.8848 0.480475 14.0303 0.604622C11.5787 0.759805 9.06412 0.573585 6.58102 0.480475C5.32375 0.449439 4.03505 0.418402 2.77778 0.449439C2.71491 0.449439 2.65205 0.480475 2.58919 0.480475C1.7091 0.325292 0.766148 0.418402 0.294672 1.25639C0.263241 1.28743 0.200377 1.28743 0.168945 1.31847C0.200377 1.97024 0.168945 2.62201 0.0117869 3.24274C-0.0196448 3.64622 0.0117869 4.04969 0.106082 4.45317C0.0746503 4.91872 0.106082 5.38427 0.200377 5.88086C0.231809 6.06708 0.420399 6.19122 0.60899 6.16019C1.04903 6.16019 1.48908 6.16019 1.92912 6.16019C1.92912 6.2533 1.92912 6.34641 1.92912 6.40848C1.99198 6.81196 2.11771 7.24647 2.3063 7.64995C2.58919 8.27068 2.93494 8.89141 3.24925 9.45007C3.72073 10.3191 4.22364 11.2812 4.8837 12.0261C6.2667 13.5779 8.02687 14.7573 9.62989 16.0919C10.1328 16.4954 10.6043 16.9299 11.0129 17.3644C11.2958 17.6748 11.5787 18.0162 11.8301 18.3576C12.0187 18.6059 12.1759 18.8542 12.333 19.1025C12.3645 19.1335 12.3645 19.1645 12.3959 19.1956C11.893 19.6611 11.3901 20.1267 10.8872 20.6233C9.12698 22.3303 7.27251 24.0373 5.60663 25.8685C4.78941 26.7375 4.03505 27.6065 3.40641 28.5687C3.37498 28.6307 3.31212 28.6928 3.28069 28.7549C3.28069 28.7859 3.24925 28.817 3.24925 28.817C3.21782 28.879 3.18639 28.9411 3.15496 28.9721C2.33773 30.4309 1.83483 31.9827 1.92912 33.7207C1.92912 33.7518 1.92912 33.7518 1.92912 33.7828C1.96055 33.969 1.99198 34.1553 2.08628 34.3725C1.99198 34.4656 1.96055 34.5898 1.99199 34.7139C1.36335 34.7139 0.703285 34.745 0.263241 34.9933C0.326104 35.0243 0.420399 35.0864 0.514694 35.1174C0.514694 35.2105 0.514694 35.2726 0.514694 35.3657C0.326104 35.4588 0.137514 35.7071 0.326104 35.9244C0.388968 36.0175 0.451831 36.1106 0.514694 36.2037C0.546126 37.2589 0.640421 38.3142 0.766148 39.3694C0.766148 39.4936 0.860443 39.5867 1.0176 39.6177C1.20619 39.6177 1.36335 39.6177 1.55194 39.6488C1.6148 39.6798 1.67767 39.7108 1.74053 39.7108C1.80339 39.7108 1.86626 39.7108 1.92912 39.7108C1.99198 39.7108 2.02342 39.7108 2.05485 39.6798C2.58919 39.7108 3.12353 39.7108 3.6893 39.7419C5.38661 40.1453 7.20965 40.0212 9.00126 39.7419C14.0932 39.6488 19.1851 39.3694 24.2771 39.3384C24.4657 39.3384 24.56 39.1832 24.56 39.028C24.7485 39.0591 25 38.9659 25 38.7177C24.9057 37.9728 24.8743 37.1969 24.6857 36.452ZM0.923307 5.01183C0.923307 4.88768 0.923307 4.79457 0.923307 4.67043C0.954738 4.79457 0.954738 4.88768 0.98617 5.01183C0.954738 5.04287 0.954738 5.04287 0.923307 5.01183ZM1.17476 2.93237C1.17476 2.68408 1.17476 2.40475 1.14333 2.15646C1.17476 2.15646 1.20619 2.15646 1.20619 2.15646C1.20619 2.31164 1.23762 2.46682 1.23762 2.62201C1.20619 2.71512 1.17476 2.83926 1.17476 2.93237ZM1.52051 5.16701C1.52051 5.13598 1.52051 5.13598 1.52051 5.10494C1.64624 5.10494 1.74053 5.01183 1.7091 4.88768C1.64624 4.76354 1.6148 4.60835 1.58337 4.48421H1.6148C1.67767 4.70146 1.74053 4.94976 1.80339 5.16701C1.7091 5.16701 1.6148 5.16701 1.52051 5.16701ZM1.96055 4.17384C1.96055 4.1428 1.96055 4.11177 1.92912 4.04969C1.96055 4.01866 1.96055 3.98762 1.99199 3.95658C1.99199 4.04969 1.99199 4.11177 1.96055 4.17384ZM2.11771 2.09438C2.05485 2.06335 1.99198 2.06335 1.89769 2.12542C1.89769 2.09438 1.89769 2.06335 1.86626 2.03231C1.92912 2.00127 2.02342 1.97024 2.08628 1.9392C2.08628 1.9392 2.08628 1.9392 2.08628 1.97024C2.11771 1.97024 2.11771 2.03231 2.11771 2.09438ZM0.734716 35.3347C0.734716 35.3036 0.734716 35.3036 0.734716 35.2726C0.766148 35.2726 0.829011 35.2726 0.860443 35.3036C0.829011 35.3036 0.766148 35.3036 0.734716 35.3347ZM1.17476 39.1832C1.17476 39.0901 1.14333 38.9659 1.14333 38.8728C1.20619 38.9659 1.23762 39.0901 1.30049 39.1832C1.26906 39.1832 1.23762 39.1832 1.17476 39.1832ZM1.55194 36.0175C1.55194 35.9864 1.52051 35.9864 1.52051 35.9554V35.9244C1.55194 35.9244 1.6148 35.8933 1.64624 35.8933C1.6148 35.9554 1.58337 35.9864 1.55194 36.0175ZM22.1083 36.7313C22.1397 36.7313 22.1397 36.7313 22.1711 36.7623H22.2026C22.1397 37.0106 22.0769 37.2279 22.014 37.4762C21.9511 37.321 21.9197 37.1658 21.8883 36.9796C21.9511 36.8865 22.014 36.7934 22.1083 36.7313ZM21.1339 4.98079C21.1653 4.94976 21.1653 4.94976 21.1339 4.98079C21.1968 4.94976 21.2282 4.94976 21.2596 4.94976C21.2282 4.94976 21.1968 4.98079 21.1339 4.98079ZM23.397 2.09438C23.4913 2.12542 23.5541 2.18749 23.6484 2.21853C23.5541 2.68408 23.4598 3.18067 23.3341 3.64622C23.3341 3.11859 23.3656 2.62201 23.397 2.09438ZM23.3341 4.98079C23.3341 4.94976 23.3656 4.91872 23.3656 4.91872C23.397 4.88768 23.4284 4.82561 23.4284 4.79457C23.5227 4.54628 23.617 4.32902 23.6799 4.08073C23.6799 4.32902 23.6799 4.54628 23.6799 4.79457C23.6799 4.91872 23.8056 4.98079 23.9313 4.98079C23.9313 5.01183 23.9313 5.01183 23.9313 5.04287C23.8685 5.04287 23.8056 5.04287 23.7427 5.0739C23.3027 5.29116 22.7998 5.38427 22.2654 5.44634C22.234 5.41531 22.2026 5.41531 22.1397 5.38427C22.454 5.3222 22.7369 5.22909 23.0512 5.10494C23.1141 5.16701 23.2713 5.13598 23.3341 4.98079ZM22.9569 2.5289C22.9569 2.55993 22.9569 2.62201 22.9569 2.65304L22.9255 2.62201C22.9255 2.62201 22.9569 2.59097 22.9569 2.5289ZM22.4226 1.84609C22.5169 1.84609 22.6426 1.87713 22.7369 1.90816C22.6741 2.06335 22.6426 2.21853 22.5798 2.37371C22.3912 2.24957 22.1397 2.15646 21.9197 2.06335C21.9197 2.03231 21.9197 2.00127 21.9197 1.97024C22.0769 1.9392 22.2654 1.90816 22.4226 1.84609ZM22.014 2.90134C22.014 2.80823 21.9826 2.71512 21.9826 2.65304C22.014 2.65304 22.0454 2.68408 22.0769 2.68408C22.2026 2.74615 22.3283 2.80823 22.4226 2.8703C22.4226 2.90134 22.3912 2.93237 22.3912 2.96341C22.2654 2.93237 22.1397 2.93237 22.014 2.90134ZM22.234 3.36689C22.2026 3.42896 22.2026 3.49103 22.1711 3.55311C22.1711 3.55311 22.1397 3.55311 22.1397 3.58414C22.1397 3.52207 22.1083 3.49103 22.1083 3.42896C22.1397 3.39792 22.2026 3.39792 22.234 3.36689ZM21.5111 3.46C21.5739 3.46 21.6368 3.46 21.6997 3.46C21.6997 3.55311 21.7311 3.64622 21.7311 3.73933C21.6368 3.77036 21.5425 3.8014 21.4482 3.83244C21.4482 3.67725 21.4796 3.55311 21.5111 3.46ZM21.2911 4.36006C21.4482 4.32902 21.6368 4.26695 21.794 4.20488C21.794 4.23591 21.794 4.26695 21.8254 4.32902C21.8568 4.48421 22.1397 4.51524 22.2026 4.36006C22.2654 4.23591 22.3597 4.11177 22.4226 3.95658C22.5483 3.89451 22.7055 3.83244 22.8312 3.77036C22.8626 3.73933 22.8941 3.73933 22.9255 3.70829C22.9255 3.95658 22.9255 4.23591 22.9255 4.48421C22.3912 4.48421 21.8254 4.45317 21.2911 4.42213C21.2911 4.42213 21.2911 4.3911 21.2911 4.36006ZM21.2596 2.40475C21.2282 2.55993 21.1968 2.68408 21.1653 2.83926C21.1025 2.83926 21.0396 2.83926 20.9767 2.83926C20.9767 2.71512 20.9453 2.55993 20.9453 2.43579C20.9453 2.40475 20.9453 2.37371 20.9139 2.34268C21.0396 2.37371 21.1653 2.37371 21.2596 2.40475ZM20.7253 3.77036C20.7253 3.83244 20.7567 3.92555 20.7567 3.98762C20.7253 3.98762 20.6939 3.98762 20.6939 4.01866C20.6939 3.92555 20.6939 3.83244 20.7253 3.77036ZM20.7253 4.91872C20.7253 4.94976 20.7253 5.01183 20.7567 5.04287C20.6624 5.04287 20.5681 5.0739 20.4738 5.0739C20.4738 5.01183 20.5053 4.98079 20.5053 4.91872C20.5681 4.88768 20.6624 4.88768 20.7253 4.91872ZM20.0338 2.59097C20.1281 2.49786 20.1281 2.37371 20.0652 2.2806C20.191 2.2806 20.3167 2.2806 20.4738 2.24957C20.5367 2.24957 20.5681 2.24957 20.631 2.2806C20.5996 2.31164 20.5681 2.34268 20.5681 2.37371C20.5367 2.5289 20.5053 2.65304 20.4738 2.80823C20.3167 2.80823 20.1909 2.80823 20.0338 2.80823C20.0338 2.71512 20.0338 2.65304 20.0338 2.59097ZM20.3481 3.49103C20.3167 3.70829 20.2852 3.89451 20.2224 4.11177C20.191 4.11177 20.1281 4.1428 20.0967 4.1428C20.0652 3.92555 20.0652 3.70829 20.0338 3.49103C20.1281 3.49103 20.2538 3.49103 20.3481 3.49103ZM19.9081 5.0739C19.3109 5.10494 18.7137 5.0739 18.085 5.01183C18.0536 5.01183 17.9907 5.01183 17.9593 5.01183C18.4308 4.94976 18.8708 4.85665 19.3423 4.76354C19.4995 4.79457 19.6566 4.79457 19.8138 4.82561C19.8452 4.91872 19.8766 4.98079 19.9081 5.0739ZM19.6252 3.77036C19.6252 3.92555 19.6566 4.08073 19.688 4.23591C19.6252 4.23591 19.5623 4.26695 19.468 4.26695C19.5309 4.08073 19.5937 3.92555 19.6252 3.77036ZM19.3423 2.68408C19.3737 2.68408 19.4366 2.68408 19.468 2.68408C19.468 2.71512 19.468 2.74615 19.4366 2.77719C19.4052 2.77719 19.3737 2.77719 19.3109 2.77719V2.68408H19.3423ZM18.9022 4.29799C18.6508 4.26695 18.4308 4.26695 18.1793 4.23591C18.2422 4.1428 18.305 4.04969 18.3679 3.95658C18.5565 3.89451 18.7137 3.83244 18.9022 3.8014V4.29799ZM17.4564 2.12542C17.865 2.12542 18.305 2.12542 18.7137 2.15646V2.18749C18.305 2.18749 17.8964 2.18749 17.4564 2.18749C17.4564 2.15646 17.4564 2.15646 17.4564 2.12542ZM17.1421 3.67725H17.1735C17.1735 3.70829 17.1735 3.70829 17.1735 3.73933C17.1421 3.73933 17.1421 3.73933 17.1106 3.73933C17.1106 3.73933 17.1106 3.70829 17.1421 3.67725ZM16.7963 2.15646C16.8592 2.15646 16.9221 2.15646 17.0163 2.15646V2.18749C16.9535 2.18749 16.8906 2.18749 16.8278 2.18749V2.15646H16.7963ZM15.9477 2.15646H15.6648C15.7591 2.18749 15.8534 2.15646 15.9477 2.15646ZM16.3563 3.70829V3.89451C16.2306 3.92555 16.1048 3.95658 15.9791 3.95658C15.9162 3.95658 15.8848 3.95658 15.8534 3.95658C15.8848 3.89451 15.9162 3.8014 15.9477 3.73933C16.0734 3.73933 16.2306 3.70829 16.3563 3.70829ZM14.8161 3.30481C14.8476 3.30481 14.9104 3.30481 14.9419 3.30481V3.33585C14.879 3.33585 14.8476 3.33585 14.7847 3.33585C14.8161 3.33585 14.8161 3.30481 14.8161 3.30481ZM14.659 3.83244C14.7847 3.83244 14.9104 3.8014 15.0676 3.8014C15.0676 3.86347 15.099 3.89451 15.1304 3.95658C14.9733 3.95658 14.8161 3.95658 14.659 3.95658C14.6275 3.92555 14.659 3.86347 14.659 3.83244ZM15.5391 4.85665C15.1304 4.85665 14.6904 4.85665 14.2818 4.88768C14.3132 4.82561 14.3132 4.76354 14.3447 4.7325C14.7533 4.76354 15.1619 4.82561 15.5391 4.85665ZM14.3761 3.30481C14.3761 3.33585 14.3761 3.33585 14.3447 3.36689C14.1875 3.36689 14.0303 3.39792 13.8732 3.39792C13.8732 3.36689 13.8732 3.33585 13.8732 3.30481C14.0303 3.33585 14.1875 3.30481 14.3761 3.30481ZM14.1875 3.86347C14.1875 3.89451 14.1561 3.92555 14.1561 3.95658C14.1561 3.95658 14.1561 3.95658 14.1246 3.95658C14.0618 3.95658 13.9989 3.95658 13.936 3.95658C13.936 3.92555 13.936 3.89451 13.936 3.89451C14.0303 3.89451 14.1246 3.89451 14.1875 3.86347ZM13.8103 4.94976C13.716 4.94976 13.5903 4.98079 13.496 5.01183C13.1502 5.01183 12.8045 4.98079 12.4587 5.01183C12.4273 4.98079 12.3645 4.94976 12.333 4.91872C12.8045 4.88768 13.276 4.85665 13.7474 4.82561C13.7789 4.82561 13.7789 4.88768 13.8103 4.94976ZM13.0245 3.36689C13.1188 3.36689 13.2131 3.36689 13.3074 3.36689C13.3074 3.42896 13.276 3.46 13.276 3.52207C13.2131 3.52207 13.1188 3.52207 13.0559 3.55311C13.0245 3.46 13.0245 3.39792 13.0245 3.36689ZM13.4646 2.68408C13.4646 2.71512 13.4646 2.71512 13.4646 2.68408C13.276 2.71512 13.0874 2.71512 12.8988 2.74615C12.8988 2.71512 12.8988 2.71512 12.8988 2.68408C13.0874 2.68408 13.276 2.68408 13.4646 2.68408ZM12.333 3.36689C12.3959 3.36689 12.4902 3.36689 12.553 3.36689C12.553 3.42896 12.5845 3.49103 12.5845 3.55311C12.4902 3.55311 12.3645 3.58414 12.2702 3.58414C12.3016 3.52207 12.333 3.42896 12.333 3.36689ZM11.2643 2.68408C11.5472 2.68408 11.7987 2.68408 12.0816 2.68408C12.0816 2.71512 12.0816 2.74615 12.0501 2.77719C11.7672 2.80823 11.5158 2.80823 11.2643 2.80823C11.2643 2.77719 11.2643 2.71512 11.2643 2.68408ZM11.893 3.36689C11.8615 3.46 11.8615 3.55311 11.8301 3.64622C11.7358 3.64622 11.6415 3.67725 11.5787 3.67725C11.5472 3.58414 11.5472 3.49103 11.5158 3.39792C11.6415 3.36689 11.7672 3.36689 11.893 3.36689ZM11.3901 5.04287C11.2958 5.04287 11.2015 5.04287 11.1072 5.0739C11.0129 5.0739 10.8872 5.04287 10.7929 5.04287C10.7929 5.01183 10.8243 4.98079 10.8243 4.94976C10.9815 4.94976 11.17 4.94976 11.3272 4.94976C11.3272 4.94976 11.3586 5.01183 11.3901 5.04287ZM10.4471 1.97024C10.5728 1.97024 10.73 1.97024 10.8557 1.9392V1.97024C10.4157 2.00127 10.0071 2.06335 9.56703 2.09438C9.56703 2.06335 9.56703 2.03231 9.56703 2.00127C9.84991 2.00127 10.1328 2.00127 10.4471 1.97024ZM9.97564 3.8014C9.94421 3.64622 9.91278 3.49103 9.88135 3.30481C10.0385 3.30481 10.1957 3.33585 10.3528 3.33585C10.4471 3.33585 10.5414 3.33585 10.6671 3.33585C10.6671 3.46 10.6357 3.61518 10.6043 3.73933C10.3843 3.77036 10.1642 3.8014 9.97564 3.8014ZM10.2271 4.29799C10.1957 4.32902 10.1642 4.3911 10.1328 4.42213C10.1328 4.3911 10.1014 4.32902 10.1014 4.29799C10.1328 4.29799 10.1957 4.29799 10.2271 4.29799ZM10.5414 2.80823C10.2585 2.80823 9.91278 2.80823 9.56703 2.80823C9.56703 2.77719 9.56703 2.74615 9.5356 2.68408C9.91278 2.68408 10.3214 2.68408 10.6986 2.68408C10.6986 2.71512 10.6986 2.77719 10.6986 2.80823C10.6671 2.80823 10.6043 2.80823 10.5414 2.80823ZM9.5356 4.32902C9.5356 4.36006 9.56703 4.3911 9.56703 4.42213C9.5356 4.42213 9.50417 4.42213 9.4413 4.42213C9.40987 4.3911 9.40987 4.36006 9.37844 4.29799C9.47273 4.32902 9.50417 4.32902 9.5356 4.32902ZM9.15842 5.01183C9.15842 4.98079 9.15842 4.98079 9.18985 4.94976H9.22128C9.22128 4.94976 9.22128 4.94976 9.22128 4.98079C9.22128 5.04287 9.25271 5.13598 9.34701 5.16701C9.40987 5.19805 9.4413 5.22909 9.50416 5.26012C9.25271 5.29116 9.00126 5.3222 8.7498 5.35323C8.65551 5.35323 8.59265 5.35323 8.49835 5.35323C8.56121 5.26012 8.65551 5.16701 8.71837 5.0739C8.8441 5.19805 9.09555 5.13598 9.15842 5.01183ZM9.06412 2.06335C9.06412 2.09438 9.06412 2.12542 9.06412 2.12542C8.87553 2.12542 8.71837 2.15646 8.52978 2.15646V2.12542C8.71837 2.09438 8.87553 2.09438 9.06412 2.06335ZM8.40405 4.36006C8.46692 4.36006 8.52978 4.36006 8.59265 4.36006C8.59265 4.3911 8.59265 4.42213 8.62408 4.45317C8.52978 4.45317 8.46692 4.45317 8.37262 4.45317C8.37262 4.3911 8.40405 4.36006 8.40405 4.36006ZM8.12117 2.68408C8.1526 2.68408 8.1526 2.68408 8.18403 2.68408V2.71512C8.18403 2.71512 8.1526 2.71512 8.12117 2.68408ZM8.02687 5.26012C8.02687 5.29116 8.02687 5.3222 8.02687 5.35323C7.99544 5.35323 7.99544 5.35323 7.96401 5.35323C7.99544 5.3222 7.99544 5.29116 8.02687 5.26012ZM7.36681 2.2806C7.42967 2.2806 7.49254 2.24957 7.5554 2.24957C7.61826 2.24957 7.71256 2.21853 7.77542 2.21853C7.74399 2.34268 7.71256 2.49786 7.71256 2.65304C7.61826 2.62201 7.52397 2.62201 7.39824 2.59097C7.36681 2.46682 7.36681 2.37371 7.36681 2.2806ZM7.58683 4.85665C7.61826 4.85665 7.64969 4.85665 7.68113 4.85665C7.68113 4.85665 7.68113 4.85665 7.68113 4.88768C7.64969 4.88768 7.61826 4.88768 7.58683 4.88768V4.85665ZM7.49254 3.70829H7.4611C7.42967 3.55311 7.39824 3.42896 7.39824 3.27378C7.39824 3.14963 7.39824 3.05652 7.39824 2.93237C7.4611 2.96341 7.5554 2.99445 7.61826 2.99445C7.58683 3.24274 7.5554 3.46 7.49254 3.70829ZM6.48672 4.85665C6.48672 4.82561 6.51815 4.79457 6.51815 4.76354C6.54958 4.76354 6.54958 4.76354 6.58102 4.76354C6.64388 4.88768 6.70674 5.01183 6.76961 5.16701C6.39243 5.22909 6.04668 5.26012 5.6695 5.22909C5.70093 5.19805 5.70093 5.19805 5.73236 5.16701C5.79522 5.16701 5.82665 5.13598 5.85809 5.0739C5.88952 5.04287 5.92095 4.98079 5.95238 4.94976C5.98381 4.98079 6.04668 5.01183 6.07811 5.01183C6.2667 5.0739 6.42386 4.98079 6.48672 4.85665ZM5.54377 3.42896C5.54377 3.39792 5.54377 3.33585 5.51234 3.30481C5.6695 3.30481 5.82665 3.27378 5.98381 3.27378C6.01524 3.27378 6.07811 3.27378 6.10954 3.27378C6.07811 3.36689 6.07811 3.42896 6.04668 3.52207C5.88952 3.52207 5.73236 3.49103 5.54377 3.42896ZM5.88952 4.08073C5.88952 4.11177 5.85809 4.1428 5.85809 4.17384C5.82665 4.17384 5.82665 4.17384 5.79522 4.17384C5.76379 4.1428 5.73236 4.11177 5.70093 4.08073C5.76379 4.04969 5.82665 4.04969 5.88952 4.08073ZM5.51234 1.72194C5.60663 1.72194 5.6695 1.72194 5.76379 1.72194C5.6695 1.78402 5.5752 1.84609 5.48091 1.9392C5.51234 1.84609 5.51234 1.78402 5.51234 1.72194ZM5.95238 2.40475C6.01524 2.40475 6.07811 2.40475 6.10954 2.40475C6.10954 2.5289 6.10954 2.65304 6.10954 2.77719H6.07811C5.85809 2.74615 5.63806 2.71512 5.44947 2.68408C5.44947 2.59097 5.44947 2.5289 5.44947 2.43579C5.63806 2.46682 5.79522 2.43579 5.95238 2.40475ZM5.13516 4.51524C5.16659 4.51524 5.19802 4.54628 5.26088 4.54628C5.22945 4.54628 5.19802 4.57732 5.13516 4.57732C5.13516 4.57732 5.13516 4.54628 5.13516 4.51524ZM5.29232 5.04287C5.26088 5.0739 5.26088 5.0739 5.22945 5.10494V5.0739C5.22945 5.04287 5.26088 5.04287 5.29232 5.04287ZM4.75798 1.75298C4.69511 1.81505 4.66368 1.87713 4.66368 1.9392C4.66368 1.97024 4.66368 2.03231 4.66368 2.06335C4.56939 2.09438 4.44366 2.09438 4.34936 2.12542C4.31793 2.12542 4.25507 2.12542 4.22364 2.12542C4.22364 2.00127 4.1922 1.90816 4.1922 1.78402C4.34936 1.78402 4.56939 1.78402 4.75798 1.75298ZM4.12934 4.26695C4.1922 4.45317 4.22364 4.63939 4.2865 4.79457C4.2865 4.82561 4.2865 4.82561 4.2865 4.85665C4.1922 4.63939 4.12934 4.42213 4.09791 4.17384C4.12934 4.23591 4.12934 4.26695 4.12934 4.26695ZM3.90932 4.98079C3.97218 5.13598 4.00361 5.29116 4.06648 5.41531H4.03505C3.97218 5.38427 3.90932 5.38427 3.84646 5.38427C3.81502 5.38427 3.78359 5.38427 3.78359 5.38427C3.84646 5.26012 3.87789 5.10494 3.90932 4.98079ZM3.34355 1.81505C3.43784 1.81505 3.50071 1.81505 3.595 1.81505C3.595 1.84609 3.56357 1.87713 3.56357 1.9392C3.56357 2.03231 3.56357 2.09438 3.56357 2.18749C3.50071 2.18749 3.40641 2.18749 3.34355 2.18749V1.81505ZM3.50071 4.88768C3.50071 4.94976 3.46928 4.98079 3.46928 5.04287C3.43784 4.98079 3.43784 4.91872 3.40641 4.85665C3.43784 4.88768 3.46928 4.88768 3.50071 4.88768ZM3.40641 3.08756C3.43784 3.11859 3.46928 3.14963 3.53214 3.18067C3.53214 3.27378 3.50071 3.36689 3.50071 3.42896C3.43784 3.33585 3.40641 3.2117 3.40641 3.08756ZM3.18639 5.38427C3.12353 5.38427 3.0921 5.38427 3.02923 5.38427C2.9978 5.38427 2.9978 5.38427 2.96637 5.38427C2.96637 5.22909 2.96637 5.0739 2.96637 4.91872C3.06066 5.0739 3.12353 5.22909 3.18639 5.38427ZM2.84064 1.84609C2.84064 1.90816 2.84064 1.97024 2.84064 2.06335C2.84064 1.97024 2.80921 1.90816 2.77778 1.84609C2.80921 1.84609 2.84064 1.84609 2.84064 1.84609ZM2.27487 5.22909C2.27487 5.16701 2.27487 5.10494 2.27487 5.04287C2.27487 5.10494 2.3063 5.16701 2.3063 5.22909H2.27487ZM2.55776 3.92555V4.20488C2.55776 4.04969 2.55776 3.86347 2.55776 3.70829C2.55776 3.77036 2.58919 3.8014 2.58919 3.83244C2.58919 3.86347 2.55776 3.89451 2.55776 3.92555ZM2.65205 6.16019C2.74635 6.16019 2.87207 6.16019 2.96637 6.16019C2.96637 6.16019 2.96637 6.16019 2.9978 6.16019C2.9035 6.19122 2.80921 6.2533 2.71491 6.28433C2.68348 6.28433 2.68348 6.31537 2.65205 6.31537C2.62062 6.28433 2.62062 6.22226 2.65205 6.16019ZM12.2702 17.7679C11.2329 16.3402 9.75562 15.285 8.34119 14.1987C7.96401 13.8883 7.58683 13.5469 7.20965 13.2365C6.58102 12.7089 5.98381 12.1503 5.44947 11.5606C5.32375 11.4054 5.19802 11.2192 5.07229 11.0329C4.75798 10.5674 2.96637 7.8672 2.68348 6.5947C2.71491 6.62574 2.74635 6.62574 2.77778 6.62574C3.56357 6.53263 4.31793 6.37744 5.10372 6.22226C6.07811 6.28433 7.05249 6.16019 8.02687 6.06708C8.43549 6.005 8.87553 5.94293 9.28414 5.88086C10.1642 5.88086 11.0443 5.91189 11.9244 5.91189C13.5589 5.91189 15.1619 5.94293 16.7963 5.94293C17.3307 5.94293 17.8964 5.97397 18.4622 5.97397C19.028 6.005 19.6252 6.03604 20.191 6.06708C20.4738 6.06708 20.7882 6.09811 21.1025 6.09811C21.1339 6.50159 21.1339 6.90507 21.071 7.30854C20.9453 7.8672 20.8196 8.39483 20.631 8.89141C20.5053 9.17074 20.3795 9.41904 20.191 9.66733C20.1281 9.76044 20.1595 9.85355 20.2224 9.91562C19.688 11.1571 18.9337 12.3365 18.0536 13.4848C16.4506 15.2539 14.5961 16.8989 13.0245 18.6369C12.9931 18.668 12.9931 18.668 12.9617 18.699C12.7102 18.3886 12.4902 18.0783 12.2702 17.7679ZM2.02342 38.0659C1.99199 37.9107 1.96055 37.7865 1.92912 37.6314C1.99198 37.7555 2.05485 37.8797 2.11771 37.9728C2.11771 38.0969 2.11771 38.2521 2.11771 38.3762C2.08628 38.2831 2.05485 38.19 2.02342 38.0659ZM2.49489 38.7797C2.52632 38.7177 2.52632 38.6556 2.52632 38.6245C2.62062 38.6556 2.71491 38.5935 2.77778 38.5314C2.84064 38.4383 2.9035 38.3452 2.93494 38.2211C2.9978 38.4383 3.02923 38.6866 3.09209 38.9039C2.9035 38.8728 2.68348 38.8418 2.49489 38.7797ZM3.31212 38.3762C3.31212 38.3142 3.28069 38.2521 3.28069 38.19C3.31212 38.19 3.31212 38.2211 3.34355 38.2211C3.34355 38.2831 3.31212 38.3142 3.31212 38.3762ZM3.40641 37.1348C3.43784 37.1348 3.50071 37.1037 3.53214 37.1037C3.56357 37.1037 3.595 37.1037 3.62643 37.1037C3.595 37.2279 3.56357 37.321 3.53214 37.4451C3.50071 37.4451 3.50071 37.4451 3.46928 37.4451C3.46928 37.321 3.43784 37.2279 3.40641 37.1348ZM3.50071 38.9659C3.53214 38.8728 3.53214 38.7797 3.56357 38.6866C3.62643 38.7797 3.6893 38.9039 3.75216 38.997C3.6893 38.9659 3.595 38.9659 3.50071 38.9659ZM4.44366 37.1348C4.3808 37.1348 4.31793 37.1348 4.22364 37.1348C4.22364 37.1037 4.22364 37.1037 4.22364 37.0727C4.2865 37.0727 4.3808 37.0727 4.44366 37.0727C4.44366 37.1037 4.44366 37.1348 4.44366 37.1348ZM4.63225 38.9039C4.60082 38.9039 4.56939 38.9039 4.53795 38.9039C4.56939 38.8418 4.56939 38.7797 4.60082 38.7177C4.69511 38.7487 4.82084 38.7797 4.91513 38.7797C4.82084 38.8418 4.72654 38.8728 4.63225 38.9039ZM4.63225 38.5625C4.63225 38.5314 4.66368 38.5314 4.63225 38.5625C4.69511 38.5625 4.75798 38.5625 4.85227 38.5625V38.5935C4.78941 38.5625 4.72654 38.5625 4.63225 38.5625ZM4.8837 37.1037C4.94657 37.0727 5.00943 37.0727 5.07229 37.0727C5.00943 37.1037 4.94657 37.1037 4.8837 37.1037ZM5.26088 38.5935C5.26088 38.5625 5.26088 38.5625 5.26088 38.5314C5.29232 38.5314 5.32375 38.5314 5.32375 38.5314C5.29232 38.5625 5.26088 38.5935 5.26088 38.5935ZM5.76379 38.6556C5.73236 38.6556 5.6695 38.6556 5.63806 38.6556C5.63806 38.6556 5.63806 38.6556 5.63806 38.6245C5.6695 38.5935 5.70093 38.5625 5.76379 38.5314C5.79522 38.5314 5.85809 38.5314 5.88952 38.5004C5.82665 38.5625 5.79522 38.5935 5.76379 38.6556ZM6.20384 38.997C6.20384 38.9659 6.20384 38.9659 6.23527 38.9659C6.32956 38.9659 6.39243 38.997 6.48672 38.997C6.36099 38.997 6.29813 38.997 6.20384 38.997ZM6.32956 38.6866C6.36099 38.5935 6.39243 38.5004 6.42386 38.4073C6.51815 38.3762 6.58102 38.3762 6.67531 38.3452C6.73817 38.4694 6.80104 38.5935 6.8639 38.7177C6.67531 38.6866 6.51815 38.6866 6.32956 38.6866ZM6.61245 36.7313C6.67531 36.7313 6.70674 36.7313 6.76961 36.7313C6.76961 36.7313 6.76961 36.7313 6.76961 36.7623C6.73817 36.7313 6.67531 36.7313 6.61245 36.7313ZM6.92676 36.3278C6.8639 36.3278 6.83247 36.3278 6.76961 36.3278C6.83247 36.3278 6.89533 36.3278 6.92676 36.3278ZM7.27251 38.3142C7.24108 38.2831 7.24108 38.2521 7.20965 38.2211C7.24108 38.2211 7.27251 38.2211 7.30395 38.2211C7.30395 38.2831 7.30395 38.3142 7.27251 38.3142ZM8.2469 38.7177C7.99544 38.7177 7.71256 38.7177 7.4611 38.7177C7.49254 38.6556 7.5554 38.6245 7.58683 38.5625C7.64969 38.5935 7.74399 38.5935 7.80685 38.5004C7.83828 38.4383 7.86972 38.3762 7.90115 38.3142C8.02687 38.3142 8.1526 38.3452 8.27833 38.3452C8.30976 38.4694 8.27833 38.5935 8.2469 38.7177ZM9.09555 38.5004C9.03269 38.5314 8.96983 38.5625 8.93839 38.5935V38.4383C9.00126 38.4383 9.06412 38.4383 9.12698 38.4694C9.12698 38.4383 9.12698 38.4694 9.09555 38.5004ZM10.1014 38.5004C9.94421 38.5314 9.75562 38.5625 9.59846 38.5935C9.66132 38.5625 9.69276 38.5004 9.72419 38.4694C9.81848 38.4694 9.94421 38.4694 10.1014 38.5004ZM10.3214 35.5829C10.3214 35.5209 10.29 35.4588 10.2585 35.4278H11.4844C11.0758 35.4278 10.6986 35.4898 10.3214 35.5829ZM12.4902 37.4141C12.4902 37.3831 12.4587 37.3831 12.4273 37.352C12.4902 37.321 12.5216 37.2589 12.5845 37.2279C12.5845 37.29 12.5845 37.352 12.5845 37.4141C12.553 37.4141 12.5216 37.4141 12.4902 37.4141ZM12.5216 35.3967C12.8045 35.3967 13.0559 35.3967 13.3388 35.3967C13.3388 35.4588 13.3388 35.4898 13.3388 35.5519C13.0559 35.4898 12.7731 35.4278 12.5216 35.3967ZM13.4017 37.321C13.3703 37.321 13.3388 37.321 13.276 37.321C13.3074 37.2589 13.3388 37.2279 13.3388 37.1658C13.3703 37.1658 13.4331 37.1658 13.4646 37.1658C13.4646 37.1969 13.4646 37.2279 13.4646 37.2279C13.4646 37.2589 13.4331 37.29 13.4017 37.321ZM14.0303 37.1969C14.0618 37.1658 14.0618 37.1658 14.0932 37.1348C14.1246 37.1348 14.1561 37.1348 14.1875 37.1348V37.1658C14.1246 37.1969 14.0618 37.1969 14.0303 37.1969ZM15.1304 35.4898C14.659 35.5209 14.1561 35.5519 13.6846 35.614C13.6846 35.5519 13.6532 35.4898 13.6532 35.4278C14.1561 35.4278 14.659 35.4278 15.1619 35.4278C15.1619 35.4278 15.1304 35.4588 15.1304 35.4898ZM15.7276 35.4588C15.6648 35.4588 15.6019 35.4588 15.5391 35.4898C15.5391 35.4588 15.5705 35.4588 15.5705 35.4278C15.6333 35.4278 15.6962 35.4278 15.7591 35.4278C15.7276 35.4278 15.7276 35.4278 15.7276 35.4588ZM13.1502 33.938C12.6473 33.969 12.113 33.969 11.6101 34.0311C9.97564 34.1553 8.30976 34.1242 6.67531 34.1242C5.79522 34.1242 4.91513 34.1553 4.03505 34.1553C3.62643 34.1553 3.18639 34.1553 2.74635 34.2173C2.74635 33.1621 2.77778 32.0758 2.9978 31.0516C3.24925 29.9343 3.87789 28.9721 4.60082 28.041C5.6695 26.7065 6.92676 25.465 8.12117 24.2235C9.62989 22.8579 11.17 21.4923 12.4587 20.0025C12.8674 20.2819 13.2445 20.5922 13.6217 20.9026C14.659 22.2061 15.8219 23.4476 16.9535 24.6891C19.4052 27.3893 21.9197 30.4309 21.9511 34.1242C21.9197 34.0932 21.8568 34.0932 21.8254 34.0621C19.0594 33.1621 16.0105 33.6276 13.1502 33.938ZM19.4366 34.7139C19.5623 34.7139 19.688 34.6829 19.7823 34.6829C19.8452 34.6829 19.9081 34.7139 20.0024 34.7139C19.8138 34.7139 19.6252 34.7139 19.4366 34.7139ZM20.1281 37.1658C20.1281 37.1348 20.1595 37.1037 20.1595 37.0727C20.2538 37.0727 20.3795 37.0417 20.4738 37.0106C20.5053 37.0727 20.5053 37.1348 20.5367 37.1969C20.3795 37.1969 20.2538 37.1969 20.1281 37.1658ZM20.8824 36.9486C20.9139 37.0417 20.9767 37.1658 21.0082 37.2589C20.9767 37.2589 20.9453 37.2589 20.9139 37.2589C20.8824 37.1658 20.851 37.0727 20.8196 36.9796C20.851 36.9486 20.8824 36.9486 20.8824 36.9486ZM20.9139 38.8728C21.2282 38.8108 21.5111 38.7487 21.794 38.6556C21.8254 38.6556 21.8254 38.6556 21.8254 38.6245C22.0454 38.6866 22.2654 38.7797 22.454 38.8418C21.9511 38.8418 21.4168 38.8418 20.9139 38.8728ZM22.3283 37.6003C22.3912 37.3831 22.454 37.1658 22.5169 36.9486C22.5483 37.1969 22.5798 37.4451 22.5798 37.6934C22.4855 37.6624 22.4226 37.6314 22.3283 37.6003ZM22.9255 36.0795C22.8941 36.2037 22.8941 36.3278 22.8941 36.452C22.8941 36.514 22.8626 36.5451 22.8626 36.6072C22.8312 36.514 22.8312 36.452 22.7998 36.3589C22.7998 36.2658 22.7684 36.1726 22.7684 36.1106C22.7684 36.0485 22.7998 36.0175 22.7998 35.9554C22.8941 35.9244 23.0198 35.9244 23.1141 35.8933V35.9244C23.0198 35.9244 22.9569 35.9554 22.9255 36.0485C22.9255 36.0485 22.9255 36.0485 22.9255 36.0795ZM22.9569 37.9107C23.0198 37.9107 23.0512 37.8797 23.0827 37.8176C23.1141 37.9107 23.1455 37.9728 23.177 38.0659C23.1141 38.0038 23.0512 37.9728 22.9569 37.9107ZM24.0256 36.9796C24.0885 37.4762 24.0885 37.9728 24.0256 38.4694C24.0256 37.9728 24.0256 37.4762 24.0256 36.9796ZM23.6484 38.159C23.617 38.128 23.617 38.0969 23.5856 38.0659C23.617 38.0659 23.617 38.0659 23.6484 38.0659C23.6484 38.0969 23.6484 38.128 23.6484 38.159ZM23.5541 35.4278C23.5856 35.4278 23.617 35.4278 23.6484 35.4278V35.614C23.6484 35.645 23.617 35.645 23.617 35.6761C23.5856 35.614 23.5856 35.5829 23.5541 35.5209C23.5541 35.5209 23.5541 35.4898 23.5541 35.4278ZM23.4913 36.6692C23.4913 36.6382 23.5227 36.6072 23.5227 36.5761C23.5227 36.6072 23.5227 36.6382 23.5227 36.6692C23.4913 37.0417 23.4913 37.4451 23.4913 37.8176C23.4598 37.7866 23.4598 37.7245 23.4284 37.6934C23.4598 37.352 23.4913 37.0106 23.4913 36.6692ZM23.4913 38.8418C23.5227 38.7797 23.5541 38.7487 23.5541 38.6866C23.5856 38.7487 23.6484 38.7797 23.6799 38.8418C23.617 38.8108 23.5541 38.8108 23.4913 38.8418ZM24.2142 38.8108C24.1513 38.8108 24.0885 38.8108 24.0256 38.8108C24.0256 38.7797 24.057 38.7797 24.057 38.7487C24.057 38.7177 24.057 38.6556 24.057 38.6245C24.0885 38.7177 24.1513 38.7487 24.2456 38.7797C24.2142 38.7797 24.2142 38.8108 24.2142 38.8108Z" fill="#47A3FF"/>
<path d="M19.3109 35.5519C19.3423 35.5519 19.3737 35.5519 19.3737 35.5519C19.3423 35.5519 19.3423 35.5519 19.3109 35.5519Z" fill="#47A3FF"/>
<path d="M18.6822 35.614C18.6194 35.614 18.5879 35.614 18.5251 35.614C18.5879 35.5829 18.6508 35.5829 18.6822 35.614C18.6822 35.5829 18.6822 35.5829 18.6822 35.614Z" fill="#47A3FF"/>
<path d="M10.4785 37.4762C10.51 37.4762 10.5728 37.4762 10.6043 37.4762C10.5414 37.4762 10.51 37.4762 10.4785 37.4762Z" fill="#47A3FF"/>
<path d="M7.17822 36.7313C7.14679 36.7313 7.14679 36.7313 7.11536 36.7313C7.14679 36.7313 7.17822 36.7313 7.17822 36.7313Z" fill="#47A3FF"/>
<path d="M22.1083 34.1242C22.1083 34.1553 22.1083 34.1863 22.1083 34.1863C22.1083 34.1553 22.1083 34.1553 22.1083 34.1242Z" fill="#47A3FF"/>
<path d="M19.3423 2.18749C19.3737 2.18749 19.3737 2.18749 19.4052 2.18749C19.3737 2.18749 19.3423 2.18749 19.3423 2.18749Z" fill="#47A3FF"/>
<path d="M18.4308 2.74615C18.4622 2.74615 18.4622 2.74615 18.4936 2.74615C18.4936 2.74615 18.4622 2.74615 18.4308 2.74615Z" fill="#47A3FF"/>
<path d="M17.7707 4.11177C17.7707 4.1428 17.7393 4.1428 17.7393 4.17384V4.1428C17.7393 4.11177 17.7707 4.11177 17.7707 4.11177Z" fill="#47A3FF"/>
<path d="M12.7416 4.01866C12.7416 4.04969 12.7416 4.04969 12.7416 4.01866C12.6788 4.04969 12.6473 4.01866 12.6473 4.01866C12.6788 4.01866 12.7102 4.01866 12.7416 4.01866Z" fill="#47A3FF"/>
<path d="M4.60082 2.59097C4.56939 2.59097 4.56939 2.59097 4.60082 2.59097V2.59097Z" fill="#47A3FF"/>
<path d="M3.87789 38.4073C3.90932 38.4383 3.90932 38.4383 3.90932 38.4694C3.90932 38.4383 3.87789 38.4073 3.87789 38.4073Z" fill="#47A3FF"/>
<path d="M4.978 39.028C4.978 39.028 5.00943 39.028 5.00943 38.997C5.00943 38.997 5.00943 38.997 5.00943 39.028H4.978Z" fill="#47A3FF"/>
<path d="M13.0559 16.8989C13.0559 16.8678 13.0559 16.8678 13.0874 16.8368C13.1502 16.8678 13.2445 16.8368 13.3074 16.7747C14.0618 15.9988 14.8476 15.2539 15.6333 14.478C15.9477 14.1676 16.3563 13.7952 16.6706 13.3917C17.425 12.8951 18.3679 12.2434 18.305 11.4364C18.305 11.3743 18.2736 11.3433 18.2422 11.3123C18.2422 11.3123 18.2736 11.3123 18.2736 11.3433C18.5565 11.5295 18.8394 11.095 18.5565 10.9088C17.0163 9.94666 15.2247 9.45007 13.4331 9.388C12.8045 9.32593 12.1444 9.35696 11.5158 9.48111C10.1957 9.63629 8.90696 9.9777 7.71256 10.5053C7.5554 10.5364 7.42967 10.5984 7.27251 10.6295C7.20965 10.6605 7.17822 10.6915 7.14679 10.7536C6.98963 10.8157 6.83247 10.9088 6.67531 11.0019C6.48672 11.095 6.61245 11.3123 6.76961 11.3123C8.27833 13.5159 11.1386 14.6332 12.4902 16.9609C12.6159 17.1782 12.9931 17.1161 13.0559 16.8989ZM18.1165 11.2812C18.085 11.2812 18.0536 11.2812 18.0222 11.2812C18.0222 11.2502 18.0222 11.2502 17.9907 11.2192C18.0536 11.2192 18.085 11.2502 18.1165 11.2812ZM17.865 11.1261C17.8336 11.1261 17.8021 11.1261 17.8021 11.1261C17.7393 11.1261 17.7078 11.1571 17.6764 11.1571V11.1261C17.6764 10.9398 17.4564 10.9088 17.3621 11.0019C17.3621 10.9088 17.2992 10.8467 17.2364 10.7846C17.4564 10.9088 17.6764 11.0019 17.865 11.1261ZM14.7533 11.1571C14.8161 11.1571 14.879 11.1881 14.9733 11.1881C14.879 11.3123 14.7847 11.4054 14.7218 11.5295C14.7218 11.4054 14.7218 11.2812 14.7533 11.1571ZM14.3447 11.1881C14.3447 11.2502 14.3446 11.2812 14.3132 11.3433C14.2818 11.3433 14.2818 11.3123 14.2504 11.3123C14.3132 11.2502 14.3132 11.2192 14.3447 11.1881ZM14.4389 14.1987C14.4389 14.2297 14.4075 14.2608 14.4075 14.2608V14.2918C14.3132 14.3849 14.2189 14.447 14.1246 14.5401C14.1246 14.509 14.1246 14.509 14.1246 14.478C14.1246 14.478 14.1246 14.478 14.1246 14.447C14.1875 14.3849 14.2189 14.3228 14.2818 14.2918C14.3132 14.2608 14.3761 14.2297 14.4389 14.1987ZM14.0303 12.1192C14.0932 12.0882 14.1561 12.0882 14.1875 12.0572C14.1561 12.1503 14.1246 12.2434 14.0932 12.3675C14.0618 12.3675 14.0303 12.3675 13.9989 12.3675C13.9989 12.2744 13.9989 12.1813 14.0303 12.1192ZM13.5274 11.0019C13.496 11.0329 13.496 11.0329 13.4646 11.064C13.4646 11.0329 13.4646 11.0329 13.4646 11.0019C13.496 11.0019 13.496 11.0019 13.5274 11.0019ZM13.3388 12.3675C13.3388 12.3986 13.3388 12.4296 13.3074 12.4606L13.276 12.4296V12.3986C13.3074 12.3675 13.3388 12.3675 13.3388 12.3675ZM7.61826 11.7157C7.58683 11.7157 7.58683 11.7468 7.5554 11.7468C7.52397 11.7157 7.49254 11.6847 7.42967 11.6537C7.4611 11.6537 7.49254 11.6537 7.52397 11.6537C7.5554 11.6226 7.61826 11.6226 7.64969 11.5916C7.64969 11.6226 7.61826 11.6847 7.61826 11.7157ZM7.83828 11.5606H7.80685C7.83828 11.5606 7.83828 11.5295 7.83828 11.5606C7.86972 11.5295 7.83828 11.5295 7.83828 11.5606ZM7.96401 11.0329C7.77542 11.1261 7.58683 11.2192 7.39824 11.3123C7.36681 11.3433 7.30395 11.3433 7.27251 11.3743C7.24108 11.3743 7.20965 11.4054 7.20965 11.4364C7.14679 11.3743 7.08392 11.3123 6.98963 11.2192C7.17822 11.1261 7.36681 11.0329 7.52397 10.9709C7.68113 10.9709 7.83828 10.9709 7.99544 11.0019L7.96401 11.0329ZM8.21547 12.3054C8.27833 12.3365 8.37262 12.3365 8.43549 12.3675C8.46692 12.4296 8.49835 12.4917 8.52978 12.5537C8.43549 12.4606 8.30976 12.3675 8.21547 12.3054ZM8.40405 10.7226C8.56121 10.6915 8.68694 10.6605 8.8441 10.6295C8.81267 10.6605 8.7498 10.6915 8.71837 10.7226C8.68694 10.7226 8.62408 10.7536 8.59265 10.7536C8.49835 10.7536 8.46692 10.7226 8.40405 10.7226ZM9.37844 11.9951C9.25271 11.964 9.12698 11.933 9.03269 11.8709C8.96983 11.8089 8.90696 11.7468 8.8441 11.6537C8.78124 11.5916 8.71837 11.5295 8.65551 11.5295C8.68694 11.5295 8.68694 11.4985 8.71837 11.4985C8.7498 11.5295 8.81267 11.5606 8.8441 11.5916C8.96983 11.6537 9.06412 11.6847 9.18985 11.7157L9.22128 11.7468C9.28414 11.7778 9.34701 11.8399 9.40987 11.8709C9.40987 11.964 9.37844 11.9951 9.37844 11.9951ZM10.2585 13.0193C10.2271 13.0503 10.1957 13.0814 10.1642 13.1124C10.1014 13.0503 10.0071 12.9883 9.94421 12.9262C9.97564 12.8641 10.0071 12.802 10.0385 12.74C10.0699 12.74 10.1014 12.74 10.1014 12.771C10.0385 12.802 10.0385 12.8951 10.1014 12.9572C10.1642 12.9262 10.2271 12.9572 10.2585 13.0193ZM11.8301 15.1608C11.893 15.0987 11.9244 14.9746 11.893 14.8505C11.893 14.8194 11.893 14.8194 11.8615 14.7884C11.8615 14.7884 11.8615 14.7884 11.8615 14.7573C11.9558 14.9746 12.0187 15.1919 12.0816 15.4091C12.0187 15.347 11.9244 15.2539 11.8301 15.1608ZM12.553 15.8747C12.553 15.9057 12.553 15.9367 12.553 15.9678C12.5216 15.9367 12.4902 15.9057 12.4902 15.8747C12.5216 15.8747 12.553 15.8436 12.5845 15.8126C12.6159 15.7816 12.6473 15.7505 12.6788 15.6884C12.6473 15.7505 12.6159 15.8126 12.553 15.8747Z" fill="#47A3FF"/>
<path d="M20.851 33.5345C21.2911 33.6276 21.4796 33.0069 21.0396 32.9138C21.0396 32.9138 21.0396 32.9138 21.0082 32.9138C21.1968 32.4793 20.8824 31.4861 20.7567 31.2378C20.2224 30.1515 19.5623 29.0963 18.4936 28.3824C18.4308 28.3514 18.3679 28.3514 18.3365 28.3514C18.2736 28.2583 18.1793 28.1962 18.0222 28.1962C17.9907 28.1962 17.9907 28.1962 17.9593 28.1962C17.8964 28.1652 17.8336 28.1341 17.7707 28.1652C17.7078 28.1652 17.6764 28.1962 17.6135 28.1962C17.5193 28.1962 17.3935 28.1962 17.2992 28.1962H17.2678C17.2678 28.1962 17.2678 28.1962 17.2364 28.1962C13.3703 28.1962 9.4413 28.041 5.63806 28.3824C5.48091 28.3824 5.44947 28.5376 5.48091 28.6307C4.06648 29.4998 3.53214 31.6413 3.50071 33.069C3.50071 33.1931 3.595 33.3173 3.72073 33.3483C9.4413 34.3104 15.2247 32.3862 20.851 33.5345ZM18.9965 30.6171C19.2794 31.0826 19.5937 31.5482 19.8766 32.0137C20.0024 32.262 20.0967 32.5103 20.2224 32.7586C20.1281 32.7586 20.0338 32.7276 19.9395 32.7276C19.9709 32.6345 20.0024 32.5414 19.9709 32.4482C19.9709 32.4172 19.9395 32.3551 19.9081 32.3241C19.9709 32.2 19.9081 32.0448 19.7509 32.0137C19.5309 31.6103 19.248 31.2689 18.9337 30.9585C18.9965 30.8964 19.028 30.8033 19.028 30.7102C18.9965 30.6792 18.9965 30.6481 18.9965 30.6171ZM18.2422 31.5482C18.2736 31.5792 18.305 31.6103 18.3365 31.6413C18.2736 31.6413 18.2108 31.6723 18.1793 31.6723C18.2108 31.6413 18.2422 31.6103 18.2422 31.5482ZM17.7078 31.3309C17.7707 31.2999 17.8336 31.2689 17.8964 31.2068C17.8336 31.3309 17.7707 31.424 17.7078 31.5482C17.645 31.5482 17.5821 31.5482 17.4878 31.5482C17.5821 31.5171 17.6764 31.424 17.7078 31.3309ZM17.2678 28.9721C17.2678 29.0032 17.2678 29.0032 17.2678 28.9721V28.9721ZM17.3621 32.5414C16.5134 32.5414 15.6962 32.5414 14.8476 32.6034C15.6962 32.5414 16.5134 32.4793 17.3621 32.5414ZM14.8161 31.1137C14.8161 31.0826 14.8161 31.0826 14.8161 31.1137C14.9104 31.1447 15.0047 31.1757 15.099 31.1757H15.0676C14.9733 31.1757 14.879 31.1447 14.8161 31.1137ZM16.042 31.2689C16.042 31.2999 16.0105 31.3309 16.0105 31.362C15.9791 31.362 15.9162 31.362 15.8848 31.362C15.9162 31.3309 15.9791 31.2999 16.042 31.2689ZM15.2876 30.0584C15.1933 30.1205 15.099 30.2136 15.0047 30.3067C14.9733 30.2757 14.9104 30.2446 14.879 30.2136C14.9419 30.1826 14.9733 30.1205 15.0361 30.0895C15.1304 30.0584 15.1933 30.0584 15.2876 30.0584ZM14.879 29.6239C14.8476 29.6549 14.8161 29.6549 14.7847 29.686C14.6904 29.717 14.6275 29.7481 14.5332 29.7791C14.4704 29.717 14.3761 29.686 14.2818 29.686C14.5018 29.6549 14.7533 29.5929 14.9733 29.5618C14.9104 29.5929 14.879 29.5929 14.879 29.6239ZM14.0618 29.0963C14.1561 29.0963 14.2504 29.0963 14.3132 29.0963C14.2189 29.1273 14.1246 29.1584 14.0303 29.1894C14.0303 29.1894 14.0303 29.1894 14.0303 29.1584C14.0303 29.1273 14.0618 29.1273 14.0618 29.0963ZM13.5903 29.8722C13.6217 29.8722 13.6217 29.8722 13.5903 29.8722C13.716 29.8412 13.8103 29.8101 13.9046 29.7791C13.8417 29.8412 13.8103 29.9343 13.8103 30.0584C13.716 30.0895 13.6532 30.1205 13.5589 30.1515C13.5589 30.1205 13.5589 30.0895 13.5589 30.0584C13.5589 30.0274 13.5589 29.9653 13.5274 29.9343C13.5589 29.9032 13.5903 29.9032 13.5903 29.8722ZM13.3703 29.3756C13.276 29.4067 13.1817 29.4377 13.1188 29.4687C13.0874 29.4687 13.0245 29.4998 12.9931 29.4998C12.9617 29.4998 12.9302 29.4998 12.8988 29.4998C13.0559 29.4687 13.2131 29.4067 13.3703 29.3756ZM12.5216 31.6413C12.553 31.6723 12.5845 31.6723 12.6159 31.7034L12.5845 31.7344C12.553 31.7654 12.553 31.7965 12.5216 31.8275H12.4902C12.5216 31.7654 12.5216 31.7034 12.5216 31.6413ZM11.9873 30.3067C11.893 30.3377 11.8301 30.3998 11.7358 30.4309L11.7044 30.3998C11.7672 30.3688 11.893 30.3377 11.9873 30.3067ZM7.86972 32.3241C7.83828 32.3241 7.77542 32.3241 7.74399 32.3241C7.71256 32.262 7.68113 32.2 7.68113 32.1068C7.77542 32.1068 7.86972 32.1068 7.93258 32.0758C7.90115 32.1689 7.86972 32.231 7.86972 32.3241ZM11.2643 31.7965C11.3272 31.8585 11.3586 31.9206 11.4215 31.9827C11.3272 31.9827 11.2643 32.0137 11.17 32.0137C11.2015 31.9206 11.2329 31.8585 11.2643 31.7965ZM10.2585 31.9206C10.29 31.9827 10.3528 32.0137 10.3843 32.0758C10.2585 32.0758 10.1642 32.1068 10.0385 32.1068C10.1328 32.0448 10.1957 31.9827 10.2585 31.9206ZM9.69276 31.9827C9.66132 31.9206 9.62989 31.8585 9.59846 31.8275C9.72419 31.7965 9.84991 31.7654 9.97564 31.7344C9.91278 31.8275 9.81848 31.9206 9.69276 31.9827ZM9.47273 29.2515C9.56703 29.2515 9.62989 29.2204 9.72419 29.2204C9.62989 29.2515 9.56703 29.2515 9.47273 29.2825V29.2515ZM9.47273 30.3688C9.4413 30.3998 9.4413 30.3998 9.47273 30.3688V30.3688ZM9.40987 30.586C9.40987 30.6171 9.40987 30.6171 9.40987 30.586C9.37844 30.586 9.37844 30.586 9.37844 30.586L9.40987 30.555C9.40987 30.586 9.40987 30.586 9.40987 30.586ZM8.96983 30.0584C8.96983 30.0895 8.96983 30.0895 8.96983 30.0584C8.96983 30.0895 8.93839 30.0895 8.93839 30.1205C8.93839 30.1205 8.93839 30.0895 8.90696 30.0895C8.93839 30.0895 8.9384 30.0584 8.96983 30.0584ZM8.2469 32.2C8.34119 32.2 8.46692 32.1689 8.52978 32.0448C8.52978 32.0448 8.52978 32.0448 8.52978 32.0137C8.78124 31.9827 9.00126 31.9206 9.25271 31.8896C9.31557 31.9827 9.34701 32.0758 9.40987 32.1689C9.00126 32.2 8.59265 32.262 8.18403 32.2931C8.21546 32.262 8.21546 32.231 8.2469 32.2ZM7.4611 28.9411C7.49254 28.9101 7.49254 28.848 7.4611 28.817C7.61826 28.817 7.77542 28.848 7.93258 28.848C7.77542 28.879 7.61826 28.9101 7.4611 28.9411ZM7.30395 30.1515C7.30395 30.1205 7.30395 30.0895 7.30395 30.0584C7.27251 29.9343 7.20965 29.8101 7.08392 29.7791C7.20965 29.7481 7.36681 29.686 7.49254 29.6549C7.52397 29.6549 7.5554 29.6549 7.58683 29.6549C7.4611 29.8101 7.36681 29.9653 7.30395 30.1515ZM7.36681 32.3551C7.24108 32.3551 7.11535 32.3862 6.98963 32.3862C6.98963 32.3551 6.98963 32.3551 7.02106 32.3241C7.11535 32.2931 7.24108 32.262 7.33538 32.231C7.36681 32.262 7.36681 32.3241 7.36681 32.3551ZM7.02106 28.817C7.05249 28.817 7.08392 28.817 7.11536 28.817C6.92676 28.9411 6.80104 29.0652 6.67531 29.1894C6.64388 29.1894 6.61245 29.2204 6.58102 29.2204C6.73817 29.0652 6.8639 28.9411 7.02106 28.817ZM6.51815 29.9653C6.51815 29.9653 6.54958 29.9653 6.54958 29.9343C6.51815 29.9653 6.51815 29.9653 6.48672 29.9963C6.51815 29.9963 6.51815 29.9963 6.51815 29.9653ZM4.60082 30.524C4.8837 29.7481 5.32375 29.0963 6.01524 28.7549C6.10954 28.7549 6.1724 28.7549 6.2667 28.7859C6.23527 28.7859 6.20384 28.817 6.20384 28.817H6.1724C6.10954 28.848 6.04668 28.9101 5.98381 28.9411C5.44947 29.3135 5.04086 29.7481 4.78941 30.3067C4.75798 30.3688 4.66368 30.4309 4.60082 30.524ZM6.29813 29.0963C6.20384 29.2204 6.10954 29.3446 6.01524 29.4687C5.85809 29.5308 5.70093 29.6239 5.5752 29.717C5.79522 29.4687 6.01524 29.2825 6.29813 29.0963ZM5.13516 30.9585C5.22945 30.8033 5.38661 30.6792 5.51234 30.586C5.48091 30.7723 5.44947 30.9585 5.41804 31.1447C5.38661 31.1757 5.32375 31.2378 5.29232 31.2689C5.29232 31.2068 5.26088 31.1757 5.26088 31.1447C5.26088 31.0516 5.19802 30.9895 5.13516 30.9585ZM5.26088 32.4172L5.29232 32.3862C5.29232 32.3862 5.32375 32.3551 5.32375 32.3241C5.41804 32.2931 5.51234 32.262 5.5752 32.2C5.60663 32.262 5.60663 32.3241 5.63806 32.3862C5.51234 32.4172 5.38661 32.4172 5.26088 32.4172ZM5.95238 30.6481C5.88952 30.7102 5.85809 30.7412 5.79522 30.8033C5.82665 30.6171 5.85809 30.4619 5.92095 30.2757C5.98381 30.2446 6.01524 30.2136 6.07811 30.1826C6.04668 30.3377 6.01524 30.4929 5.95238 30.6481ZM6.04668 32.3241C6.1724 32.3862 6.32956 32.3862 6.42386 32.2931C6.42386 32.3241 6.45529 32.3551 6.48672 32.3862C6.32956 32.3862 6.1724 32.3862 6.04668 32.4172C6.04668 32.3862 6.04668 32.3551 6.04668 32.3241ZM7.30395 32.9759C7.33538 33.0069 7.36681 33.0379 7.42967 33.0379C7.49254 33.0379 7.5554 33.0379 7.58683 33.0379C7.14679 33.0379 6.67531 33.0379 6.23527 33.0069C6.61245 33.0069 6.9582 33.0069 7.30395 32.9759Z" fill="#47A3FF"/>
</svg>
