<svg width="149" height="20" viewBox="0 0 149 20" fill="none" xmlns="http://www.w3.org/2000/svg">
<path d="M19.0694 0.0727429C21.4619 0.282058 23.6147 0.934357 25.639 1.90681C29.1127 3.53629 31.737 5.68797 34.3614 7.83965C35.6764 8.88261 37.0912 9.93428 38.7168 10.8719C40.6242 12.0329 42.8767 12.6939 45.2577 13.0348C47.5389 13.3669 49.4733 13.0722 51.1603 12.1594C52.8532 11.1807 54.452 10.1276 56.1449 9.14895C57.7322 8.22737 59.3138 7.37156 60.9952 6.52448C63.52 5.22096 66.5912 4.56175 69.6508 4.03409C72.5053 3.55477 75.3847 3.93924 78.1184 4.84119C81.0457 5.82636 83.534 7.23708 85.8056 8.82767C87.32 9.88807 88.8345 10.9485 90.4601 11.886C94.2864 14.0766 98.6669 14.5261 103.069 13.5856C105.935 12.9748 108.248 11.7853 110.656 10.6704C112.648 9.71797 114.64 8.76549 116.914 8.03651C121.877 6.41611 127.341 5.96621 132.977 6.98954C138.718 7.95581 143.565 9.97049 146.139 13.841C146.85 14.8974 147.655 16.0283 148.367 17.0847C148.637 17.4398 148.702 17.8432 148.767 18.2465C148.832 18.6499 148.598 19.0271 147.995 19.0406C147.59 19.0715 146.998 18.9533 146.71 18.7956C146.141 18.4144 145.777 17.9849 145.418 17.4896C144.878 16.7795 144.337 16.0694 143.896 15.3681C141.973 12.0847 138.323 10.1747 133.485 9.22117C127.268 7.94819 121.576 8.70952 116.385 10.6414C114.726 11.2253 113.344 12.0986 111.774 12.8228C110.21 13.4813 108.739 14.2143 107.181 14.807C101.257 17.0725 92.86 16.603 87.1723 12.7251C85.7518 11.7392 84.2316 10.7446 82.8111 9.7587C80.921 8.40032 78.7087 7.27887 76.1572 6.59169C74.4913 6.11455 72.902 5.90923 71.1728 6.15562C67.8199 6.59134 64.8426 7.32504 62.2124 8.68561C59.9981 9.88374 57.8778 11.1564 55.6577 12.4203C54.8085 12.9425 53.9592 13.4647 53.016 13.9124C50.1633 15.5186 46.8391 15.6255 43.2849 14.9168C39.238 14.0988 36.0692 12.4297 33.3394 10.3351C31.7426 9.06867 30.1458 7.80223 28.5489 6.53579C26.9521 5.26934 25.1328 4.24856 23.1027 3.34188C20.3039 2.03655 17.1963 1.96351 14.1424 2.4254C9.14843 3.24777 5.74554 5.40237 3.48134 8.31938C3.14199 8.75364 2.90234 9.19663 2.46331 9.62217C2.23516 9.9336 1.8134 10.1618 1.39163 10.39C0.870181 10.6095 0.0841971 10.4082 0.0305471 9.87328C-0.0346121 9.46991 0.00567017 9.00948 0.139884 8.62355C2.79336 3.5534 7.97149 0.626214 16.1612 0.0171463C17.0699 -0.0359112 18.0668 0.0513037 19.0694 0.0727429Z" fill="#F07167"/>
</svg>
