<svg width="129" height="26" viewBox="0 0 129 26" fill="none" xmlns="http://www.w3.org/2000/svg">
<path d="M78.9498 16.8105C78.5137 17.4886 77.8831 18.0564 77.0319 19.0132C76.0908 17.8623 75.3286 17.1214 74.5715 16.2807C71.6799 12.2238 68.7882 8.16686 65.7967 4.10473C65.1448 3.16933 64.3878 2.32855 63.5256 1.58241C62.2798 0.515744 60.8712 0.6422 59.7099 1.78299C59.2843 2.26137 58.8534 2.83961 58.4278 3.31799C55.5326 6.97148 52.6427 10.5251 49.7475 14.1786C49.3271 14.5571 49.0014 15.0407 48.6809 15.4245C47.9347 16.2866 47.735 16.2761 46.9727 15.5352C46.3997 15.0045 45.9318 14.3792 45.4639 13.7538C41.8837 9.46055 38.3035 5.1673 34.718 0.973902C33.6823 -0.282023 32.5838 -0.339593 31.4173 0.901056C30.6764 1.66332 29.9302 2.52546 29.3838 3.39805C27.4188 6.49946 25.4538 9.60087 23.3889 12.6971C22.9529 13.3752 22.4169 14.048 21.8757 14.8208C21.4026 14.2953 21.0188 13.9748 20.6403 13.5544C18.0958 10.517 15.6563 7.38508 13.2117 4.35298C12.8332 3.93259 12.4651 3.31248 11.9867 2.88686C10.5673 1.31041 9.16398 1.337 7.87666 2.97187C7.54567 3.55535 7.12005 4.03373 6.79429 4.51734L0.631077 13.2067C0.420884 13.396 0.310553 13.5904 0.200223 13.7849C-0.0256706 14.2738 -0.151702 14.7679 0.331912 15.0936C0.621034 15.3091 1.22545 15.2406 1.5355 15.0566C2.4709 14.4046 3.31168 13.6476 4.05782 12.7855C5.45548 10.9561 6.85837 9.02688 8.26126 7.09766L8.26127 7.09763C8.79722 6.42477 9.33316 5.7519 9.9742 4.98441C10.4473 5.50989 10.7312 5.82518 11.3199 6.05631C12.4503 7.41733 13.4755 8.87298 14.6006 10.3339C16.4722 12.8352 18.449 15.242 20.4257 17.6488C21.6454 19.2147 22.9489 19.1829 24.1364 17.5428C24.562 17.0644 24.893 16.481 25.224 15.8975C27.4096 12.4071 29.5953 8.91669 31.8808 5.43152C32.2118 4.84805 32.8372 4.38013 33.3731 3.70726C34.414 4.86332 35.2605 5.90906 36.1121 6.85492C38.951 10.0078 41.7899 13.1607 44.3135 16.5975C44.7814 17.2229 45.2545 17.7483 45.8276 18.279C47.5466 19.8712 48.9499 19.8446 50.6419 18.1308L51.6035 16.9796C54.609 13.1316 57.7196 9.18897 60.825 5.34623C61.1455 4.96247 61.5659 4.58396 61.9915 4.10558C62.4646 4.63106 62.943 5.05668 63.3215 5.47707C64.2574 6.72776 65.188 8.07831 66.1238 9.329C68.1795 12.1404 70.2299 15.0517 72.2803 17.963C73.0321 18.9037 73.8786 19.9494 74.7355 20.7954C76.3599 22.2825 77.8578 22.361 79.5394 20.8469C80.275 20.1845 80.811 19.5116 81.3522 18.7389C83.8531 14.9646 86.2542 11.1851 88.7552 7.41081C88.9811 6.92196 89.4015 6.54345 89.9322 5.97044C90.4001 6.59578 90.6787 7.01093 90.9522 7.52595C91.7724 9.071 92.5875 10.7159 93.3026 12.3556C95.0168 15.9502 96.5313 19.5344 98.3507 23.0344C99.8965 26.0194 101.794 26.1188 103.838 23.4221C104.694 22.3655 105.356 21.1985 106.118 20.0368C107.978 17.03 109.833 14.1231 111.787 11.2214C112.118 10.638 112.46 9.85476 113.469 9.70737C113.737 10.3223 114.01 10.8373 114.184 11.347L115.983 17.1491C116.756 19.593 117.807 20.5493 120.404 20.6854C122.401 20.79 124.409 20.695 126.411 20.6998C127.385 20.5837 128.84 20.2198 128.887 19.3266C128.939 18.328 128.466 17.8025 127.367 17.7458C125.165 17.7305 123.063 17.7205 120.96 17.7104C119.862 17.6528 119.089 17.1117 118.847 15.9975C118.768 15.5928 118.689 15.1881 118.51 14.7782C117.653 12.0295 116.796 9.2809 115.839 6.52703C115.134 4.68763 113.646 4.4094 112.27 5.83931C111.954 6.1232 111.739 6.41232 111.524 6.70144C110.441 8.24691 109.364 9.69252 108.282 11.238C106.222 14.2341 104.263 17.2354 102.303 20.2367L102.302 20.2374C101.977 20.721 101.556 21.0995 101.026 21.6725C100.558 21.0472 100.179 20.6268 100.006 20.117C98.6647 17.0426 97.2239 13.963 95.7831 10.8834C94.7945 8.72879 93.7009 6.66881 92.6073 4.60884L92.6071 4.60856C92.3285 4.19341 91.9499 3.77303 91.5714 3.35264C90.52 2.3963 89.122 2.32303 88.0658 3.36919C87.535 3.9422 86.9991 4.61507 86.563 5.29318C83.9569 9.16209 81.4508 13.0362 78.9498 16.8105Z" fill="#F07167"/>
</svg>
