<svg width="45" height="42" viewBox="0 0 45 42" fill="none" xmlns="http://www.w3.org/2000/svg">
<path d="M33.1355 11.9654C32.7989 12.3484 32.6989 12.5216 32.4623 12.7314C27.8267 17.5606 22.8946 22.1032 17.4197 25.9859C16.9099 26.2689 16.3501 26.6385 15.8037 26.785C15.5305 26.8582 14.9975 26.7814 14.9609 26.6448C14.8011 26.3216 14.8279 25.8751 14.9779 25.6153C15.2779 25.0957 15.7511 24.6761 16.1743 24.3431C18.1671 22.4914 20.2831 20.8264 22.2759 18.9747C24.2188 17.2096 26.125 15.308 28.0312 13.4063C28.791 12.6903 29.6874 11.9376 30.5338 11.2716C30.907 11.0252 31.2802 10.7788 31.69 10.669C32.0999 10.5592 32.7195 10.686 33.0159 10.9726C33.2757 11.1226 33.1489 11.7422 33.1355 11.9654Z" fill="#F07167"/>
<path d="M8.12314 10.6879C8.97314 9.21564 9.87314 7.65679 10.7231 6.18455C11.1731 5.40512 11.7463 4.8123 12.3696 4.13288C12.6562 3.83647 13.3258 3.87666 13.6722 4.07666C13.932 4.22666 14.0784 4.77307 14.0516 5.21948C14.0248 5.66589 13.8248 6.0123 13.5748 6.44532C11.6882 9.51301 9.7516 12.6673 7.7784 15.685C7.4284 16.2912 6.90519 16.7974 6.34538 17.167C6.02218 17.3269 5.43917 17.3367 5.04276 17.2233C4.86955 17.1233 4.82314 16.4036 4.88654 16.0938C5.24994 15.2644 5.64994 14.5716 6.09994 13.7922C6.83654 12.7163 7.43654 11.6771 8.12314 10.6879C8.03654 10.6379 8.03654 10.6379 8.12314 10.6879Z" fill="#F07167"/>
<path d="M23.4826 37.6843C23.6826 37.3379 23.9326 36.9049 24.3058 36.6585C25.1522 35.9925 25.962 35.1898 26.8451 34.6604C29.4075 33.0222 31.9199 31.4705 34.519 29.9688C35.0288 29.6858 35.4886 29.4894 36.035 29.343C36.3582 29.1832 36.7912 29.4332 37.1876 29.5466C37.0742 29.943 37.084 30.526 36.7974 30.8224C36.4108 31.292 35.901 31.575 35.4278 31.9947C34.2716 32.5973 33.202 33.2499 32.0458 33.8525C29.9565 35.0712 27.8307 36.1532 25.7915 37.2853C25.1451 37.6049 24.4986 37.9245 23.8156 38.1075C23.779 37.9709 23.6058 37.8709 23.4826 37.6843Z" fill="#F07167"/>
</svg>
