<svg width="64" height="24" viewBox="0 0 64 24" fill="none" xmlns="http://www.w3.org/2000/svg">
<g clip-path="url(#clip0_40_767)">
<path d="M18.5808 0H5.41922C2.42627 0 0 2.4375 0 5.44431V18.5557C0 21.5625 2.42627 24 5.41922 24H18.5808C21.5737 24 24 21.5625 24 18.5557V5.44431C24 2.4375 21.5737 0 18.5808 0Z" fill="#47A3FF"/>
<path fill-rule="evenodd" clip-rule="evenodd" d="M9.60797 9.30315H12.6403V10.8647H12.6844C13.1067 10.1037 14.1394 9.30315 15.6792 9.30315C18.8812 9.30315 19.4733 11.305 19.4733 13.9092V19.4152H16.3111L16.3106 14.5115C16.3106 13.3903 16.2877 11.9474 14.6662 11.9474C13.02 11.9474 12.7673 13.1675 12.7673 14.4301V19.4152H9.60797V9.30315ZM7.81594 6.23793C7.81594 7.14963 7.07906 7.88992 6.17156 7.88992C5.26359 7.88992 4.52672 7.14963 4.52672 6.23793C4.52672 5.32575 5.26359 4.58594 6.17156 4.58594C7.07906 4.58594 7.81594 5.32575 7.81594 6.23793ZM4.52672 9.30315H7.81594V19.4152H4.52672V9.30315Z" fill="white"/>
</g>
<g clip-path="url(#clip1_40_767)">
<path d="M58.5808 0H45.4192C42.4263 0 40 2.4375 40 5.44431V18.5557C40 21.5625 42.4263 24 45.4192 24H58.5808C61.5737 24 64 21.5625 64 18.5557V5.44431C64 2.4375 61.5737 0 58.5808 0Z" fill="#47A3FF"/>
<path d="M55.1753 6.98633H56.8684L53.1695 11.234L57.5209 17.0136H54.1136L51.445 13.5086L48.3911 17.0136H46.697L50.6533 12.4707L46.4791 6.98633H49.9727L52.3848 10.1905L55.1753 6.98633ZM54.5809 15.9955H55.5194L49.4631 7.95124H48.4563L54.5809 15.9955Z" fill="white"/>
</g>
<defs>
<clipPath id="clip0_40_767">
<rect width="24" height="24" fill="white"/>
</clipPath>
<clipPath id="clip1_40_767">
<rect width="24" height="24" fill="white" transform="translate(40)"/>
</clipPath>
</defs>
</svg>
