<svg width="74" height="100" viewBox="0 0 74 100" fill="none" xmlns="http://www.w3.org/2000/svg">
<path d="M73.64 35.7009C73.64 60.0609 52.92 76.4409 29.26 85.6809H73.36V99.9609H1.12V85.9609C38.22 70.5609 56.14 56.1409 56.14 35.9809C56.14 24.0809 49.7 14.8409 36.82 14.8409C24.22 14.8409 17.5 23.8009 17.5 36.5409C17.5 44.2409 20.02 50.8209 24.36 56.9809H6.3C2.52 51.2409 -1.90735e-06 44.8009 -1.90735e-06 35.9809C-1.90735e-06 15.2609 13.86 0.000931025 36.68 0.000931025C59.78 0.000931025 73.64 15.6809 73.64 35.7009Z" fill="url(#paint0_linear_33_291)"/>
<defs>
<linearGradient id="paint0_linear_33_291" x1="2.60197" y1="-1.53906" x2="45.7203" y2="112.991" gradientUnits="userSpaceOnUse">
<stop stop-color="#47A3FF"/>
<stop offset="1" stop-color="#47A3FF" stop-opacity="0"/>
</linearGradient>
</defs>
</svg>
