<svg width="41" height="39" viewBox="0 0 41 39" fill="none" xmlns="http://www.w3.org/2000/svg">
<path d="M36.3884 29.4364C33.6104 28.2859 32.2329 26.4549 32.2968 23.7918C32.3334 22.7458 32.5419 21.6646 32.9371 20.7959C34.1227 18.1897 38.2162 18.0682 39.9062 20.5515C40.9101 21.9576 41.0345 23.6153 40.7596 25.2472C40.4239 27.1065 39.6538 28.7682 38.7321 30.3893C37.1066 33.1213 35.1632 35.5244 32.5432 37.4214C31.9261 37.9058 31.2887 38.4659 30.3997 38.1465C29.9965 37.2263 30.7246 36.9341 31.094 36.4645C32.5313 34.7379 34.0443 33.0317 35.4058 31.2848C35.8714 30.7598 36.0338 30.1536 36.3884 29.4364ZM38.2832 25.3959C38.5323 24.1631 38.6854 22.9858 37.9236 21.8883C37.086 20.7705 35.6963 20.8042 35.0683 21.9354C34.263 23.4253 35.114 26.0086 36.6999 26.7584C37.3413 27.0927 37.7811 26.9669 38.0599 26.2294C38.1411 25.9263 38.2223 25.6232 38.2832 25.3959Z" fill="#F07167"/>
<path d="M29.5659 25.4966C28.8294 28.548 27.2094 30.9566 25.2863 33.284C24.8411 33.7332 24.3958 34.1824 23.8194 34.5153C23.435 34.7372 22.7476 34.8778 22.4648 34.7208C21.9195 34.3311 22.3092 33.7858 22.5826 33.3717C23.2255 32.4881 23.7925 31.5842 24.4557 30.6248C24.8861 29.928 25.3165 29.2311 25.6711 28.5139C26.0257 27.7968 25.8444 27.2609 25.0866 27.0578C22.5859 26.3878 21.7796 24.5474 21.6661 22.2428C21.5175 19.7664 23.0562 17.661 25.4271 16.9968C27.3582 16.4583 29.1863 17.5167 29.8005 19.4681C30.3944 21.4953 30.2453 23.567 29.5659 25.4966ZM27.501 23.8063C27.4619 22.74 27.5188 21.6182 27.3281 20.5112C27.0819 19.3082 26.1171 18.9684 25.0602 19.5786C24.0993 20.1334 23.7447 20.8506 23.9909 22.0536C24.2114 23.6558 24.7715 24.2932 25.984 24.6181C26.666 24.8008 27.1261 24.5992 27.501 23.8063Z" fill="#F07167"/>
<path d="M19.7188 6.77683C19.2667 8.76736 17.8755 10.019 16.2975 11.0581C15.4125 11.6331 14.4165 12.016 13.4963 12.4192C12.1159 13.0239 12.0199 13.0794 12.013 14.6207C11.9966 15.591 12.1319 16.6018 12.1155 17.5721C12.1101 17.8955 12.1601 18.315 12.0789 18.6181C12.018 18.8454 11.7649 19.1837 11.5931 19.2189C11.4212 19.2541 10.9665 19.1322 10.8556 18.9401C10.5579 18.5354 10.3766 17.9995 10.2508 17.5597C9.67724 15.4568 9.59894 13.3241 9.94013 11.1414C10.3883 8.25644 11.0638 5.43234 12.9111 3.08468C14.5054 1.0753 17.0224 0.775108 18.7083 2.36392C20.0208 3.52779 20.2413 5.13001 19.7188 6.77683ZM12.9484 9.91704C14.7537 8.93883 16.1395 8.01065 17.1166 6.48566C17.2939 6.12708 17.5118 5.61693 17.4618 5.19744C17.4118 4.77794 17.1547 4.22174 16.7406 3.94836C16.2711 3.57889 15.5837 3.71957 15.1384 4.1688C14.7135 4.54225 14.344 5.01178 14.1261 5.52192C13.5536 6.74923 12.5819 7.9508 12.9484 9.91704Z" fill="#F07167"/>
<path d="M4.40358 17.861C3.3318 18.2236 2.97866 17.7229 2.68099 17.3182C0.597286 14.4858 -0.283389 11.4071 0.0795696 7.93078C0.385597 5.57622 1.05021 3.39896 2.52808 1.52083C3.75286 -0.0190126 5.12775 -0.300362 6.67848 0.277592C8.28468 0.951628 9.32381 2.52956 9.00836 4.31306C8.55476 7.52149 7.08632 9.97067 3.96164 11.3263C2.21728 12.0772 2.08059 12.2842 2.7557 14.0083C3.38077 15.3128 3.87459 16.501 4.40358 17.861ZM2.36233 9.11097C2.66545 9.19219 2.817 9.2328 2.98886 9.19763C5.12697 8.79591 7.08126 5.74595 6.90688 3.66876C6.89746 3.0977 6.33728 2.46029 5.90292 2.26268C5.54433 2.08538 4.7405 2.35731 4.39134 2.75106C2.78222 4.5128 2.04183 6.66976 2.36233 9.11097Z" fill="#F07167"/>
</svg>
