<svg width="43" height="40" viewBox="0 0 43 40" fill="none" xmlns="http://www.w3.org/2000/svg">
<path d="M0.482822 37.7526C0.448247 37.8563 0.413672 37.9255 0.379096 38.0292C2.45362 38.1329 4.49356 38.5824 6.53351 39.0319C8.15855 39.3776 9.7836 39.6197 11.3741 39.7925C12.5496 39.7925 13.6906 39.7925 14.8662 39.758C14.9353 39.8617 15.039 39.9309 15.1428 40C15.3848 40 15.6268 40 15.8689 40H15.9034C16.0763 39.9309 16.2146 39.8271 16.3529 39.7234C18.1163 39.6888 19.8796 39.7234 21.6429 39.6888C21.9195 39.6888 22.1962 39.6888 22.4728 39.6542C24.0978 39.4814 25.6883 39.2048 27.2787 38.859C27.2442 38.7207 27.2096 38.5478 27.175 38.4095C27.2787 38.375 27.3479 38.2712 27.3825 38.1675C27.4862 35.7818 27.9011 33.3961 28.1431 31.0104C28.3851 28.5556 28.558 25.7895 27.2787 23.5076C26.3452 21.8134 24.2015 21.0873 22.369 20.3612C21.6429 20.05 20.8823 19.7388 20.2599 19.2894C19.7759 18.4595 19.4301 17.4914 18.9115 16.6962C21.7467 14.76 23.5792 11.3024 23.6483 8.36354C23.6829 7.32628 23.4409 6.3236 22.9914 5.42464C22.1616 2.52031 18.9806 0.480359 15.696 0.0654544C12.273 -0.34945 9.19581 1.24102 8.02025 3.90332C7.88195 4.11077 7.70907 4.28365 7.57077 4.4911C5.73828 7.18798 6.77554 11.1641 8.36601 13.7573C8.40058 13.8264 8.46973 13.9302 8.53888 13.9993C8.67718 14.9674 9.23039 15.8664 10.1985 16.6271C10.5788 16.9382 10.9937 17.1803 11.4432 17.3877C11.2012 17.9409 10.9246 18.4595 10.5788 18.9782C9.88732 19.4622 9.12666 19.8771 8.36601 20.292C8.19313 20.2575 7.98568 20.292 7.8128 20.4303C7.6745 20.5341 7.50162 20.6724 7.36332 20.7761C5.53083 21.6751 3.66376 22.4703 2.28074 23.7496C-1.79915 27.4491 0.932302 33.2578 0.482822 37.7526ZM24.4781 38.2712C24.5127 38.2367 24.5473 38.2367 24.6164 38.2021C24.6164 38.2367 24.6164 38.2712 24.6164 38.3058C24.5819 38.2712 24.5127 38.2712 24.4781 38.2712ZM25.792 23.3001C26.2415 23.7496 26.5526 24.3028 26.7601 24.8906C26.5181 24.4411 26.2069 24.0262 25.8266 23.6113C25.792 23.4384 25.6883 23.2655 25.6191 23.1272C25.6883 23.1618 25.7574 23.2309 25.792 23.3001ZM25.1696 33.569C25.1696 33.7073 25.1351 33.8456 25.1005 33.9839C25.0659 33.9493 25.0313 33.9147 24.9968 33.9147C25.0659 33.811 25.1351 33.6727 25.1696 33.569ZM24.651 29.4545C24.651 30.1114 24.5819 30.803 24.409 31.4599C24.3744 31.4599 24.3398 31.4253 24.3053 31.4253C24.5127 30.803 24.6164 30.1114 24.651 29.4545ZM23.3026 35.6435C23.3717 35.5052 23.4409 35.3669 23.51 35.2286C23.51 35.2977 23.51 35.3323 23.51 35.4015C23.4409 35.5744 23.3717 35.7127 23.268 35.8855C23.268 35.8164 23.268 35.7472 23.3026 35.6435ZM22.127 31.1141C22.1616 31.2524 22.1616 31.3562 22.1961 31.4945C22.1616 31.3907 22.127 31.287 22.0924 31.2179C22.0924 31.1833 22.0924 31.1487 22.127 31.1141ZM21.9887 37.5797C21.9195 37.5797 21.8504 37.5797 21.7812 37.6143C21.8158 37.5797 21.8504 37.5452 21.885 37.5106C21.9195 37.5106 21.9541 37.5106 21.9887 37.476C21.9887 37.476 21.9887 37.5106 21.9887 37.5797ZM21.9195 23.3692C21.9195 23.4384 21.885 23.473 21.8504 23.5421C21.8158 23.6113 21.8158 23.715 21.8158 23.8187V23.8533C21.8158 23.957 21.8158 24.0262 21.8158 24.1299C21.7812 24.1299 21.7812 24.1645 21.7467 24.1645C21.7121 24.0953 21.6775 23.9916 21.6429 23.9225C21.7467 23.7496 21.8504 23.5421 21.9195 23.3692ZM20.7786 33.0504L20.8131 33.0849C20.7786 33.1195 20.7786 33.1195 20.744 33.1541C20.744 33.1195 20.744 33.0849 20.7786 33.0504ZM19.7759 22.2283C19.845 22.2974 19.9142 22.332 19.9833 22.4011C19.9142 22.4357 19.845 22.4703 19.7759 22.5049C19.8104 22.4011 19.8104 22.332 19.7759 22.2283ZM8.0894 8.53642C8.12398 8.57099 8.12398 8.60557 8.15855 8.67472C8.19313 9.43538 8.36601 10.2652 8.60803 11.0604C8.33143 10.2306 8.12398 9.36623 8.0894 8.53642ZM10.8554 14.6217C10.9592 14.7254 11.0975 14.7946 11.2358 14.8983C11.2358 14.9329 11.2358 14.9329 11.2358 14.9674C11.0975 14.8291 10.9937 14.7254 10.8554 14.6217ZM13.2757 38.4441C13.2757 38.4095 13.3103 38.3404 13.3103 38.3058C13.414 38.2367 13.5177 38.1675 13.5869 38.0638C13.6906 38.2021 13.7598 38.3404 13.8289 38.4441C13.656 38.4441 13.4486 38.4441 13.2757 38.4441ZM15.4194 15.7281C15.5923 15.6935 15.7997 15.6589 15.9726 15.6244C15.7651 15.6935 15.5577 15.7627 15.3157 15.8318C15.3502 15.7972 15.3848 15.7627 15.4194 15.7281ZM13.0683 25.997C13.1028 25.7204 13.172 25.4092 13.2411 25.1326V25.098C13.3794 25.0289 13.4832 24.9597 13.5177 24.8906C13.6215 24.7523 13.6215 24.5448 13.4486 24.3719C12.7917 23.7842 12.2384 23.2309 12.2384 22.332C12.2384 21.7096 12.5842 21.0873 12.8954 20.5341C13.3449 19.7734 13.9326 18.9782 14.1055 18.1138C14.7624 18.1484 15.454 18.1138 16.1109 17.9409C16.5949 19.5314 17.9434 20.8452 18.7732 22.2974C17.8051 23.0926 16.8024 23.9225 16.0417 24.8906C15.938 24.856 15.7997 24.8906 15.696 24.9943C15.1774 25.6166 15.3502 26.5156 15.3502 27.2071C15.3502 28.1752 15.3848 29.1433 15.5231 30.1114C15.5577 30.4918 15.6268 30.8721 15.7306 31.2179C15.7306 31.2524 15.696 31.287 15.696 31.3216C15.6614 31.4253 15.7306 31.5636 15.8689 31.5982C16.18 32.6009 16.7678 33.569 17.7705 34.1222C17.5976 34.5025 17.0444 34.9174 16.7332 35.3669C16.1455 36.2313 15.696 37.1302 15.0045 37.9255C14.7279 37.4068 14.4513 36.8882 14.1401 36.3696C13.6215 35.5744 12.8954 34.71 11.8927 34.3988C12.273 32.4626 12.4459 30.4918 12.6879 28.521C12.9991 27.7257 13.1374 26.8268 13.0683 25.997ZM17.8397 32.6354C17.8051 32.7046 17.8051 32.7738 17.7705 32.8429C17.7014 32.7738 17.6668 32.7046 17.5976 32.6354C17.6322 32.6009 17.6668 32.5663 17.7014 32.5317C17.7359 32.5663 17.7705 32.6009 17.8397 32.6354ZM16.6987 29.3854C16.6641 29.4545 16.6295 29.5237 16.5949 29.5928C16.5949 29.5582 16.5949 29.4891 16.5949 29.4545C16.6295 29.4199 16.6641 29.3854 16.6987 29.3854ZM16.5604 28.9359C16.5604 28.8667 16.5604 28.8322 16.5604 28.763C16.5949 28.7976 16.6295 28.7976 16.6641 28.8322C16.6641 28.8667 16.6641 28.8667 16.6641 28.9013C16.6295 28.8667 16.5949 28.9013 16.5604 28.9359ZM12.1347 36.0238C11.9964 35.9201 11.8235 35.7818 11.6852 35.6781C11.8235 35.7818 11.9964 35.8855 12.1347 36.0238ZM11.1666 22.6777C11.1666 22.816 11.2012 22.9543 11.2358 23.0926C11.1666 23.0235 11.0975 22.9543 11.0283 22.8852C11.0629 22.816 11.0975 22.7469 11.1666 22.6777ZM10.9592 32.2205C10.9937 32.2205 10.9937 32.186 11.0283 32.186C10.9937 32.3934 10.9592 32.6009 10.89 32.8083C10.9246 32.6354 10.9246 32.428 10.9592 32.2205ZM9.61072 39.1702C9.05751 39.1702 8.50431 39.1702 7.98568 39.1702C8.36601 39.1702 8.78091 39.1356 9.16124 39.1356C9.29954 39.1356 9.43784 39.1702 9.61072 39.1702ZM8.91921 20.9836C8.98836 20.949 9.05751 20.9144 9.12666 20.8798C9.02294 20.9836 8.91921 21.0873 8.81549 21.191C8.85006 21.1219 8.88464 21.0527 8.91921 20.9836ZM8.46973 33.1887C8.40058 33.0158 8.36601 32.8429 8.29685 32.6354C8.29685 32.6009 8.26228 32.5663 8.26228 32.4971C8.33143 32.5317 8.43516 32.5317 8.50431 32.5317C8.50431 32.7738 8.46973 32.9812 8.46973 33.1887ZM8.05483 24.8906C8.19313 24.6831 8.33143 24.4411 8.46973 24.2336C8.26228 24.6831 8.05483 25.1326 7.84738 25.6166C7.8128 25.6512 7.77822 25.6512 7.77822 25.6858C7.84738 25.4092 7.9511 25.1672 8.05483 24.8906ZM7.74365 34.952C7.84737 35.194 7.9511 35.4361 8.05483 35.6781C7.91653 35.5052 7.77822 35.2978 7.70907 35.0557C7.74365 35.0557 7.74365 34.9866 7.74365 34.952ZM3.07597 27.2071C3.07597 27.2763 3.07597 27.3454 3.0414 27.4146H3.00682C3.00682 27.3454 3.0414 27.2763 3.07597 27.2071ZM2.93767 37.718C2.9031 37.718 2.9031 37.718 2.86852 37.7526C2.86852 37.6835 2.86852 37.6143 2.9031 37.5797C2.9031 37.6143 2.93767 37.6834 2.93767 37.718ZM2.7648 28.3827C2.83395 28.3827 2.86852 28.3481 2.93767 28.3481V28.3827C2.83395 28.8322 2.69565 29.2471 2.59192 29.6965C2.62649 29.2471 2.66107 28.8322 2.7648 28.3827Z" fill="#47A3FF"/>
<path d="M18.2892 33.2923C18.3237 33.2923 18.3237 33.2923 18.2892 33.2923C18.3237 33.2923 18.3237 33.2923 18.3237 33.3269C18.3237 33.3269 18.3237 33.3269 18.2892 33.2923Z" fill="#47A3FF"/>
<path d="M16.4912 25.582C16.4912 25.5474 16.4912 25.5474 16.4912 25.5128C16.5258 25.5128 16.5258 25.5128 16.5604 25.5128C16.5258 25.5128 16.5258 25.5474 16.4912 25.582Z" fill="#47A3FF"/>
<path d="M29.9756 23.7838C30.0102 23.5418 30.0447 23.2998 30.1139 23.0578V23.0232C30.2176 22.9886 30.3213 22.9194 30.3559 22.8503C30.4596 22.712 30.4596 22.5737 30.2868 22.4008C29.7336 21.8822 29.2495 21.4327 29.2495 20.6721C29.2495 20.1188 29.5607 19.6002 29.8027 19.1507C30.183 18.4938 30.7017 17.8369 30.84 17.0762C31.3932 17.1108 31.981 17.0762 32.5342 16.9379C32.9491 18.2864 34.0901 19.3928 34.7816 20.6375C33.9863 21.329 33.122 22.0205 32.465 22.8157C32.3613 22.7811 32.2576 22.8157 32.1884 22.9195C31.7735 23.4381 31.9118 24.1987 31.9118 24.7865C31.9118 25.6163 31.9464 26.4461 32.0501 27.2759C32.0847 27.5871 32.1538 27.8983 32.223 28.2095C32.223 28.2441 32.1884 28.2786 32.1884 28.3132C32.1538 28.4169 32.223 28.5207 32.3267 28.5552C32.6033 29.4196 33.0874 30.2149 33.9518 30.6989C33.8135 31.0101 33.3294 31.3904 33.0874 31.7707C32.6033 32.4968 32.223 33.2575 31.6352 33.949C31.3932 33.4995 31.1512 33.05 30.9091 32.6351C30.8746 32.6006 30.84 32.5314 30.8054 32.4968C30.84 33.4995 30.7708 34.5022 30.6325 35.4703C30.9091 35.4703 31.2203 35.4703 31.4969 35.4703C31.5315 35.5049 31.5661 35.5395 31.6006 35.574C33.2603 35.2629 34.9199 35.1937 36.5795 35.2283C38.4811 34.9863 40.3136 34.5713 42.1115 33.9836C42.2153 32.0128 42.561 30.0074 42.7339 28.0366C42.9414 25.9621 43.0797 23.611 42.0078 21.6747C41.2126 20.2571 39.3801 19.6348 37.8588 19.0124C37.2364 18.7704 36.6141 18.4938 36.0609 18.1135C35.6805 17.3874 35.3348 16.5922 34.9199 15.9007C37.3056 14.2756 38.896 11.3367 38.9306 8.84727C38.9652 7.98289 38.7577 7.11851 38.3774 6.35785C37.6859 3.93757 34.989 2.2088 32.223 1.86305C29.3187 1.48272 26.7255 2.86574 25.7228 5.11314C25.5845 5.28601 25.4808 5.45889 25.3425 5.63177C23.7866 7.91374 24.651 11.3021 25.9994 13.4804C26.034 13.5495 26.1031 13.6187 26.1377 13.6878C26.276 14.5176 26.7255 15.2783 27.5553 15.9007C27.8665 16.1427 28.2468 16.3847 28.6272 16.5576C28.4197 17.0071 28.1777 17.4565 27.9011 17.906C27.3133 18.3209 26.6909 18.6667 25.9994 19.0124C25.8611 18.9779 25.6882 19.0124 25.5154 19.1507C25.3771 19.2545 25.2388 19.3582 25.135 19.4619C24.9967 19.5311 24.8584 19.6002 24.7547 19.6348C27.2441 20.8449 28.8346 23.3344 29.7336 25.9621C29.8719 25.2014 30.0102 24.4753 29.9756 23.7838ZM32.8799 26.135C32.9145 26.1695 32.9491 26.1695 32.9837 26.1695C32.9837 26.2041 32.9837 26.2041 32.9837 26.2387C32.9491 26.2387 32.9145 26.2733 32.9145 26.2733C32.8799 26.2041 32.8799 26.1695 32.8799 26.135ZM32.9491 26.8265C32.9491 26.7919 32.9491 26.7573 32.9491 26.7227C32.9837 26.7227 33.0182 26.6882 33.0528 26.6882V26.7227C32.9837 26.7227 32.9837 26.7919 32.9491 26.8265ZM33.9172 29.5579C33.8826 29.4888 33.8135 29.4542 33.7789 29.385C33.8135 29.3505 33.848 29.3159 33.8826 29.2813C33.9172 29.3159 33.9518 29.3505 33.9863 29.385C33.9518 29.4542 33.9172 29.5233 33.9172 29.5579ZM39.6221 34.191C39.6567 34.1564 39.6913 34.1564 39.7258 34.1219C39.7258 34.1564 39.7258 34.1564 39.7258 34.191C39.6913 34.191 39.6567 34.191 39.6221 34.191ZM40.7285 21.5019C41.1089 21.8822 41.3509 22.3317 41.5583 22.8503C41.3509 22.47 41.0743 22.0896 40.7631 21.7785C40.7285 21.6402 40.6594 21.5019 40.5902 21.3636C40.6248 21.3981 40.694 21.4673 40.7285 21.5019ZM40.2099 30.2149C40.2099 30.3186 40.1753 30.4569 40.1753 30.5606C40.1407 30.526 40.1062 30.526 40.1062 30.4915C40.1062 30.4223 40.1753 30.3186 40.2099 30.2149ZM39.7604 26.7227C39.7604 27.2759 39.6913 27.8637 39.553 28.4169C39.5184 28.4169 39.4838 28.4169 39.4838 28.3824C39.6567 27.8637 39.7258 27.2759 39.7604 26.7227ZM38.5849 31.9782C38.654 31.8745 38.7232 31.7362 38.7577 31.5979C38.7577 31.6324 38.7577 31.7016 38.7577 31.7362C38.6886 31.8745 38.6194 32.0128 38.5503 32.1511C38.5849 32.1165 38.5849 32.0473 38.5849 31.9782ZM37.6167 28.1403C37.6513 28.2441 37.6513 28.3478 37.6859 28.4861C37.6513 28.4169 37.6167 28.3132 37.5822 28.2441C37.5822 28.2095 37.5822 28.1749 37.6167 28.1403ZM37.513 33.6032C37.4439 33.6032 37.3747 33.6032 37.3401 33.6378C37.3747 33.6032 37.4093 33.5687 37.4093 33.5341C37.4439 33.5341 37.4784 33.5341 37.513 33.4995C37.513 33.5341 37.513 33.5687 37.513 33.6032ZM37.4439 21.571C37.4439 21.6056 37.4093 21.6747 37.4093 21.7093C37.3747 21.7785 37.3747 21.8476 37.3747 21.9513V21.9859C37.3747 22.0551 37.3747 22.1242 37.3747 22.2279C37.3401 22.2279 37.3401 22.2625 37.3056 22.2625C37.271 22.1934 37.2364 22.1242 37.2018 22.0551C37.3056 21.8822 37.3747 21.7439 37.4439 21.571ZM35.6114 20.6029C35.6805 20.6375 35.7151 20.7066 35.7843 20.7412C35.7151 20.7758 35.646 20.8104 35.6114 20.8449C35.646 20.7758 35.646 20.6721 35.6114 20.6029ZM31.9464 15.1054C32.1193 15.0708 32.2576 15.0363 32.4304 15.0017C32.2576 15.0708 32.0847 15.14 31.8772 15.1746C31.8772 15.14 31.9118 15.14 31.9464 15.1054ZM25.7228 9.02015C25.7228 9.05473 25.7574 9.0893 25.792 9.12388C25.8265 9.78081 25.9648 10.4723 26.1723 11.1292C25.9303 10.4377 25.7574 9.71166 25.7228 9.02015ZM28.0739 14.1719C28.1777 14.241 28.2814 14.3448 28.3851 14.4139V14.4485C28.2814 14.3448 28.1777 14.241 28.0739 14.1719ZM26.3452 19.7385C26.3798 19.6694 26.4143 19.6348 26.4143 19.5656C26.4835 19.5311 26.5526 19.4965 26.5872 19.4619C26.5181 19.5311 26.4489 19.6348 26.3452 19.7385ZM28.2122 21.1561C28.2468 21.087 28.2814 21.0524 28.316 20.9832C28.316 21.087 28.3505 21.2253 28.3851 21.329C28.3505 21.2598 28.2814 21.2253 28.2122 21.1561Z" fill="#47A3FF"/>
</svg>
