<svg width="37" height="40" viewBox="0 0 37 40" fill="none" xmlns="http://www.w3.org/2000/svg">
<path d="M23.8728 30.7112C23.8148 30.3048 23.7567 29.7823 23.6987 29.3179C23.5825 26.6473 24.1631 24.209 25.7306 22.061C26.2531 21.3062 27.0659 20.7837 27.9367 20.4935C29.1558 20.0871 30.375 19.7388 31.6522 19.7968C32.1166 19.7388 32.6972 19.7968 32.9294 19.1582C33.1616 18.4615 32.5811 18.2293 32.1747 17.881C29.33 15.9071 26.7175 13.643 24.6856 10.7983C23.2342 8.76633 22.6537 6.56023 22.5375 4.12192C22.5375 3.59942 22.5375 3.01887 22.4795 2.49637C22.3634 2.2061 22.2473 1.79971 21.7828 1.74165C21.3184 1.6836 21.0862 1.97388 20.912 2.32221C20.6798 2.8447 20.5056 3.3672 20.2153 3.88969C19.5767 5.10885 18.9962 6.38607 18.2415 7.54717C16.9643 9.46299 15.0484 10.6821 12.9004 11.4369C11.5071 11.9013 10.1137 12.1335 8.66237 12.4819C8.31404 12.598 7.90765 12.598 7.55932 12.7721C6.8046 13.0624 6.63044 13.7591 7.09488 14.3977C7.26904 14.6299 7.55932 14.8621 7.79154 15.0943C8.43015 15.7329 9.06875 16.3135 9.64931 17.0102C11.391 19.0421 12.0296 21.3643 11.6232 23.9768C11.391 25.4862 11.0426 26.9376 10.7524 28.447C10.6943 28.7373 10.6362 29.0856 10.6362 29.3759C10.6362 29.7823 10.8104 30.1306 11.1587 30.3048C11.5071 30.479 11.8554 30.3048 12.0876 30.0726C12.3779 29.8403 12.6101 29.5501 12.9004 29.2598C13.7132 28.447 14.642 27.8084 15.8032 27.5181C16.8481 27.2279 17.8931 27.344 18.822 27.9245C20.0992 28.6792 20.912 29.8403 21.6667 31.0595C21.957 31.5239 22.3634 31.9303 22.8278 32.2787C23.2923 32.627 23.6406 32.3948 23.8148 31.8723C23.8148 31.7562 23.8728 31.6981 23.8728 31.582C23.8728 31.2917 23.8728 31.0595 23.8728 30.7112ZM9.41709 14.1655C10.5201 13.8752 11.391 13.701 12.2037 13.4688C14.4098 12.8302 16.3837 11.7852 18.0673 10.1597C19.0542 9.23077 19.809 8.12772 20.4476 6.96662C20.6217 6.67634 20.6798 6.32801 21.0862 6.26996C21.1442 6.32801 21.2023 6.32801 21.2023 6.38607C21.2603 6.44412 21.3184 6.56023 21.3184 6.61829C21.4926 8.65022 22.4795 10.3919 23.6406 12.0174C25.15 14.1074 27.0078 15.8491 29.1558 17.3585C29.4461 17.5327 29.7364 17.8229 29.9686 18.0552C29.9686 18.1132 29.9106 18.2293 29.9106 18.2874C29.33 18.4035 28.7494 18.5776 28.1689 18.6938C26.2531 19.1582 24.7436 20.2032 23.6987 21.9448C22.7698 23.5123 22.2473 25.1379 22.0151 26.9376C21.957 27.344 21.8409 27.7504 21.7248 28.389C21.2603 27.9826 20.912 27.6923 20.6217 27.402C19.1123 26.0087 17.3706 25.312 15.3387 25.8926C14.7001 26.0668 14.1196 26.4151 13.4809 26.6473C13.3068 26.7054 13.0746 26.7054 12.7843 26.7634C12.9004 26.2409 12.9584 25.8345 13.0165 25.4282C13.2487 23.7446 13.3648 22.119 13.0165 20.4354C12.6101 18.3454 11.5651 16.6618 10.1718 15.1524C9.99764 14.8621 9.76542 14.5718 9.41709 14.1655Z" fill="#F07167"/>
<path d="M5.70155 21.7126C5.35322 21.7707 4.88878 21.8287 4.4824 22.0029C3.37934 22.3512 2.2763 22.7576 1.17325 23.164C0.824921 23.2801 0.476585 23.5123 0.244366 23.7446C-0.162018 24.1509 -0.0459099 24.6154 0.476589 24.7895C0.708809 24.8476 1.05714 24.9057 1.28936 24.7895C2.97296 24.2671 4.65656 23.6865 6.2821 23.1059C6.39821 23.0479 6.51432 22.9898 6.63043 22.9318C6.74654 22.7576 7.03682 22.4673 6.97877 22.3512C6.92071 22.119 6.63043 21.9448 6.39821 21.8287C6.2821 21.7126 5.99183 21.7707 5.70155 21.7126Z" fill="#F07167"/>
<path d="M35.4258 3.54136C35.0194 3.83164 34.6711 4.06386 34.3808 4.35414C33.3358 5.34107 32.3489 6.32801 31.3039 7.31495C30.9555 7.66328 30.7233 8.06967 30.4911 8.47605C30.433 8.65022 30.4911 8.94049 30.6072 9.0566C30.7814 9.17271 31.0717 9.23077 31.2458 9.23077C31.478 9.17271 31.7103 8.99855 31.8844 8.88244C33.1036 7.8955 34.2647 6.79245 35.0775 5.45718C35.4838 4.87663 35.7741 4.35414 35.4258 3.54136Z" fill="#F07167"/>
<path d="M35.4258 30.9434C36.0644 30.9434 36.2966 30.7112 36.1225 30.3048C36.0063 29.9565 35.7741 29.6081 35.4838 29.3759C34.4969 28.5051 33.3939 27.7504 32.1166 27.344C31.9425 27.2859 31.8264 27.2279 31.6522 27.2279C31.2458 27.1698 30.8975 27.2279 30.6653 27.6343C30.4911 28.0406 30.7233 28.3309 31.0136 28.5051C31.1297 28.6212 31.3039 28.6792 31.42 28.7373C32.4069 29.3179 33.4519 29.9565 34.4389 30.479C34.8452 30.7112 35.1936 30.8273 35.4258 30.9434Z" fill="#F07167"/>
<path d="M8.72042 0C8.43015 0.638607 8.60431 1.1611 8.89459 1.56749C9.59125 2.72859 10.404 3.83164 11.1587 4.93469C11.2748 5.10885 11.449 5.28302 11.6812 5.34107C11.9135 5.39913 12.2618 5.39913 12.494 5.28302C12.7843 5.10885 12.8423 4.76052 12.6682 4.47025C12.5521 4.29608 12.494 4.06386 12.3779 3.88969C11.6812 2.96081 11.0426 1.97388 10.346 1.04499C9.76541 0.348331 9.53319 0.232221 8.72042 0Z" fill="#F07167"/>
<path d="M16.0354 40C16.2676 39.7097 16.5579 39.4194 16.732 39.0711C17.3126 37.852 17.6029 36.5747 17.6029 35.2395C17.6029 35.0653 17.6029 34.8331 17.5448 34.717C17.3706 34.4848 17.1384 34.2525 16.9643 34.2525C16.7901 34.2525 16.4998 34.4848 16.4418 34.6589C16.2676 34.9492 16.2676 35.2975 16.2095 35.6459C16.0354 36.807 15.8612 37.91 15.7451 39.0711C15.687 39.3614 15.8032 39.6517 15.8612 39.9419C15.8612 39.9419 15.9193 40 16.0354 40Z" fill="#F07167"/>
</svg>
