<svg width="83" height="17" viewBox="0 0 83 17" fill="none" xmlns="http://www.w3.org/2000/svg">
<path d="M31.8983 10.737C32.1769 11.1701 32.5796 11.5327 33.1233 12.1438C33.7244 11.4088 34.2113 10.9355 34.6948 10.3985L34.6951 10.3982C36.542 7.80704 38.3889 5.21592 40.2995 2.62146C40.7159 2.024 41.1995 1.48697 41.7501 1.01039C42.5459 0.329088 43.4456 0.409859 44.1873 1.13851C44.4592 1.44406 44.7344 1.8134 45.0062 2.11895C46.8554 4.45252 48.7013 6.72231 50.5505 9.05588C50.8191 9.29765 51.0271 9.60655 51.2318 9.85166C51.7084 10.4023 51.836 10.3956 52.3229 9.9224C52.6889 9.58342 52.9877 9.18399 53.2866 8.78457C55.5734 6.04236 57.8602 3.30015 60.1503 0.621725C60.8118 -0.180466 61.5134 -0.217237 62.2585 0.575197C62.7317 1.06208 63.2083 1.61274 63.5573 2.17009C64.8124 4.15104 66.0675 6.13198 67.3864 8.10959C67.665 8.54271 68.0073 8.97249 68.353 9.46606C68.6552 9.13042 68.9003 8.92569 69.142 8.65718C70.7673 6.71716 72.3254 4.7167 73.8869 2.78002C74.1287 2.51151 74.3637 2.11543 74.6693 1.84358C75.5759 0.836662 76.4723 0.853648 77.2945 1.89788C77.5059 2.27056 77.7778 2.57611 77.9858 2.88501L81.9224 8.43511C82.0567 8.556 82.1272 8.68022 82.1976 8.80445C82.3419 9.11669 82.4224 9.43227 82.1135 9.64034C81.9288 9.77794 81.5428 9.73421 81.3448 9.61667C80.7473 9.20026 80.2103 8.71672 79.7337 8.16606C78.841 6.9976 77.9449 5.76536 77.0488 4.53312C76.7065 4.10334 76.3642 3.67356 75.9547 3.18333C75.6525 3.51897 75.4712 3.72036 75.0952 3.86798C74.3732 4.7373 73.7184 5.66706 72.9998 6.60016C71.8043 8.19786 70.5417 9.73511 69.2791 11.2724C68.5 12.2726 67.6675 12.2523 66.909 11.2047C66.6372 10.8991 66.4258 10.5265 66.2144 10.1538L66.2142 10.1536C64.8182 7.92423 63.4222 5.6949 61.9624 3.46892C61.751 3.09624 61.3516 2.79737 61.0093 2.36759C60.3444 3.10599 59.8038 3.77393 59.2598 4.37808C57.4465 6.39191 55.6333 8.40575 54.0214 10.6009C53.7225 11.0003 53.4203 11.336 53.0543 11.6749C51.9563 12.6919 51.06 12.6749 49.9793 11.5803L49.3651 10.8449C47.4454 8.38713 45.4586 5.86889 43.4751 3.41444C43.2704 3.16932 43.0019 2.92756 42.73 2.622C42.4278 2.95764 42.1223 3.2295 41.8805 3.49801C41.2828 4.29685 40.6884 5.15949 40.0906 5.95833C38.7776 7.75406 37.468 9.61356 36.1583 11.4731L36.1583 11.4731C35.6781 12.0739 35.1374 12.7419 34.5901 13.2822C33.5526 14.232 32.5958 14.2822 31.5218 13.3151C31.0519 12.892 30.7095 12.4622 30.3639 11.9687C28.7665 9.55794 27.2328 7.14386 25.6354 4.73314C25.4911 4.4209 25.2226 4.17913 24.8836 3.81313C24.5847 4.21256 24.4068 4.47773 24.2321 4.80668C23.7082 5.79354 23.1876 6.84418 22.7308 7.89148C21.6359 10.1875 20.6686 12.4768 19.5065 14.7123C18.5191 16.6189 17.3072 16.6824 16.0017 14.96C15.4546 14.2851 15.0318 13.5397 14.5452 12.7977C13.3572 10.8772 12.1726 9.02046 10.9242 7.16708C10.7128 6.7944 10.4947 6.29415 9.85016 6.20001C9.67886 6.59275 9.50422 6.9217 9.39336 7.24731L8.24442 10.9533C7.75059 12.5142 7.07904 13.125 5.42063 13.2119C4.14493 13.2788 2.86254 13.2181 1.5835 13.2211C0.961334 13.147 0.0323864 12.9146 0.00248723 12.3441C-0.030941 11.7062 0.271274 11.3706 0.972937 11.3343C2.37954 11.3246 3.72237 11.3182 5.0652 11.3117C5.76684 11.275 6.2604 10.9293 6.41498 10.2176C6.46539 9.95916 6.51581 9.70068 6.63001 9.43885C7.1776 7.68323 7.7252 5.92761 8.33657 4.16865C8.78668 2.99378 9.73678 2.81606 10.6161 3.72938C10.8175 3.91071 10.9551 4.09538 11.0927 4.28005C11.784 5.26718 12.472 6.19052 13.1634 7.17765C14.4789 9.09147 15.7307 11.0086 16.9824 12.9258C17.1905 13.2347 17.459 13.4765 17.798 13.8425C18.0968 13.443 18.3386 13.1745 18.4495 12.8489C19.306 10.8852 20.2262 8.91819 21.1465 6.95115C21.7779 5.5749 22.4765 4.25909 23.1751 2.94327C23.353 2.67811 23.5948 2.40959 23.8366 2.14108C24.5081 1.53025 25.4011 1.48345 26.0757 2.15165C26.4147 2.51765 26.7571 2.94743 27.0356 3.38055C28.7001 5.85172 30.3009 8.32624 31.8983 10.737Z" fill="#F07167"/>
</svg>
