<svg width="149" height="16" viewBox="0 0 149 16" fill="none" xmlns="http://www.w3.org/2000/svg">
<path d="M18.1873 3.18333C20.5889 3.18333 22.7904 3.64551 24.8918 4.43783C28.4942 5.75836 31.2961 7.67313 34.098 9.5879C35.4989 10.5123 36.9999 11.4366 38.7011 12.229C40.7024 13.2194 43.004 13.6815 45.4056 13.8136C47.7072 13.9456 49.6084 13.4835 51.2095 12.427C52.8106 11.3046 54.3116 10.1161 55.9127 8.99366C57.4137 7.93723 58.9147 6.94684 60.5158 5.95644C62.9174 4.43783 65.9194 3.51346 68.9215 2.72114C71.7234 1.99485 74.6253 2.1269 77.4272 2.78717C80.4292 3.51346 83.031 4.70194 85.4326 6.08849C87.0337 7.01286 88.6348 7.93723 90.3359 8.72955C94.3386 10.5783 98.7416 10.6443 103.044 9.32379C105.846 8.46545 108.048 7.07889 110.349 5.75836C112.251 4.63591 114.152 3.51346 116.353 2.58909C121.157 0.542265 126.56 -0.382106 132.264 0.146106C138.068 0.608292 143.071 2.19293 145.973 5.82439C146.774 6.81478 147.675 7.87121 148.475 8.86161C148.775 9.19174 148.875 9.5879 148.975 9.98406C149.076 10.3802 148.875 10.7764 148.275 10.8424C147.875 10.9084 147.274 10.8424 146.974 10.7103C146.374 10.3802 145.973 9.98406 145.573 9.52187C144.973 8.86161 144.372 8.20134 143.872 7.54108C141.671 4.43783 137.868 2.85319 132.965 2.32498C126.66 1.59869 121.057 2.85319 116.053 5.23015C114.452 5.95644 113.151 6.94684 111.65 7.80518C110.149 8.5975 108.748 9.45584 107.247 10.1821C101.543 12.9552 93.1378 13.2194 87.1337 9.852C85.6327 8.99366 84.0316 8.13531 82.5306 7.27697C80.5293 6.08849 78.2277 5.16412 75.626 4.70194C73.9248 4.3718 72.3238 4.30578 70.6226 4.70194C67.3204 5.42823 64.4184 6.41862 61.9167 8.00326C59.8153 9.38982 57.814 10.8424 55.7126 12.295C54.912 12.8892 54.1115 13.4835 53.2109 14.0117C50.509 15.8604 47.2068 16.2566 43.6044 15.8604C39.5016 15.3982 36.1994 14.0117 33.2974 12.1629C31.5963 11.0405 29.8952 9.91803 28.194 8.79558C26.4929 7.67313 24.5916 6.81478 22.4902 6.08849C19.5882 5.03207 16.4861 5.23015 13.4841 5.95644C8.58078 7.21094 5.37863 9.65392 3.37728 12.7572C3.07707 13.2194 2.87694 13.6815 2.47667 14.1437C2.27653 14.4739 1.87626 14.738 1.476 15.0021C0.975658 15.2662 0.175118 15.1341 0.0750506 14.6059C-0.0250169 14.2098 -0.0250169 13.7476 0.0750506 13.3514C2.27653 8.06929 7.17984 4.70194 15.2853 3.38141C16.1859 3.24935 17.1866 3.24935 18.1873 3.18333Z" fill="#F07167"/>
</svg>
